{
.appVersion = "1032";
classes = (
{
automatic = 1;
code = "A AE B C D E F G Germandbls H I J K L M N O P Q R S T U V W X Y Z Aacute Abreve Acircumflex Adblgrave Adieresis Adotbelow Agrave Ahookabove Ainvertedbreve Amacron Aogonek Aring Aringacute Atilde AEacute Cacute Ccaron Ccedilla Ccircumflex Cdotaccent DZcaron Eth Dcaron Dcroat Dzcaron Eacute Ebreve Ecaron Ecircumflex Edblgrave Edieresis Edotaccent Edotbelow Egrave Ehookabove Einvertedbreve Emacron Eogonek Etilde Gbreve Gcaron Gcircumflex Gcommaaccent Gdotaccent Hbar Hcircumflex IJ Iacute Ibreve Icircumflex Idblgrave Idieresis Idotaccent Idotbelow Igrave Ihookabove Iinvertedbreve Imacron Iogonek Itilde Jcircumflex Kcommaaccent LJ Lacute Lcaron Lcommaaccent Ldot Lj Lslash NJ Nacute Ncaron Ncommaaccent Eng Nj Ntilde Oacute Obreve Ocircumflex Odblgrave Odieresis Odotbelow Ograve Ohookabove Ohorn Ohornacute Ohorndotbelow Ohorngrave Ohornhookabove Ohorntilde Ohungarumlaut Oinvertedbreve Omacron Oogonek Oslash Oslashacute Otilde OE Thorn Racute Rcaron Rcommaaccent Rdblgrave Rinvertedbreve Sacute Scaron Scedilla Scircumflex Scommaaccent Schwa Tbar Tcaron Tcedilla Tcommaaccent Uacute Ubreve Ucircumflex Udblgrave Udieresis Udotbelow Ugrave Uhookabove Uhorn Uhornacute Uhorndotbelow Uhorngrave Uhornhookabove Uhorntilde Uhungarumlaut Uinvertedbreve Umacron Uogonek Uring Utilde Wacute Wcircumflex Wdieresis Wgrave Yacute Ycircumflex Ydieresis Ydotbelow Ygrave Yhookabove Ymacron Ytilde Zacute Zcaron Zdotaccent Omega";
name = Uppercase;
}
);
copyright = "Copyright 2011 The Paytone Project Authors (https://github.com/googlefonts/paytoneFont)";
customParameters = (
{
name = trademark;
value = "Paytone One is a trademark of vernon adams.";
},
{
name = "Use Typo Metrics";
value = 1;
},
{
name = license;
value = "This Font Software is licensed under the SIL Open Font License, Version 1.1. This license is available with a FAQ at: http://scripts.sil.org/OFL";
},
{
name = licenseURL;
value = "http://scripts.sil.org/OFL";
},
{

glyphs = (
{
glyphname = A;
layers = (
{
anchors = (
{
name = bottom;
position = "{352, 0}";
},
{
name = ogonek;
position = "{698, 0}";
},
{
name = top;
position = "{347, 688}";
}
);
background = {
anchors = (
{
name = bottom;
position = "{352, 0}";
},
{
name = ogonek;
position = "{698, 0}";
},
{
name = top;
position = "{347, 688}";
}
);
paths = (
{
closed = 1;
nodes = (
"195 688 LINE",
"499 688 LINE",
"698 0 LINE",
"463 0 LINE",
"437 132 LINE",
"259 132 LINE",
"230 0 LINE",
"5 0 LINE"
);
},
{
closed = 1;
nodes = (
"413 255 LINE",
"348 556 LINE",
"280 255 LINE"
);
}
);
};
hints = (
{
horizontal = 1;
place = "{132, 123}";
},
{
horizontal = 1;
place = "{0, 21}";
target = up;
type = BottomGhost;
},
{
horizontal = 1;
place = "{688, -20}";
target = down;
type = TopGhost;
}
);
layerId = UUID0;
paths = (
{
closed = 1;
nodes = (
"230 0 LINE",
"259 132 LINE",
"437 132 LINE",
"463 0 LINE",
"698 0 LINE",
"499 688 LINE",
"195 688 LINE",
"5 0 LINE"
);
},
{
closed = 1;
nodes = (
"348 556 LINE",
"413 255 LINE",
"280 255 LINE"
);
}
);
width = 699;
}
);
leftKerningGroup = A;
rightKerningGroup = A;
unicode = 0041;
},
{
glyphname = AE;
layers = (
{
anchors = (
{
name = bottom;
position = "{468, 0}";
},
{
name = top;
position = "{468, 688}";
}
);
background = {
paths = (
{
closed = 1;
nodes = (
"232 688 LINE",
"807 688 LINE",
"834 536 LINE",
"558 536 LINE",
"582 411 LINE",
"831 411 LINE",
"855 285 LINE",
"612 285 LINE",
"642 150 LINE",
"899 150 LINE",
"927 0 LINE",
"448 0 LINE",
"426 132 LINE",
"257 132 LINE",
"216 0 LINE",
"-3 0 LINE"
);
},
{
closed = 1;
nodes = (
"402 255 LINE",
"361 506 LINE",
"294 255 LINE"
);
}
);
};
guideLines = (
{
angle = 99.6865;
position = "{904, 0}";
}
);
hints = (
{
horizontal = 1;
place = "{0, 150}";
},
{
horizontal = 1;
place = "{132, 123}";
},
{
horizontal = 1;
place = "{285, 126}";
},
{
horizontal = 1;
place = "{536, 151}";
}
);
layerId = UUID0;
paths = (
{
closed = 1;
nodes = (
"216 0 LINE",
"257 132 LINE",
"426 132 LINE",
"448 0 LINE",
"927 0 LINE",
"901 152 LINE",
"632 152 LINE",
"610 285 LINE",
"855 285 LINE",
"834 411 LINE",
"588 411 LINE",
"567 536 LINE",
"835 536 LINE",
"809 688 LINE",
"232 688 LINE",
"-3 0 LINE"
);
},
{
closed = 1;
nodes = (
"361 506 LINE",
"402 255 LINE",
"294 255 LINE"
);
}
);
width = 937;
}
);
leftKerningGroup = A;
rightKerningGroup = E;
unicode = 00C6;
},
{
color = 3;
glyphname = B;
layers = (
{
anchors = (
{
name = bottom;
position = "{365, 0}";
},
{
name = top;
position = "{365, 688}";
}
);
background = {
anchors = (
{
name = bottom;
position = "{365, 0}";
},
{
name = top;
position = "{365, 688}";
}
);
paths = (
{
closed = 1;
nodes = (
"331 -16 OFFCURVE",
"217 -11 OFFCURVE",
"65 -1 CURVE",
"65 688 LINE",
"409 688 LINE SMOOTH",
"556 688 OFFCURVE",
"665 624 OFFCURVE",
"665 521 CURVE SMOOTH",
"665 437 OFFCURVE",
"628 385 OFFCURVE",
"556 374 CURVE",
"647 366 OFFCURVE",
"696 307 OFFCURVE",
"696 209 CURVE SMOOTH",
"696 86 OFFCURVE",
"572 -16 OFFCURVE",
"405 -16 CURVE SMOOTH"
);
},
{
closed = 1;
nodes = (
"477 277 OFFCURVE",
"434 306 OFFCURVE",
"373 306 CURVE SMOOTH",
"287 306 LINE",
"287 145 LINE",
"302 145 OFFCURVE",
"316 145 OFFCURVE",
"330 145 CURVE SMOOTH",
"386 145 LINE SMOOTH",
"437 145 OFFCURVE",
"477 174 OFFCURVE",
"477 223 CURVE SMOOTH"
);
},
{
closed = 1;
nodes = (
"457 531 OFFCURVE",
"428 555 OFFCURVE",
"369 555 CURVE SMOOTH",
"288 555 LINE",
"288 416 LINE",
"367 416 LINE SMOOTH",
"418 416 OFFCURVE",
"457 443 OFFCURVE",
"457 484 CURVE SMOOTH"
);
}
);
};
hints = (
{
horizontal = 1;
place = "{-16, 160}";
},
{
horizontal = 1;
place = "{306, 110}";
},
{
horizontal = 1;
place = "{555, 133}";
}
);
layerId = UUID0;
paths = (
{
closed = 1;
nodes = (
"592 -12 OFFCURVE",
"696 86 OFFCURVE",
"696 209 CURVE SMOOTH",
"696 307 OFFCURVE",
"647 360 OFFCURVE",
"556 374 CURVE",
"628 392 OFFCURVE",
"665 437 OFFCURVE",
"665 521 CURVE SMOOTH",
"665 624 OFFCURVE",
"556 688 OFFCURVE",
"409 688 CURVE SMOOTH",
"65 688 LINE",
"65 -1 LINE",
"197 -11 OFFCURVE",
"251 -12 OFFCURVE",
"325 -12 CURVE SMOOTH"
);
},
{
closed = 1;
nodes = (
"343 145 OFFCURVE",
"317 146 OFFCURVE",
"287 148 CURVE",
"287 306 LINE",
"373 306 LINE SMOOTH",
"439 306 OFFCURVE",
"477 277 OFFCURVE",
"477 223 CURVE SMOOTH",
"477 174 OFFCURVE",
"437 145 OFFCURVE",
"363 145 CURVE SMOOTH"
);
},
{
closed = 1;
nodes = (
"288 555 LINE",
"369 555 LINE SMOOTH",
"428 555 OFFCURVE",
"457 531 OFFCURVE",
"457 484 CURVE SMOOTH",
"457 443 OFFCURVE",
"418 416 OFFCURVE",
"367 416 CURVE SMOOTH",
"288 416 LINE"
);
}
);
width = 721;
}
);
leftKerningGroup = B;
unicode = 0042;
},
{
color = 3;
glyphname = C;
layers = (
{
anchors = (
{
name = bottom;
position = "{355, 0}";
},
{
name = top;
position = "{355, 688}";
}
);
background = {
paths = (
{
closed = 1;
nodes = (
"473 165 OFFCURVE",
"502 174 OFFCURVE",
"551 193 CURVE",
"579 35 LINE",
"521 1 OFFCURVE",
"458 -16 OFFCURVE",
"389 -16 CURVE SMOOTH",
"292 -16 OFFCURVE",
"209 17 OFFCURVE",
"141 82 CURVE SMOOTH",
"68 150 OFFCURVE",
"32 237 OFFCURVE",
"31 344 CURVE",
"31 553 OFFCURVE",
"183 703 OFFCURVE",
"383 703 CURVE SMOOTH",
"455 703 OFFCURVE",
"520 686 OFFCURVE",
"578 653 CURVE",
"551 498 LINE",
"503 516 OFFCURVE",
"460 525 OFFCURVE",
"421 525 CURVE SMOOTH",
"313 525 OFFCURVE",
"255 459 OFFCURVE",
"255 345 CURVE SMOOTH",
"255 232 OFFCURVE",
"318 165 OFFCURVE",
"427 165 CURVE SMOOTH"
);
}
);
};
hints = (
{
horizontal = 1;
place = "{-16, 181}";
},
{
horizontal = 1;
place = "{525, 178}";
}
);
layerId = UUID0;
paths = (
{
closed = 1;
nodes = (
"458 -16 OFFCURVE",
"521 1 OFFCURVE",
"579 35 CURVE",
"551 193 LINE",
"498 171 OFFCURVE",
"468 165 OFFCURVE",
"427 165 CURVE SMOOTH",
"319 165 OFFCURVE",
"255 231 OFFCURVE",
"255 345 CURVE SMOOTH",
"255 461 OFFCURVE",
"314 525 OFFCURVE",
"421 525 CURVE SMOOTH",
"460 525 OFFCURVE",
"503 516 OFFCURVE",
"551 498 CURVE",
"578 653 LINE",
"528 686 OFFCURVE",
"453 703 OFFCURVE",
"383 703 CURVE SMOOTH",
"181 703 OFFCURVE",
"31 550 OFFCURVE",
"31 344 CURVE SMOOTH",
"31 140 OFFCURVE",
"187 -16 OFFCURVE",
"389 -16 CURVE SMOOTH"
);
}
);
width = 604;
}
);
leftKerningGroup = C;
rightKerningGroup = C;
unicode = 0043;
},
{
glyphname = D;
layers = (
{
anchors = (
{
name = bottom;
position = "{382, 0}";
},
{
name = center;
position = "{382, 344}";
},
{
name = top;
position = "{382, 688}";
}
);
background = {
paths = (
{
closed = 1;
nodes = (
"65 688 LINE",
"364 688 LINE SMOOTH",
"586 688 OFFCURVE",
"732 546 OFFCURVE",
"732 349 CURVE SMOOTH",
"732 140 OFFCURVE",
"587 0 OFFCURVE",
"364 0 CURVE SMOOTH",
"65 0 LINE"
);
},
{
closed = 1;
nodes = (
"364 180 LINE SMOOTH",
"464 180 OFFCURVE",
"508 275 OFFCURVE",
"508 351 CURVE SMOOTH",
"508 442 OFFCURVE",
"449 508 OFFCURVE",
"364 508 CURVE SMOOTH",
"286 508 LINE",
"286 180 LINE"
);
}
);
};
hints = (
{
horizontal = 1;
place = "{0, 180}";
},
{
horizontal = 1;
place = "{508, 180}";
}
);
layerId = UUID0;
paths = (
{
closed = 1;
nodes = (
"364 0 LINE SMOOTH",
"586 0 OFFCURVE",
"732 139 OFFCURVE",
"732 349 CURVE SMOOTH",
"732 550 OFFCURVE",
"582 688 OFFCURVE",
"364 688 CURVE SMOOTH",
"65 688 LINE",
"65 0 LINE"
);
},
{
closed = 1;
nodes = (
"286 508 LINE",
"354 508 LINE SMOOTH",
"460 508 OFFCURVE",
"508 443 OFFCURVE",
"508 351 CURVE SMOOTH",
"508 254 OFFCURVE",
"458 180 OFFCURVE",
"354 180 CURVE SMOOTH",
"286 180 LINE"
);
}
);
width = 764;
}
);
leftKerningGroup = B;
rightKerningGroup = D;
unicode = 0044;
},
{
glyphname = E;
layers = (
{
anchors = (
{
name = bottom;
position = "{307, 0}";
},
{
name = ogonek;
position = "{548, 0}";
},
{
name = top;
position = "{307, 688}";
},
{
name = topleft;
position = "{20, 688}";
}
);
background = {
paths = (
{
closed = 1;
nodes = (
"65 688 LINE",
"548 688 LINE",
"548 536 LINE",
"308 536 LINE",
"308 411 LINE",
"527 411 LINE",
"527 285 LINE",
"308 285 LINE",
"308 150 LINE",
"548 150 LINE",
"548 0 LINE",
"65 0 LINE"
);
}
);
};
hints = (
{
horizontal = 1;
place = "{0, 150}";
},
{
horizontal = 1;
place = "{285, 126}";
},
{
horizontal = 1;
place = "{536, 151}";
}
);
layerId = UUID0;
paths = (
{
closed = 1;
nodes = (
"548 0 LINE",
"548 152 LINE",
"308 152 LINE",
"308 285 LINE",
"527 285 LINE",
"527 411 LINE",
"308 411 LINE",
"308 536 LINE",
"548 536 LINE",
"548 688 LINE",
"65 688 LINE",
"65 0 LINE"
);
}
);
width = 595;
}
);
leftKerningGroup = B;
rightKerningGroup = E;
unicode = 0045;
},
{
glyphname = F;
layers = (
{
anchors = (
{
name = bottom;
position = "{173, 0}";
},
{
name = top;
position = "{302, 688}";
}
);
background = {
paths = (
{
closed = 1;
nodes = (
"65 688 LINE",
"539 688 LINE",
"539 536 LINE",
"280 536 LINE",
"280 397 LINE",
"520 397 LINE",
"520 271 LINE",
"280 271 LINE",
"280 0 LINE",
"65 0 LINE"
);
}
);
};
hints = (
{
horizontal = 1;
place = "{271, 127}";
},
{
horizontal = 1;
place = "{536, 151}";
},
{
horizontal = 1;
place = "{0, 21}";
target = up;
type = BottomGhost;
}
);
layerId = UUID0;
paths = (
{
closed = 1;
nodes = (
"280 0 LINE",
"280 271 LINE",
"520 271 LINE",
"520 397 LINE",
"280 397 LINE",
"280 536 LINE",
"539 536 LINE",
"539 688 LINE",
"65 688 LINE",
"65 0 LINE"
);
}
);
width = 570;
}
);
leftKerningGroup = B;
unicode = 0046;
},
{
color = 3;
glyphname = G;
layers = (
{
anchors = (
{
name = bottom;
position = "{355, 0}";
},
{
name = top;
position = "{355, 688}";
}
);
background = {
paths = (
{
closed = 1;
nodes = (
"458 -16 OFFCURVE",
"538 1 OFFCURVE",
"616 36 CURVE",
"616 349 LINE",
"443 329 LINE",
"443 167 LINE",
"428 165 OFFCURVE",
"415 164 OFFCURVE",
"403 164 CURVE SMOOTH",
"314 164 OFFCURVE",
"252 246 OFFCURVE",
"252 347 CURVE SMOOTH",
"252 439 OFFCURVE",
"305 526 OFFCURVE",
"403 526 CURVE SMOOTH",
"436 526 OFFCURVE",
"481 517 OFFCURVE",
"540 498 CURVE",
"606 653 LINE",
"537 687 OFFCURVE",
"460 703 OFFCURVE",
"375 703 CURVE SMOOTH",
"281 703 OFFCURVE",
"201 669 OFFCURVE",
"133 601 CURVE SMOOTH",
"64 532 OFFCURVE",
"30 448 OFFCURVE",
"30 350 CURVE SMOOTH",
"30 249 OFFCURVE",
"63 162 OFFCURVE",
"131 91 CURVE SMOOTH",
"198 20 OFFCURVE",
"280 -16 OFFCURVE",
"375 -16 CURVE SMOOTH"
);
}
);
};
hints = (
{
horizontal = 1;
place = "{-16, 180}";
},
{
horizontal = 1;
place = "{526, 177}";
}
);
layerId = UUID0;
paths = (
{
closed = 1;
nodes = (
"460 -16 OFFCURVE",
"540 1 OFFCURVE",
"616 36 CURVE",
"616 349 LINE",
"443 329 LINE",
"443 168 LINE",
"431 165 OFFCURVE",
"419 164 OFFCURVE",
"403 164 CURVE SMOOTH",
"313 164 OFFCURVE",
"252 243 OFFCURVE",
"252 347 CURVE SMOOTH",
"252 451 OFFCURVE",
"308 526 OFFCURVE",
"413 526 CURVE SMOOTH",
"457 526 OFFCURVE",
"496 516 OFFCURVE",
"540 498 CURVE",
"606 653 LINE",
"547 686 OFFCURVE",
"471 703 OFFCURVE",
"395 703 CURVE SMOOTH",
"178 703 OFFCURVE",
"30 545 OFFCURVE",
"30 350 CURVE SMOOTH",
"30 146 OFFCURVE",
"179 -16 OFFCURVE",
"385 -16 CURVE SMOOTH"
);
}
);
width = 659;
}
);
leftKerningGroup = C;
rightKerningGroup = G;
unicode = 0047;
},
{
color = 3;
glyphname = Germandbls;
layers = (
{
background = {
paths = (
{
closed = 1;
nodes = (
"594 -35 OFFCURVE",
"721 47 OFFCURVE",
"721 195 CURVE SMOOTH",
"721 299 OFFCURVE",
"646 380 OFFCURVE",
"529 422 CURVE",
"601 466 OFFCURVE",
"636 509 OFFCURVE",
"636 554 CURVE SMOOTH",
"636 648 OFFCURVE",
"532 703 OFFCURVE",
"354 703 CURVE SMOOTH",
"258 703 OFFCURVE",
"165 689 OFFCURVE",
"65 661 CURVE",
"65 0 LINE",
"288 0 LINE",
"288 561 LINE",
"314 567 OFFCURVE",
"338 570 OFFCURVE",
"359 570 CURVE SMOOTH",
"405 570 OFFCURVE",
"429 557 OFFCURVE",
"429 533 CURVE SMOOTH",
"429 499 OFFCURVE",
"409 474 OFFCURVE",
"357 443 CURVE",
"357 341 LINE",
"439 332 OFFCURVE",
"497 287 OFFCURVE",
"497 215 CURVE SMOOTH",
"497 153 OFFCURVE",
"459 125 OFFCURVE",
"393 125 CURVE SMOOTH",
"374 125 OFFCURVE",
"358 128 OFFCURVE",
"337 132 CURVE",
"337 -26 LINE",
"360 -31 OFFCURVE",
"400 -35 OFFCURVE",
"424 -35 CURVE SMOOTH"
);
}
);
};
layerId = UUID0;
paths = (
{
closed = 1;
nodes = (
"602 -29 OFFCURVE",
"721 59 OFFCURVE",
"721 188 CURVE SMOOTH",
"721 277 OFFCURVE",
"648 359 OFFCURVE",
"529 402 CURVE",
"606 449 OFFCURVE",
"636 493 OFFCURVE",
"636 554 CURVE SMOOTH",
"636 643 OFFCURVE",
"522 703 OFFCURVE",
"354 703 CURVE SMOOTH",
"258 703 OFFCURVE",
"165 689 OFFCURVE",
"65 661 CURVE",
"65 0 LINE",
"288 0 LINE",
"288 541 LINE",
"313 548 OFFCURVE",
"338 550 OFFCURVE",
"359 550 CURVE SMOOTH",
"405 550 OFFCURVE",
"429 534 OFFCURVE",
"429 510 CURVE SMOOTH",
"429 476 OFFCURVE",
"409 454 OFFCURVE",
"357 423 CURVE",
"357 321 LINE",
"446 312 OFFCURVE",
"497 269 OFFCURVE",
"497 208 CURVE SMOOTH",
"497 160 OFFCURVE",
"460 131 OFFCURVE",
"403 131 CURVE SMOOTH",
"379 131 OFFCURVE",
"361 133 OFFCURVE",
"337 138 CURVE",
"337 -18 LINE",
"358 -24 OFFCURVE",
"388 -29 OFFCURVE",
"444 -29 CURVE SMOOTH"
);
}
);
width = 746;
}
);
leftMetricsKey = H;
rightMetricsKey = B;
unicode = 1E9E;
},
{
glyphname = H;
layers = (
{
anchors = (
{
name = bottom;
position = "{397, 0}";
},
{
name = center;
position = "{397, 344}";
},
{
name = top;
position = "{397, 688}";
},
{
name = topleft;
position = "{20, 688}";
}
);
background = {
paths = (
{
closed = 1;
nodes = (
"65 688 LINE",
"290 688 LINE",
"290 414 LINE",
"503 414 LINE",
"503 688 LINE",
"729 688 LINE",
"729 0 LINE",
"503 0 LINE",
"503 270 LINE",
"290 270 LINE",
"290 0 LINE",
"65 0 LINE"
);
}
);
};
hints = (
{
horizontal = 1;
place = "{270, 145}";
},
{
horizontal = 1;
place = "{0, 21}";
target = up;
type = BottomGhost;
},
{
horizontal = 1;
place = "{688, -20}";
target = down;
type = TopGhost;
}
);
layerId = UUID0;
paths = (
{
closed = 1;
nodes = (
"290 0 LINE",
"290 270 LINE",
"503 270 LINE",
"503 0 LINE",
"729 0 LINE",
"729 688 LINE",
"503 688 LINE",
"503 414 LINE",
"290 414 LINE",
"290 688 LINE",
"65 688 LINE",
"65 0 LINE"
);
}
);
width = 794;
}
);
leftKerningGroup = B;
rightKerningGroup = H;
unicode = 0048;
},
{
glyphname = I;
layers = (
{
anchors = (
{
name = bottom;
position = "{181, 0}";
},
{
name = ogonek;
position = "{296, 0}";
},
{
name = top;
position = "{181, 688}";
},
{
name = topleft;
position = "{20, 688}";
}
);
background = {
paths = (
{
closed = 1;
nodes = (
"65 688 LINE",
"296 688 LINE",
"296 0 LINE",
"65 0 LINE"
);
}
);
};
hints = (
{
horizontal = 1;
place = "{0, 21}";
target = up;
type = BottomGhost;
},
{
horizontal = 1;
place = "{688, -20}";
target = down;
type = TopGhost;
}
);
layerId = UUID0;
paths = (
{
closed = 1;
nodes = (
"296 0 LINE",
"296 688 LINE",
"65 688 LINE",
"65 0 LINE"
);
}
);
width = 361;
}
);
leftKerningGroup = B;
rightKerningGroup = H;
unicode = 0049;
},
{
glyphname = J;
layers = (
{
anchors = (
{
name = bottom;
position = "{228, 0}";
},
{
name = top;
position = "{289, 688}";
}
);
background = {
paths = (
{
closed = 1;
nodes = (
"159 118 OFFCURVE",
"181 146 OFFCURVE",
"181 201 CURVE SMOOTH",
"181 688 LINE",
"396 688 LINE",
"396 201 LINE SMOOTH",
"396 47 OFFCURVE",
"310 -45 OFFCURVE",
"171 -45 CURVE SMOOTH",
"109 -45 OFFCURVE",
"52 -27 OFFCURVE",
"-1 8 CURVE",
"46 132 LINE",
"72 123 OFFCURVE",
"95 118 OFFCURVE",
"114 118 CURVE SMOOTH"
);
}
);
};
hints = (
{
horizontal = 1;
place = "{-45, 163}";
},
{
horizontal = 1;
place = "{688, -20}";
target = down;
type = TopGhost;
}
);
layerId = UUID0;
paths = (
{
closed = 1;
nodes = (
"310 -45 OFFCURVE",
"396 47 OFFCURVE",
"396 201 CURVE SMOOTH",
"396 688 LINE",
"181 688 LINE",
"181 201 LINE SMOOTH",
"181 146 OFFCURVE",
"159 118 OFFCURVE",
"114 118 CURVE SMOOTH",
"95 118 OFFCURVE",
"72 123 OFFCURVE",
"46 132 CURVE",
"-1 8 LINE",
"52 -27 OFFCURVE",
"109 -45 OFFCURVE",
"171 -45 CURVE SMOOTH"
);
}
);
width = 461;
}
);
leftKerningGroup = J;
rightKerningGroup = J;
unicode = 004A;
},
{
glyphname = K;
layers = (
{
anchors = (
{
name = bottom;
position = "{394, 0}";
},
{
name = top;
position = "{394, 688}";
}
);
background = {
paths = (
{
closed = 1;
nodes = (
"65 688 LINE",
"297 688 LINE",
"297 407 LINE",
"369 407 LINE",
"502 688 LINE",
"733 688 LINE",
"733 643 LINE",
"575 347 LINE",
"756 45 LINE",
"756 0 LINE",
"513 0 LINE",
"365 273 LINE",
"297 273 LINE",
"297 0 LINE",
"65 0 LINE"
);
}
);
};
hints = (
{
horizontal = 1;
place = "{273, 134}";
},
{
horizontal = 1;
place = "{0, 21}";
target = up;
type = BottomGhost;
},
{
horizontal = 1;
place = "{688, -20}";
target = down;
type = TopGhost;
}
);
layerId = UUID0;
paths = (
{
closed = 1;
nodes = (
"297 0 LINE",
"297 273 LINE",
"365 273 LINE",
"513 0 LINE",
"756 0 LINE",
"756 45 LINE",
"575 347 LINE",
"733 643 LINE",
"733 688 LINE",
"502 688 LINE",
"369 407 LINE",
"297 407 LINE",
"297 688 LINE",
"65 688 LINE",
"65 0 LINE"
);
}
);
width = 767;
}
);
leftKerningGroup = B;
rightKerningGroup = K;
unicode = 004B;
},
{
color = 3;
glyphname = L;
layers = (
{
anchors = (
{
name = bottom;
position = "{293, 0}";
},
{
name = center;
position = "{436, 418}";
},
{
name = top;
position = "{173, 688}";
},
{
name = topright;
position = "{341, 688}";
}
);
background = {
paths = (
{
closed = 1;
nodes = (
"65 688 LINE",
"281 688 LINE",
"281 147 LINE",
"520 147 LINE",
"520 0 LINE",
"65 0 LINE"
);
}
);
};
hints = (
{
horizontal = 1;
place = "{0, 147}";
},
{
horizontal = 1;
place = "{688, -20}";
target = down;
type = TopGhost;
}
);
layerId = UUID0;
paths = (
{
closed = 1;
nodes = (
"520 0 LINE",
"520 152 LINE",
"281 152 LINE",
"281 688 LINE",
"65 688 LINE",
"65 0 LINE"
);
}
);
width = 538;
}
);
leftKerningGroup = B;
rightKerningGroup = L;
unicode = 004C;
},
{
glyphname = M;
layers = (
{
anchors = (
{
name = bottom;
position = "{443, 0}";
},
{
name = top;
position = "{443, 688}";
}
);
background = {
paths = (
{
closed = 1;
nodes = (
"65 688 LINE",
"273 688 LINE",
"445 354 LINE",
"613 688 LINE",
"821 688 LINE",
"821 0 LINE",
"613 0 LINE",
"613 367 LINE",
"486 127 LINE",
"401 127 LINE",
"273 367 LINE",
"273 0 LINE",
"65 0 LINE"
);
}
);
};
hints = (
{
horizontal = 1;
place = "{0, 21}";
target = up;
type = BottomGhost;
},
{
horizontal = 1;
place = "{688, -20}";
target = down;
type = TopGhost;
}
);
layerId = UUID0;
paths = (
{
closed = 1;
nodes = (
"273 0 LINE",
"273 367 LINE",
"401 127 LINE",
"486 127 LINE",
"613 367 LINE",
"613 0 LINE",
"821 0 LINE",
"821 688 LINE",
"613 688 LINE",
"445 354 LINE",
"273 688 LINE",
"65 688 LINE",
"65 0 LINE"
);
}
);
width = 887;
}
);
leftKerningGroup = B;
rightKerningGroup = H;
unicode = 004D;
},
{
glyphname = N;
layers = (
{
anchors = (
{
name = bottom;
position = "{392, 0}";
},
{
name = top;
position = "{392, 688}";
}
);
background = {
paths = (
{
closed = 1;
nodes = (
"65 688 LINE",
"266 688 LINE",
"540 317 LINE",
"540 688 LINE",
"719 688 LINE",
"719 0 LINE",
"519 0 LINE",
"243 358 LINE",
"243 0 LINE",
"65 0 LINE"
);
}
);
};
hints = (
{
horizontal = 1;
place = "{0, 21}";
target = up;
type = BottomGhost;
},
{
horizontal = 1;
place = "{688, -20}";
target = down;
type = TopGhost;
}
);
layerId = UUID0;
paths = (
{
closed = 1;
nodes = (
"243 0 LINE",
"243 358 LINE",
"519 0 LINE",
"719 0 LINE",
"719 688 LINE",
"540 688 LINE",
"540 317 LINE",
"266 688 LINE",
"65 688 LINE",
"65 0 LINE"
);
}
);
width = 784;
}
);
leftKerningGroup = B;
rightKerningGroup = H;
unicode = 004E;
},
{
color = 3;
glyphname = O;
layers = (
{
anchors = (
{
name = bottom;
position = "{399, 0}";
},
{
name = center;
position = "{399, 344}";
},
{
name = ogonek;
position = "{546, 10}";
},
{
name = top;
position = "{399, 688}";
},
{
name = topleft;
position = "{20, 688}";
},
{
name = topright;
position = "{778, 688}";
}
);
background = {
paths = (
{
closed = 1;
nodes = (
"635 -16 OFFCURVE",
"767 155 OFFCURVE",
"767 343 CURVE SMOOTH",
"767 550 OFFCURVE",
"624 703 OFFCURVE",
"399 703 CURVE SMOOTH",
"285 703 OFFCURVE",
"193 667 OFFCURVE",
"126 594 CURVE SMOOTH",
"63 526 OFFCURVE",
"31 442 OFFCURVE",
"31 343 CURVE SMOOTH",
"31 158 OFFCURVE",
"158 -16 OFFCURVE",
"399 -16 CURVE SMOOTH"
);
},
{
closed = 1;
nodes = (
"311 166 OFFCURVE",
"255 243 OFFCURVE",
"255 344 CURVE SMOOTH",
"255 430 OFFCURVE",
"298 527 OFFCURVE",
"398 527 CURVE SMOOTH",
"484 527 OFFCURVE",
"543 449 OFFCURVE",
"543 344 CURVE SMOOTH",
"543 263 OFFCURVE",
"502 166 OFFCURVE",
"399 166 CURVE SMOOTH"
);
}
);
};
hints = (
{
horizontal = 1;
place = "{-16, 182}";
},
{
horizontal = 1;
place = "{527, 175}";
}
);
layerId = UUID0;
paths = (
{
closed = 1;
nodes = (
"617 -16 OFFCURVE",
"767 134 OFFCURVE",
"767 343 CURVE SMOOTH",
"767 557 OFFCURVE",
"617 703 OFFCURVE",
"399 703 CURVE SMOOTH",
"181 703 OFFCURVE",
"31 555 OFFCURVE",
"31 343 CURVE SMOOTH",
"31 133 OFFCURVE",
"181 -16 OFFCURVE",
"399 -16 CURVE SMOOTH"
);
},
{
closed = 1;
nodes = (
"314 166 OFFCURVE",
"255 237 OFFCURVE",
"255 344 CURVE SMOOTH",
"255 451 OFFCURVE",
"314 527 OFFCURVE",
"398 527 CURVE SMOOTH",
"483 527 OFFCURVE",
"543 451 OFFCURVE",
"543 344 CURVE SMOOTH",
"543 237 OFFCURVE",
"483 166 OFFCURVE",
"399 166 CURVE SMOOTH"
);
}
);
width = 798;
}
);
leftKerningGroup = C;
rightKerningGroup = O;
unicode = 004F;
},
{
color = 3;
glyphname = P;
layers = (
{
anchors = (
{
name = bottom;
position = "{325, 0}";
},
{
name = top;
position = "{325, 688}";
}
);
background = {
paths = (
{
closed = 1;
nodes = (
"65 688 LINE",
"313 688 LINE SMOOTH",
"519 688 OFFCURVE",
"636 604 OFFCURVE",
"636 460 CURVE SMOOTH",
"636 320 OFFCURVE",
"497 235 OFFCURVE",
"323 235 CURVE SMOOTH",
"281 235 LINE",
"281 0 LINE",
"65 0 LINE"
);
},
{
closed = 1;
nodes = (
"393 374 OFFCURVE",
"435 403 OFFCURVE",
"435 460 CURVE SMOOTH",
"435 516 OFFCURVE",
"386 544 OFFCURVE",
"324 544 CURVE SMOOTH",
"281 544 LINE",
"281 376 LINE",
"291 375 OFFCURVE",
"305 374 OFFCURVE",
"324 374 CURVE SMOOTH"
);
}
);
};
hints = (
{
horizontal = 1;
place = "{235, 139}";
},
{
horizontal = 1;
place = "{544, 144}";
},
{
horizontal = 1;
place = "{0, 21}";
target = up;
type = BottomGhost;
}
);
layerId = UUID0;
paths = (
{
closed = 1;
nodes = (
"281 0 LINE",
"281 235 LINE",
"323 235 LINE SMOOTH",
"497 235 OFFCURVE",
"636 320 OFFCURVE",
"636 460 CURVE SMOOTH",
"636 604 OFFCURVE",
"519 688 OFFCURVE",
"313 688 CURVE SMOOTH",
"65 688 LINE",
"65 0 LINE"
);
},
{
closed = 1;
nodes = (
"305 374 OFFCURVE",
"291 375 OFFCURVE",
"281 376 CURVE",
"281 544 LINE",
"324 544 LINE SMOOTH",
"396 544 OFFCURVE",
"435 516 OFFCURVE",
"435 460 CURVE SMOOTH",
"435 403 OFFCURVE",
"393 374 OFFCURVE",
"324 374 CURVE SMOOTH"
);
}
);
width = 649;
}
);
leftKerningGroup = B;
unicode = 0050;
},
{
color = 3;
glyphname = Q;
layers = (
{
anchors = (
{
name = bottom;
position = "{399, 0}";
},
{
name = top;
position = "{399, 688}";
}
);
background = {
paths = (
{
closed = 1;
nodes = (
"1667 -61 LINE",
"1667 -23 LINE",
"1539 61 LINE",
"1623 131 OFFCURVE",
"1667 235 OFFCURVE",
"1667 345 CURVE SMOOTH",
"1667 531 OFFCURVE",
"1538 703 OFFCURVE",
"1298 703 CURVE SMOOTH",
"1183 703 OFFCURVE",
"1091 665 OFFCURVE",
"1023 590 CURVE SMOOTH",
"961 522 OFFCURVE",
"930 440 OFFCURVE",
"930 345 CURVE SMOOTH",
"930 215 OFFCURVE",
"994 99 OFFCURVE",
"1098 35 CURVE SMOOTH",
"1152 2 OFFCURVE",
"1219 -16 OFFCURVE",
"1298 -16 CURVE SMOOTH",
"1306 -16 OFFCURVE",
"1314 -15 OFFCURVE",
"1320 -14 CURVE",
"1541 -159 LINE"
);
},
{
closed = 1;
nodes = (
"1212 165 OFFCURVE",
"1155 245 OFFCURVE",
"1155 345 CURVE SMOOTH",
"1155 425 OFFCURVE",
"1194 525 OFFCURVE",
"1298 525 CURVE SMOOTH",
"1387 525 OFFCURVE",
"1442 448 OFFCURVE",
"1442 345 CURVE SMOOTH",
"1442 263 OFFCURVE",
"1401 165 OFFCURVE",
"1298 165 CURVE SMOOTH"
);
},
{
closed = 1;
nodes = (
"617 -16 OFFCURVE",
"767 134 OFFCURVE",
"767 343 CURVE SMOOTH",
"767 557 OFFCURVE",
"617 703 OFFCURVE",
"399 703 CURVE SMOOTH",
"181 703 OFFCURVE",
"31 555 OFFCURVE",
"31 343 CURVE SMOOTH",
"31 133 OFFCURVE",
"181 -16 OFFCURVE",
"399 -16 CURVE SMOOTH"
);
},
{
closed = 1;
nodes = (
"314 166 OFFCURVE",
"255 237 OFFCURVE",
"255 344 CURVE SMOOTH",
"255 451 OFFCURVE",
"314 527 OFFCURVE",
"398 527 CURVE SMOOTH",
"483 527 OFFCURVE",
"543 451 OFFCURVE",
"543 344 CURVE SMOOTH",
"543 237 OFFCURVE",
"483 166 OFFCURVE",
"399 166 CURVE SMOOTH"
);
}
);
};
hints = (
{
horizontal = 1;
place = "{-16, 181}";
},
{
horizontal = 1;
place = "{525, 178}";
},
{
horizontal = 1;
place = "{-159, 21}";
target = up;
type = BottomGhost;
}
);
layerId = UUID0;
paths = (
{
closed = 1;
nodes = (
"767 -61 LINE",
"767 -23 LINE",
"639 61 LINE",
"723 131 OFFCURVE",
"767 233 OFFCURVE",
"767 343 CURVE SMOOTH",
"767 557 OFFCURVE",
"617 703 OFFCURVE",
"399 703 CURVE SMOOTH",
"181 703 OFFCURVE",
"31 555 OFFCURVE",
"31 343 CURVE SMOOTH",
"31 133 OFFCURVE",
"181 -16 OFFCURVE",
"398 -16 CURVE SMOOTH",
"404 -16 OFFCURVE",
"414 -15 OFFCURVE",
"420 -14 CURVE",
"641 -159 LINE"
);
},
{
closed = 1;
nodes = (
"314 166 OFFCURVE",
"255 237 OFFCURVE",
"255 344 CURVE SMOOTH",
"255 451 OFFCURVE",
"314 527 OFFCURVE",
"398 527 CURVE SMOOTH",
"483 527 OFFCURVE",
"543 451 OFFCURVE",
"543 344 CURVE SMOOTH",
"543 237 OFFCURVE",
"483 166 OFFCURVE",
"399 166 CURVE SMOOTH"
);
}
);
width = 798;
}
);
leftKerningGroup = C;
rightKerningGroup = O;
unicode = 0051;
},
{
color = 3;
glyphname = R;
layers = (
{
anchors = (
{
name = bottom;
position = "{349, 0}";
},
{
name = top;
position = "{349, 688}";
}
);
background = {
paths = (
{
closed = 1;
nodes = (
"678 2 LINE",
"636 -10 OFFCURVE",
"605 -16 OFFCURVE",
"586 -16 CURVE SMOOTH",
"465 -16 OFFCURVE",
"389 40 OFFCURVE",
"358 149 CURVE",
"331 261 LINE",
"284 261 LINE",
"284 0 LINE",
"65 0 LINE",
"65 688 LINE",
"371 688 LINE SMOOTH",
"530 688 OFFCURVE",
"657 615 OFFCURVE",
"657 485 CURVE SMOOTH",
"657 390 OFFCURVE",
"608 334 OFFCURVE",
"524 298 CURVE",
"529 274 LINE SMOOTH",
"531 263 OFFCURVE",
"533 255 OFFCURVE",
"534 250 CURVE SMOOTH",
"540 229 LINE",
"555 180 OFFCURVE",
"577 161 OFFCURVE",
"644 161 CURVE SMOOTH",
"649 161 OFFCURVE",
"660 163 OFFCURVE",
"678 165 CURVE"
);
},
{
closed = 1;
nodes = (
"457 527 OFFCURVE",
"411 539 OFFCURVE",
"353 539 CURVE SMOOTH",
"284 539 LINE",
"284 401 LINE",
"322 401 LINE",
"354 403 LINE",
"405 407 OFFCURVE",
"457 419 OFFCURVE",
"457 476 CURVE SMOOTH"
);
}
);
};
hints = (
{
horizontal = 1;
place = "{-16, 177}";
},
{
horizontal = 1;
place = "{539, 148}";
},
{
horizontal = 1;
place = "{0, 21}";
target = up;
type = BottomGhost;
}
);
layerId = UUID0;
paths = (
{
closed = 1;
nodes = (
"625 -16 OFFCURVE",
"652 -8 OFFCURVE",
"678 2 CURVE",
"678 165 LINE",
"663 163 OFFCURVE",
"649 161 OFFCURVE",
"634 161 CURVE SMOOTH",
"581 161 OFFCURVE",
"556 177 OFFCURVE",
"540 229 CURVE SMOOTH",
"533 252 OFFCURVE",
"529 269 OFFCURVE",
"524 298 CURVE",
"615 337 OFFCURVE",
"657 396 OFFCURVE",
"657 485 CURVE SMOOTH",
"657 606 OFFCURVE",
"542 688 OFFCURVE",
"368 688 CURVE SMOOTH",
"65 688 LINE",
"65 0 LINE",
"284 0 LINE",
"284 261 LINE",
"331 261 LINE",
"356 158 LINE SMOOTH",
"384 42 OFFCURVE",
"461 -16 OFFCURVE",
"586 -16 CURVE SMOOTH"
);
},
{
closed = 1;
nodes = (
"284 539 LINE",
"353 539 LINE SMOOTH",
"425 539 OFFCURVE",
"457 519 OFFCURVE",
"457 474 CURVE SMOOTH",
"457 421 OFFCURVE",
"421 401 OFFCURVE",
"322 401 CURVE SMOOTH",
"284 401 LINE"
);
}
);
width = 698;
}
);
leftKerningGroup = B;
rightKerningGroup = R;
unicode = 0052;
},
{
glyphname = S;
layers = (
{
anchors = (
{
name = bottom;
position = "{296, 0}";
},
{
name = top;
position = "{296, 688}";
}
);
background = {
paths = (
{
closed = 1;
nodes = (
"563 61 OFFCURVE",
"460 -16 OFFCURVE",
"288 -16 CURVE SMOOTH",
"193 -16 OFFCURVE",
"109 1 OFFCURVE",
"37 36 CURVE",
"57 85 OFFCURVE",
"73 131 OFFCURVE",
"84 172 CURVE SMOOTH",
"86 179 OFFCURVE",
"88 185 OFFCURVE",
"90 189 CURVE",
"163 171 LINE",
"198 164 OFFCURVE",
"247 152 OFFCURVE",
"274 152 CURVE SMOOTH",
"319 152 OFFCURVE",
"359 157 OFFCURVE",
"359 194 CURVE SMOOTH",
"359 240 OFFCURVE",
"263 254 OFFCURVE",
"196 277 CURVE",
"104 306 OFFCURVE",
"34 376 OFFCURVE",
"34 480 CURVE SMOOTH",
"34 629 OFFCURVE",
"124 703 OFFCURVE",
"302 703 CURVE SMOOTH",
"386 703 OFFCURVE",
"465 686 OFFCURVE",
"538 650 CURVE",
"484 501 LINE",
"358 533 OFFCURVE",
"348 536 OFFCURVE",
"318 536 CURVE SMOOTH",
"302 536 LINE SMOOTH",
"294 536 OFFCURVE",
"290 537 OFFCURVE",
"286 537 CURVE SMOOTH",
"256 537 OFFCURVE",
"240 530 OFFCURVE",
"240 503 CURVE SMOOTH",
"240 482 OFFCURVE",
"258 467 OFFCURVE",
"294 456 CURVE",
"470 415 OFFCURVE",
"563 336 OFFCURVE",
"563 225 CURVE SMOOTH"
);
}
);
};
hints = (
{
horizontal = 1;
place = "{-16, 168}";
},
{
horizontal = 1;
place = "{537, 167}";
}
);
layerId = UUID0;
paths = (
{
closed = 1;
nodes = (
"468 -16 OFFCURVE",
"563 68 OFFCURVE",
"563 214 CURVE SMOOTH",
"563 319 OFFCURVE",
"491 399 OFFCURVE",
"350 437 CURVE SMOOTH",
"256 463 OFFCURVE",
"240 477 OFFCURVE",
"240 499 CURVE SMOOTH",
"240 521 OFFCURVE",
"259 535 OFFCURVE",
"306 535 CURVE SMOOTH",
"358 535 OFFCURVE",
"409 525 OFFCURVE",
"484 499 CURVE",
"538 650 LINE",
"473 685 OFFCURVE",
"385 703 OFFCURVE",
"302 703 CURVE SMOOTH",
"143 703 OFFCURVE",
"34 631 OFFCURVE",
"34 480 CURVE SMOOTH",
"34 386 OFFCURVE",
"96 308 OFFCURVE",
"205 276 CURVE SMOOTH",
"338 237 OFFCURVE",
"359 222 OFFCURVE",
"359 196 CURVE SMOOTH",
"359 168 OFFCURVE",
"334 154 OFFCURVE",
"274 154 CURVE SMOOTH",
"226 154 OFFCURVE",
"165 164 OFFCURVE",
"90 191 CURVE",
"40 36 LINE",
"105 1 OFFCURVE",
"189 -16 OFFCURVE",
"278 -16 CURVE SMOOTH"
);
}
);
width = 592;
}
);
leftKerningGroup = S;
rightKerningGroup = S;
unicode = 0053;
},
{
glyphname = T;
layers = (
{
anchors = (
{
name = bottom;
position = "{289, 0}";
},
{
name = center;
position = "{289, 344}";
},
{
name = top;
position = "{289, 688}";
}
);
background = {
paths = (
{
closed = 1;
nodes = (
"172 542 LINE",
"29 542 LINE",
"29 688 LINE",
"548 688 LINE",
"548 542 LINE",
"405 542 LINE",
"405 0 LINE",
"172 0 LINE"
);
}
);
};
hints = (
{
horizontal = 1;
place = "{542, 146}";
},
{
horizontal = 1;
place = "{0, 21}";
target = up;
type = BottomGhost;
}
);
layerId = UUID0;
paths = (
{
closed = 1;
nodes = (
"405 0 LINE",
"405 536 LINE",
"548 536 LINE",
"548 688 LINE",
"29 688 LINE",
"29 536 LINE",
"172 536 LINE",
"172 0 LINE"
);
}
);
width = 577;
}
);
leftKerningGroup = T;
rightKerningGroup = T;
unicode = 0054;
},
{
glyphname = U;
layers = (
{
anchors = (
{
name = bottom;
position = "{399, 0}";
},
{
name = ogonek;
position = "{547, 10}";
},
{
name = top;
position = "{399, 688}";
},
{
name = topright;
position = "{778, 688}";
}
);
background = {
paths = (
{
closed = 1;
nodes = (
"562 -16 OFFCURVE",
"739 74 OFFCURVE",
"739 285 CURVE SMOOTH",
"739 688 LINE",
"513 688 LINE",
"513 285 LINE SMOOTH",
"513 207 OFFCURVE",
"474 165 OFFCURVE",
"399 165 CURVE SMOOTH",
"323 165 OFFCURVE",
"285 205 OFFCURVE",
"285 285 CURVE SMOOTH",
"285 688 LINE",
"59 688 LINE",
"59 285 LINE SMOOTH",
"59 189 OFFCURVE",
"94 115 OFFCURVE",
"163 61 CURVE SMOOTH",
"228 10 OFFCURVE",
"306 -16 OFFCURVE",
"399 -16 CURVE SMOOTH"
);
}
);
};
hints = (
{
horizontal = 1;
place = "{-16, 181}";
},
{
horizontal = 1;
place = "{688, -20}";
target = down;
type = TopGhost;
}
);
layerId = UUID0;
paths = (
{
closed = 1;
nodes = (
"600 -16 OFFCURVE",
"739 107 OFFCURVE",
"739 285 CURVE SMOOTH",
"739 688 LINE",
"513 688 LINE",
"513 285 LINE SMOOTH",
"513 207 OFFCURVE",
"474 165 OFFCURVE",
"399 165 CURVE SMOOTH",
"325 165 OFFCURVE",
"285 205 OFFCURVE",
"285 285 CURVE SMOOTH",
"285 688 LINE",
"59 688 LINE",
"59 285 LINE SMOOTH",
"59 107 OFFCURVE",
"198 -16 OFFCURVE",
"399 -16 CURVE SMOOTH"
);
}
);
width = 798;
}
);
leftKerningGroup = U;
rightKerningGroup = U;
unicode = 0055;
},
{
glyphname = V;
layers = (
{
anchors = (
{
name = bottom;
position = "{334, 0}";
},
{
name = top;
position = "{334, 688}";
}
);
background = {
paths = (
{
closed = 1;
nodes = (
"2 688 LINE",
"228 688 LINE",
"334 259 LINE",
"440 688 LINE",
"676 688 LINE",
"461 0 LINE",
"206 0 LINE"
);
}
);
};
hints = (
{
horizontal = 1;
place = "{0, 21}";
target = up;
type = BottomGhost;
},
{
horizontal = 1;
place = "{688, -20}";
target = down;
type = TopGhost;
}
);
layerId = UUID0;
paths = (
{
closed = 1;
nodes = (
"461 0 LINE",
"676 688 LINE",
"440 688 LINE",
"334 259 LINE",
"228 688 LINE",
"2 688 LINE",
"206 0 LINE"
);
}
);
width = 672;
}
);
leftKerningGroup = V;
rightKerningGroup = V;
unicode = 0056;
},
{
glyphname = W;
layers = (
{
anchors = (
{
name = bottom;
position = "{495, 0}";
},
{
name = top;
position = "{495, 688}";
}
);
background = {
paths = (
{
closed = 1;
nodes = (
"21 688 LINE",
"246 688 LINE",
"311 249 LINE",
"378 571 LINE",
"611 571 LINE",
"679 249 LINE",
"744 688 LINE",
"969 688 LINE",
"813 0 LINE",
"580 0 LINE",
"495 370 LINE",
"410 0 LINE",
"177 0 LINE"
);
}
);
};
hints = (
{
horizontal = 1;
place = "{0, 21}";
target = up;
type = BottomGhost;
},
{
horizontal = 1;
place = "{688, -20}";
target = down;
type = TopGhost;
}
);
layerId = UUID0;
paths = (
{
closed = 1;
nodes = (
"410 0 LINE",
"495 370 LINE",
"580 0 LINE",
"813 0 LINE",
"969 688 LINE",
"744 688 LINE",
"679 249 LINE",
"611 571 LINE",
"378 571 LINE",
"311 249 LINE",
"246 688 LINE",
"21 688 LINE",
"177 0 LINE"
);
}
);
width = 990;
}
);
leftKerningGroup = W;
rightKerningGroup = W;
unicode = 0057;
},
{
glyphname = X;
layers = (
{
anchors = (
{
name = bottom;
position = "{317, 0}";
},
{
name = top;
position = "{317, 688}";
}
);
background = {
paths = (
{
closed = 1;
nodes = (
"191 342 LINE",
"6 688 LINE",
"233 688 LINE",
"314 514 LINE",
"395 688 LINE",
"626 688 LINE",
"440 342 LINE",
"632 0 LINE",
"401 0 LINE",
"314 171 LINE",
"227 0 LINE",
"0 0 LINE"
);
}
);
};
hints = (
{
horizontal = 1;
place = "{0, 21}";
target = up;
type = BottomGhost;
},
{
horizontal = 1;
place = "{688, -20}";
target = down;
type = TopGhost;
}
);
layerId = UUID0;
paths = (
{
closed = 1;
nodes = (
"227 0 LINE",
"314 171 LINE",
"401 0 LINE",
"632 0 LINE",
"440 342 LINE",
"626 688 LINE",
"395 688 LINE",
"314 514 LINE",
"233 688 LINE",
"6 688 LINE",
"191 342 LINE",
"0 0 LINE"
);
}
);
width = 633;
}
);
unicode = 0058;
},
{
glyphname = Y;
layers = (
{
anchors = (
{
name = bottom;
position = "{306, 0}";
},
{
name = top;
position = "{306, 688}";
},
{
name = topleft;
position = "{20, 688}";
}
);
background = {
paths = (
{
closed = 1;
nodes = (
"195 191 LINE",
"-3 688 LINE",
"206 688 LINE",
"303 379 LINE",
"398 688 LINE",
"618 688 LINE",
"410 191 LINE",
"410 0 LINE",
"195 0 LINE"
);
}
);
};
hints = (
{
horizontal = 1;
place = "{0, 21}";
target = up;
type = BottomGhost;
},
{
horizontal = 1;
place = "{688, -20}";
target = down;
type = TopGhost;
}
);
layerId = UUID0;
paths = (
{
closed = 1;
nodes = (
"410 0 LINE",
"410 191 LINE",
"618 688 LINE",
"398 688 LINE",
"303 379 LINE",
"206 688 LINE",
"-3 688 LINE",
"195 191 LINE",
"195 0 LINE"
);
}
);
width = 612;
}
);
leftKerningGroup = Y;
rightKerningGroup = Y;
unicode = 0059;
},
{
glyphname = Z;
layers = (
{
anchors = (
{
name = bottom;
position = "{271, 0}";
},
{
name = top;
position = "{270, 688}";
}
);
background = {
paths = (
{
closed = 1;
nodes = (
"505 0 LINE",
"505 145 LINE",
"265 145 LINE",
"495 542 LINE",
"495 688 LINE",
"45 688 LINE",
"45 542 LINE",
"271 542 LINE",
"36 145 LINE",
"36 0 LINE"
);
}
);
};
hints = (
{
horizontal = 1;
place = "{0, 145}";
},
{
horizontal = 1;
place = "{542, 146}";
}
);
layerId = UUID0;
paths = (
{
closed = 1;
nodes = (
"505 0 LINE",
"505 146 LINE",
"265 146 LINE",
"495 542 LINE",
"495 688 LINE",
"45 688 LINE",
"45 542 LINE",
"271 542 LINE",
"36 145 LINE",
"36 0 LINE"
);
}
);
width = 541;
}
);
leftKerningGroup = Z;
rightKerningGroup = Z;
unicode = 005A;
},
{
glyphname = a;
layers = (
{
anchors = (
{
name = bottom;
position = "{348, 0}";
},
{
name = ogonek;
position = "{645, 0}";
},
{
name = top;
position = "{348, 501}";
}
);
background = {
anchors = (
{
name = bottom;
position = "{348, 0}";
},
{
name = ogonek;
position = "{645, 0}";
},
{
name = top;
position = "{348, 501}";
}
);
paths = (
{
closed = 1;
nodes = (
"435 93 LINE",
"403 28 OFFCURVE",
"351 -8 OFFCURVE",
"271 -8 CURVE SMOOTH",
"140 -8 OFFCURVE",
"25 104 OFFCURVE",
"25 253 CURVE SMOOTH",
"25 402 OFFCURVE",
"142 508 OFFCURVE",
"271 508 CURVE SMOOTH",
"336 508 OFFCURVE",
"403 474 OFFCURVE",
"435 392 CURVE",
"435 508 LINE",
"645 508 LINE",
"645 0 LINE",
"435 0 LINE"
);
},
{
closed = 1;
nodes = (
"435 254 LINE",
"432 307 OFFCURVE",
"387 350 OFFCURVE",
"336 350 CURVE SMOOTH",
"279 350 OFFCURVE",
"235 304 OFFCURVE",
"235 250 CURVE SMOOTH",
"235 193 OFFCURVE",
"283 150 OFFCURVE",
"336 150 CURVE SMOOTH",
"391 150 OFFCURVE",
"432 195 OFFCURVE",
"435 246 CURVE"
);
}
);
};
hints = (
{
horizontal = 1;
place = "{-8, 158}";
},
{
horizontal = 1;
place = "{350, 159}";
},
{
horizontal = 1;
place = "{0, 21}";
target = up;
type = BottomGhost;
}
);
layerId = UUID0;
paths = (
{
closed = 1;
nodes = (
"351 -8 OFFCURVE",
"403 28 OFFCURVE",
"435 93 CURVE",
"435 0 LINE",
"645 0 LINE",
"645 508 LINE",
"435 508 LINE",
"435 392 LINE",
"403 474 OFFCURVE",
"336 508 OFFCURVE",
"271 508 CURVE SMOOTH",
"142 508 OFFCURVE",
"25 402 OFFCURVE",
"25 253 CURVE SMOOTH",
"25 104 OFFCURVE",
"140 -8 OFFCURVE",
"271 -8 CURVE SMOOTH"
);
},
{
closed = 1;
nodes = (
"283 150 OFFCURVE",
"235 193 OFFCURVE",
"235 250 CURVE SMOOTH",
"235 304 OFFCURVE",
"279 350 OFFCURVE",
"336 350 CURVE SMOOTH",
"387 350 OFFCURVE",
"432 307 OFFCURVE",
"435 254 CURVE",
"435 246 LINE",
"432 195 OFFCURVE",
"391 150 OFFCURVE",
"336 150 CURVE SMOOTH"
);
}
);
width = 696;
}
);
leftKerningGroup = a;
rightKerningGroup = a;
unicode = 0061;
},
{
color = 3;
glyphname = ae;
layers = (
{
anchors = (
{
name = bottom;
position = "{533, 0}";
},
{
name = top;
position = "{533, 501}";
}
);
background = {
paths = (
{
closed = 1;
nodes = (
"1150 -16 OFFCURVE",
"1203 28 OFFCURVE",
"1235 93 CURVE",
"1235 -16 LINE",
"1430 0 LINE",
"1430 44 LINE",
"1474 5 OFFCURVE",
"1531 -16 OFFCURVE",
"1580 -16 CURVE SMOOTH",
"1665 -16 OFFCURVE",
"1743 -2 OFFCURVE",
"1813 25 CURVE",
"1789 163 LINE",
"1732 140 OFFCURVE",
"1678 128 OFFCURVE",
"1627 128 CURVE SMOOTH",
"1562 128 OFFCURVE",
"1521 151 OFFCURVE",
"1503 198 CURVE",
"1832 237 LINE",
"1833 245 OFFCURVE",
"1834 253 OFFCURVE",
"1834 263 CURVE SMOOTH",
"1834 412 OFFCURVE",
"1738 516 OFFCURVE",
"1588 516 CURVE SMOOTH",
"1525 516 OFFCURVE",
"1472 496 OFFCURVE",
"1430 457 CURVE",
"1430 501 LINE",
"1235 516 LINE",
"1235 392 LINE",
"1203 474 OFFCURVE",
"1136 516 OFFCURVE",
"1071 516 CURVE SMOOTH",
"942 516 OFFCURVE",
"825 402 OFFCURVE",
"825 253 CURVE SMOOTH",
"825 104 OFFCURVE",
"939 -16 OFFCURVE",
"1070 -16 CURVE SMOOTH"
);
},
{
closed = 1;
nodes = (
"1083 150 OFFCURVE",
"1035 193 OFFCURVE",
"1035 250 CURVE SMOOTH",
"1035 304 OFFCURVE",
"1079 350 OFFCURVE",
"1136 350 CURVE SMOOTH",
"1187 350 OFFCURVE",
"1232 307 OFFCURVE",
"1235 254 CURVE",
"1235 246 LINE",
"1232 195 OFFCURVE",
"1191 150 OFFCURVE",
"1136 150 CURVE SMOOTH"
);
},
{
closed = 1;
nodes = (
"1496 349 OFFCURVE",
"1530 387 OFFCURVE",
"1588 387 CURVE SMOOTH",
"1633 387 OFFCURVE",
"1665 364 OFFCURVE",
"1678 324 CURVE",
"1494 290 LINE"
);
},
{
closed = 1;
nodes = (
"351 -8 OFFCURVE",
"403 28 OFFCURVE",
"435 93 CURVE",
"435 0 LINE",
"645 0 LINE",
"645 508 LINE",
"435 508 LINE",
"435 392 LINE",
"403 474 OFFCURVE",
"336 508 OFFCURVE",
"271 508 CURVE SMOOTH",
"142 508 OFFCURVE",
"25 402 OFFCURVE",
"25 253 CURVE SMOOTH",
"25 104 OFFCURVE",
"140 -8 OFFCURVE",
"271 -8 CURVE SMOOTH"
);
},
{
closed = 1;
nodes = (
"283 150 OFFCURVE",
"235 193 OFFCURVE",
"235 250 CURVE SMOOTH",
"235 304 OFFCURVE",
"279 350 OFFCURVE",
"336 350 CURVE SMOOTH",
"387 350 OFFCURVE",
"432 307 OFFCURVE",
"435 254 CURVE",
"435 246 LINE",
"432 195 OFFCURVE",
"391 150 OFFCURVE",
"336 150 CURVE SMOOTH"
);
}
);
};
hints = (
{
horizontal = 1;
place = "{-16, 144}";
},
{
horizontal = 1;
place = "{350, 166}";
},
{
horizontal = 1;
place = "{387, 129}";
},
{
horizontal = 1;
place = "{-16, 166}";
}
);
layerId = UUID0;
paths = (
{
closed = 1;
nodes = (
"351 -8 OFFCURVE",
"403 28 OFFCURVE",
"435 93 CURVE",
"435 -16 LINE",
"630 0 LINE",
"630 44 LINE",
"674 5 OFFCURVE",
"731 -16 OFFCURVE",
"820 -16 CURVE SMOOTH",
"885 -16 OFFCURVE",
"953 -2 OFFCURVE",
"1013 25 CURVE",
"989 163 LINE",
"932 140 OFFCURVE",
"878 128 OFFCURVE",
"827 128 CURVE SMOOTH",
"762 128 OFFCURVE",
"721 151 OFFCURVE",
"703 198 CURVE",
"1032 237 LINE",
"1033 245 OFFCURVE",
"1034 253 OFFCURVE",
"1034 263 CURVE SMOOTH",
"1034 412 OFFCURVE",
"938 516 OFFCURVE",
"788 516 CURVE SMOOTH",
"725 516 OFFCURVE",
"672 496 OFFCURVE",
"630 457 CURVE",
"630 501 LINE",
"435 516 LINE",
"435 392 LINE",
"403 474 OFFCURVE",
"336 508 OFFCURVE",
"271 508 CURVE SMOOTH",
"142 508 OFFCURVE",
"25 402 OFFCURVE",
"25 253 CURVE SMOOTH",
"25 104 OFFCURVE",
"140 -8 OFFCURVE",
"271 -8 CURVE SMOOTH"
);
},
{
closed = 1;
nodes = (
"283 150 OFFCURVE",
"235 193 OFFCURVE",
"235 250 CURVE SMOOTH",
"235 304 OFFCURVE",
"279 350 OFFCURVE",
"336 350 CURVE SMOOTH",
"387 350 OFFCURVE",
"432 307 OFFCURVE",
"435 254 CURVE",
"435 246 LINE",
"432 195 OFFCURVE",
"391 150 OFFCURVE",
"336 150 CURVE SMOOTH"
);
},
{
closed = 1;
nodes = (
"696 349 OFFCURVE",
"730 387 OFFCURVE",
"788 387 CURVE SMOOTH",
"833 387 OFFCURVE",
"865 364 OFFCURVE",
"878 324 CURVE",
"694 290 LINE"
);
}
);
width = 1057;
}
);
leftKerningGroup = a;
leftMetricsKey = a;
rightKerningGroup = e;
rightMetricsKey = e;
unicode = 00E6;
},
{
color = 3;
glyphname = b;
layers = (
{
anchors = (
{
name = bottom;
position = "{349, 0}";
},
{
name = top;
position = "{349, 501}";
}
);
background = {
anchors = (
{
name = bottom;
position = "{349, 0}";
},
{
name = top;
position = "{349, 501}";
}
);
paths = (
{
closed = 1;
nodes = (
"351 -8 OFFCURVE",
"296 26 OFFCURVE",
"264 93 CURVE",
"264 0 LINE",
"52 0 LINE",
"52 659 LINE",
"264 690 LINE",
"264 407 LINE",
"298 479 OFFCURVE",
"352 508 OFFCURVE",
"426 508 CURVE SMOOTH",
"562 508 OFFCURVE",
"671 398 OFFCURVE",
"671 250 CURVE SMOOTH",
"671 102 OFFCURVE",
"556 -8 OFFCURVE",
"427 -8 CURVE SMOOTH"
);
},
{
closed = 1;
nodes = (
"264 250 LINE SMOOTH",
"264 193 OFFCURVE",
"310 150 OFFCURVE",
"363 150 CURVE SMOOTH",
"419 150 OFFCURVE",
"462 198 OFFCURVE",
"462 250 CURVE SMOOTH",
"462 307 OFFCURVE",
"416 350 OFFCURVE",
"363 350 CURVE SMOOTH",
"308 350 OFFCURVE",
"266 306 OFFCURVE",
"264 254 CURVE SMOOTH"
);
}
);
};
hints = (
{
horizontal = 1;
place = "{0, 150}";
},
{
horizontal = 1;
place = "{350, 159}";
},
{
horizontal = 1;
place = "{-8, 21}";
target = up;
type = BottomGhost;
},
{
horizontal = 1;
place = "{690, -20}";
target = down;
type = TopGhost;
}
);
layerId = UUID0;
paths = (
{
closed = 1;
nodes = (
"556 -8 OFFCURVE",
"671 102 OFFCURVE",
"671 250 CURVE SMOOTH",
"671 398 OFFCURVE",
"562 508 OFFCURVE",
"426 508 CURVE SMOOTH",
"352 508 OFFCURVE",
"298 479 OFFCURVE",
"264 407 CURVE",
"264 690 LINE",
"52 659 LINE",
"52 0 LINE",
"264 0 LINE",
"264 93 LINE",
"296 26 OFFCURVE",
"351 -8 OFFCURVE",
"427 -8 CURVE SMOOTH"
);
},
{
closed = 1;
nodes = (
"310 150 OFFCURVE",
"264 193 OFFCURVE",
"264 250 CURVE SMOOTH",
"264 254 LINE SMOOTH",
"264 306 OFFCURVE",
"308 350 OFFCURVE",
"363 350 CURVE SMOOTH",
"416 350 OFFCURVE",
"462 307 OFFCURVE",
"462 250 CURVE SMOOTH",
"462 198 OFFCURVE",
"419 150 OFFCURVE",
"363 150 CURVE SMOOTH"
);
}
);
width = 697;
}
);
rightKerningGroup = b;
unicode = 0062;
},
{
color = 3;
glyphname = c;
layers = (
{
anchors = (
{
name = bottom;
position = "{266, 0}";
},
{
name = top;
position = "{266, 501}";
}
);
background = {
anchors = (
{
name = bottom;
position = "{266, 0}";
},
{
name = top;
position = "{266, 501}";
}
);
paths = (
{
closed = 1;
nodes = (
"431 335 LINE",
"396 346 OFFCURVE",
"363 352 OFFCURVE",
"333 352 CURVE SMOOTH",
"272 352 OFFCURVE",
"233 311 OFFCURVE",
"233 250 CURVE SMOOTH",
"233 189 OFFCURVE",
"272 147 OFFCURVE",
"335 147 CURVE SMOOTH",
"365 147 OFFCURVE",
"396 153 OFFCURVE",
"429 164 CURVE",
"448 24 LINE",
"398 -1 OFFCURVE",
"353 -8 OFFCURVE",
"297 -8 CURVE SMOOTH",
"139 -8 OFFCURVE",
"25 95 OFFCURVE",
"25 250 CURVE SMOOTH",
"25 405 OFFCURVE",
"152 508 OFFCURVE",
"297 508 CURVE SMOOTH",
"361 508 OFFCURVE",
"396 500 OFFCURVE",
"450 468 CURVE"
);
}
);
};
hints = (
{
horizontal = 1;
place = "{-8, 155}";
},
{
horizontal = 1;
place = "{352, 157}";
}
);
layerId = UUID0;
paths = (
{
closed = 1;
nodes = (
"359 -8 OFFCURVE",
"402 1 OFFCURVE",
"448 24 CURVE",
"429 164 LINE",
"394 153 OFFCURVE",
"363 147 OFFCURVE",
"335 147 CURVE SMOOTH",
"273 147 OFFCURVE",
"233 188 OFFCURVE",
"233 250 CURVE SMOOTH",
"233 312 OFFCURVE",
"273 352 OFFCURVE",
"337 352 CURVE SMOOTH",
"365 352 OFFCURVE",
"394 346 OFFCURVE",
"431 335 CURVE",
"450 468 LINE",
"412 495 OFFCURVE",
"363 508 OFFCURVE",
"297 508 CURVE SMOOTH",
"143 508 OFFCURVE",
"25 396 OFFCURVE",
"25 250 CURVE SMOOTH",
"25 98 OFFCURVE",
"136 -8 OFFCURVE",
"297 -8 CURVE SMOOTH"
);
}
);
width = 472;
}
);
leftKerningGroup = c;
rightKerningGroup = c;
unicode = 0063;
},
{
color = 3;
glyphname = d;
layers = (
{
anchors = (
{
name = bottom;
position = "{349, 0}";
},
{
name = center;
position = "{349, 251}";
},
{
name = top;
position = "{349, 501}";
},
{
name = topright;
position = "{705, 688}";
}
);
background = {
anchors = (
{
name = bottom;
position = "{349, 0}";
},
{
name = center;
position = "{349, 251}";
},
{
name = top;
position = "{349, 501}";
},
{
name = topright;
position = "{705, 688}";
}
);
paths = (
{
closed = 1;
nodes = (
"346 508 OFFCURVE",
"400 479 OFFCURVE",
"434 407 CURVE",
"434 659 LINE",
"645 690 LINE",
"645 0 LINE",
"434 0 LINE",
"434 93 LINE",
"403 26 OFFCURVE",
"350 -8 OFFCURVE",
"269 -8 CURVE SMOOTH",
"130 -8 OFFCURVE",
"26 115 OFFCURVE",
"26 250 CURVE SMOOTH",
"26 396 OFFCURVE",
"140 508 OFFCURVE",
"270 508 CURVE SMOOTH"
);
},
{
closed = 1;
nodes = (
"434 254 LINE SMOOTH",
"432 307 OFFCURVE",
"387 350 OFFCURVE",
"335 350 CURVE SMOOTH",
"278 350 OFFCURVE",
"236 303 OFFCURVE",
"236 250 CURVE SMOOTH",
"236 193 OFFCURVE",
"282 150 OFFCURVE",
"335 150 CURVE SMOOTH",
"392 150 OFFCURVE",
"434 198 OFFCURVE",
"434 250 CURVE SMOOTH"
);
}
);
};
hints = (
{
horizontal = 1;
place = "{-8, 158}";
},
{
horizontal = 1;
place = "{350, 159}";
},
{
horizontal = 1;
place = "{0, 21}";
target = up;
type = BottomGhost;
},
{
horizontal = 1;
place = "{690, -20}";
target = down;
type = TopGhost;
}
);
layerId = UUID0;
paths = (
{
closed = 1;
nodes = (
"350 -8 OFFCURVE",
"403 26 OFFCURVE",
"434 93 CURVE",
"434 0 LINE",
"645 0 LINE",
"645 690 LINE",
"434 659 LINE",
"434 407 LINE",
"400 479 OFFCURVE",
"346 508 OFFCURVE",
"270 508 CURVE SMOOTH",
"140 508 OFFCURVE",
"26 396 OFFCURVE",
"26 250 CURVE SMOOTH",
"26 115 OFFCURVE",
"130 -8 OFFCURVE",
"269 -8 CURVE SMOOTH"
);
},
{
closed = 1;
nodes = (
"282 150 OFFCURVE",
"236 193 OFFCURVE",
"236 250 CURVE SMOOTH",
"236 303 OFFCURVE",
"278 350 OFFCURVE",
"335 350 CURVE SMOOTH",
"387 350 OFFCURVE",
"434 307 OFFCURVE",
"434 254 CURVE SMOOTH",
"434 250 LINE SMOOTH",
"434 198 OFFCURVE",
"392 150 OFFCURVE",
"335 150 CURVE SMOOTH"
);
}
);
width = 697;
}
);
leftKerningGroup = a;
unicode = 0064;
},
{
glyphname = e;
layers = (
{
anchors = (
{
name = bottom;
position = "{288, 0}";
},
{
name = ogonek;
position = "{405, 0}";
},
{
name = top;
position = "{288, 501}";
}
);
background = {
anchors = (
{
name = bottom;
position = "{288, 0}";
},
{
name = ogonek;
position = "{405, 0}";
},
{
name = top;
position = "{288, 501}";
}
);
paths = (
{
closed = 1;
nodes = (
"386 132 OFFCURVE",
"436 144 OFFCURVE",
"488 167 CURVE",
"513 33 LINE",
"452 6 OFFCURVE",
"384 -8 OFFCURVE",
"309 -8 CURVE SMOOTH",
"141 -8 OFFCURVE",
"25 101 OFFCURVE",
"25 250 CURVE SMOOTH",
"25 406 OFFCURVE",
"149 508 OFFCURVE",
"302 508 CURVE SMOOTH",
"456 508 OFFCURVE",
"533 398 OFFCURVE",
"533 263 CURVE SMOOTH",
"533 253 OFFCURVE",
"533 245 OFFCURVE",
"531 237 CURVE",
"231 198 LINE",
"247 151 OFFCURVE",
"284 132 OFFCURVE",
"341 132 CURVE SMOOTH"
);
},
{
closed = 1;
nodes = (
"378 324 LINE",
"367 366 OFFCURVE",
"341 387 OFFCURVE",
"302 387 CURVE SMOOTH",
"252 387 OFFCURVE",
"224 345 OFFCURVE",
"223 290 CURVE"
);
}
);
};
hints = (
{
horizontal = 1;
place = "{-8, 140}";
},
{
horizontal = 1;
place = "{387, 122}";
}
);
layerId = UUID0;
paths = (
{
closed = 1;
nodes = (
"384 -8 OFFCURVE",
"452 6 OFFCURVE",
"513 33 CURVE",
"488 167 LINE",
"436 144 OFFCURVE",
"386 132 OFFCURVE",
"341 132 CURVE SMOOTH",
"284 132 OFFCURVE",
"247 151 OFFCURVE",
"231 198 CURVE",
"531 237 LINE",
"533 245 OFFCURVE",
"533 253 OFFCURVE",
"533 263 CURVE SMOOTH",
"533 398 OFFCURVE",
"456 508 OFFCURVE",
"302 508 CURVE SMOOTH",
"149 508 OFFCURVE",
"25 406 OFFCURVE",
"25 250 CURVE SMOOTH",
"25 101 OFFCURVE",
"141 -8 OFFCURVE",
"309 -8 CURVE SMOOTH"
);
},
{
closed = 1;
nodes = (
"224 345 OFFCURVE",
"252 387 OFFCURVE",
"302 387 CURVE SMOOTH",
"341 387 OFFCURVE",
"367 366 OFFCURVE",
"378 324 CURVE",
"223 290 LINE"
);
}
);
width = 556;
}
);
leftKerningGroup = c;
rightKerningGroup = e;
unicode = 0065;
},
{
color = 3;
glyphname = f;
layers = (
{
anchors = (
{
name = bottom;
position = "{194, 0}";
},
{
name = top;
position = "{262, 688}";
}
);
background = {
anchors = (
{
name = bottom;
position = "{194, 0}";
},
{
name = top;
position = "{262, 688}";
}
);
paths = (
{
closed = 1;
nodes = (
"291 617 OFFCURVE",
"268 598 OFFCURVE",
"268 561 CURVE SMOOTH",
"268 543 OFFCURVE",
"274 523 OFFCURVE",
"285 501 CURVE",
"425 501 LINE",
"425 377 LINE",
"299 377 LINE",
"299 0 LINE",
"88 0 LINE",
"88 377 LINE",
"25 377 LINE",
"25 501 LINE",
"88 501 LINE",
"88 687 OFFCURVE",
"139 768 OFFCURVE",
"271 768 CURVE SMOOTH",
"322 768 OFFCURVE",
"376 755 OFFCURVE",
"434 729 CURVE",
"427 594 LINE",
"389 609 OFFCURVE",
"356 617 OFFCURVE",
"330 617 CURVE SMOOTH"
);
}
);
};
hints = (
{
horizontal = 1;
place = "{377, 124}";
},
{
horizontal = 1;
place = "{617, 150}";
},
{
horizontal = 1;
place = "{0, 21}";
target = up;
type = BottomGhost;
}
);
layerId = UUID0;
paths = (
{
closed = 1;
nodes = (
"299 0 LINE",
"299 377 LINE",
"425 377 LINE",
"425 501 LINE",
"285 501 LINE",
"274 523 OFFCURVE",
"268 543 OFFCURVE",
"268 561 CURVE SMOOTH",
"268 598 OFFCURVE",
"291 617 OFFCURVE",
"330 617 CURVE SMOOTH",
"356 617 OFFCURVE",
"389 609 OFFCURVE",
"427 594 CURVE",
"434 729 LINE",
"390 755 OFFCURVE",
"342 768 OFFCURVE",
"291 768 CURVE SMOOTH",
"165 768 OFFCURVE",
"88 693 OFFCURVE",
"88 543 CURVE SMOOTH",
"88 501 LINE",
"25 501 LINE",
"25 377 LINE",
"88 377 LINE",
"88 0 LINE"
);
}
);
width = 435;
}
);
leftKerningGroup = f;
unicode = 0066;
},
{
color = 3;
glyphname = g;
layers = (
{
anchors = (
{
name = bottom;
position = "{348, 0}";
},
{
name = top;
position = "{348, 501}";
}
);
background = {
anchors = (
{
name = bottom;
position = "{348, 0}";
},
{
name = top;
position = "{348, 501}";
}
);
paths = (
{
closed = 1;
nodes = (
"409 28 OFFCURVE",
"349 0 OFFCURVE",
"268 0 CURVE SMOOTH",
"139 0 OFFCURVE",
"26 107 OFFCURVE",
"26 253 CURVE SMOOTH",
"26 406 OFFCURVE",
"144 508 OFFCURVE",
"267 508 CURVE SMOOTH",
"349 508 OFFCURVE",
"414 462 OFFCURVE",
"433 392 CURVE",
"433 508 LINE",
"644 508 LINE",
"644 127 LINE SMOOTH",
"644 -92 OFFCURVE",
"548 -229 OFFCURVE",
"333 -229 CURVE SMOOTH",
"302 -229 OFFCURVE",
"267 -226 OFFCURVE",
"228 -220 CURVE",
"244 -70 LINE",
"276 -74 OFFCURVE",
"299 -76 OFFCURVE",
"312 -76 CURVE SMOOTH",
"412 -76 OFFCURVE",
"434 -8 OFFCURVE",
"448 83 CURVE"
);
},
{
closed = 1;
nodes = (
"433 254 LINE",
"431 306 OFFCURVE",
"384 350 OFFCURVE",
"333 350 CURVE SMOOTH",
"276 350 OFFCURVE",
"234 303 OFFCURVE",
"234 250 CURVE SMOOTH",
"234 186 OFFCURVE",
"288 150 OFFCURVE",
"333 150 CURVE SMOOTH",
"387 150 OFFCURVE",
"431 195 OFFCURVE",
"433 246 CURVE"
);
}
);
};
hints = (
{
horizontal = 1;
place = "{-229, 153}";
},
{
horizontal = 1;
place = "{0, 150}";
},
{
horizontal = 1;
place = "{350, 159}";
}
);
layerId = UUID0;
paths = (
{
closed = 1;
nodes = (
"536 -229 OFFCURVE",
"644 -106 OFFCURVE",
"644 127 CURVE SMOOTH",
"644 508 LINE",
"433 508 LINE",
"433 392 LINE",
"414 462 OFFCURVE",
"349 508 OFFCURVE",
"267 508 CURVE SMOOTH",
"133 508 OFFCURVE",
"26 395 OFFCURVE",
"26 253 CURVE SMOOTH",
"26 113 OFFCURVE",
"134 0 OFFCURVE",
"268 0 CURVE SMOOTH",
"349 0 OFFCURVE",
"409 28 OFFCURVE",
"448 83 CURVE",
"440 -34 OFFCURVE",
"396 -76 OFFCURVE",
"316 -76 CURVE SMOOTH",
"299 -76 OFFCURVE",
"270 -74 OFFCURVE",
"244 -70 CURVE",
"228 -218 LINE",
"264 -226 OFFCURVE",
"302 -229 OFFCURVE",
"333 -229 CURVE SMOOTH"
);
},
{
closed = 1;
nodes = (
"279 150 OFFCURVE",
"234 195 OFFCURVE",
"234 250 CURVE SMOOTH",
"234 305 OFFCURVE",
"278 350 OFFCURVE",
"333 350 CURVE SMOOTH",
"385 350 OFFCURVE",
"431 305 OFFCURVE",
"433 254 CURVE",
"433 246 LINE",
"431 194 OFFCURVE",
"386 150 OFFCURVE",
"333 150 CURVE SMOOTH"
);
}
);
width = 695;
}
);
leftKerningGroup = a;
rightKerningGroup = g;
unicode = 0067;
},
{
color = 3;
glyphname = h;
layers = (
{
anchors = (
{
name = bottom;
position = "{343, 0}";
},
{
name = center;
position = "{343, 251}";
},
{
name = top;
position = "{346, 688}";
}
);
background = {
anchors = (
{
name = bottom;
position = "{343, 0}";
},
{
name = center;
position = "{343, 251}";
},
{
name = top;
position = "{346, 688}";
}
);
paths = (
{
closed = 1;
nodes = (
"750 659 LINE",
"961 690 LINE",
"961 390 LINE",
"995 472 OFFCURVE",
"1052 508 OFFCURVE",
"1126 508 CURVE SMOOTH",
"1247 508 OFFCURVE",
"1341 406 OFFCURVE",
"1341 254 CURVE SMOOTH",
"1341 0 LINE",
"1131 0 LINE",
"1131 250 LINE SMOOTH",
"1131 301 OFFCURVE",
"1101 350 OFFCURVE",
"1061 350 CURVE SMOOTH",
"1004 350 OFFCURVE",
"961 300 OFFCURVE",
"961 243 CURVE SMOOTH",
"961 0 LINE",
"750 0 LINE"
);
},
{
closed = 1;
nodes = (
"261 0 LINE",
"261 234 LINE SMOOTH",
"261 312 OFFCURVE",
"313 360 OFFCURVE",
"360 360 CURVE SMOOTH",
"403 360 OFFCURVE",
"430 329 OFFCURVE",
"430 271 CURVE SMOOTH",
"430 0 LINE",
"640 0 LINE",
"640 250 LINE SMOOTH",
"640 411 OFFCURVE",
"563 508 OFFCURVE",
"435 508 CURVE SMOOTH",
"351 508 OFFCURVE",
"289 468 OFFCURVE",
"251 392 CURVE",
"251 494 LINE",
"50 494 LINE",
"50 0 LINE"
);
}
);
};
hints = (
{
horizontal = 1;
place = "{350, 159}";
},
{
horizontal = 1;
place = "{0, 21}";
target = up;
type = BottomGhost;
},
{
horizontal = 1;
place = "{690, -20}";
target = down;
type = TopGhost;
}
);
layerId = UUID0;
paths = (
{
closed = 1;
nodes = (
"261 0 LINE",
"261 234 LINE SMOOTH",
"261 312 OFFCURVE",
"313 360 OFFCURVE",
"360 360 CURVE SMOOTH",
"403 360 OFFCURVE",
"430 329 OFFCURVE",
"430 271 CURVE SMOOTH",
"430 0 LINE",
"640 0 LINE",
"640 250 LINE SMOOTH",
"640 411 OFFCURVE",
"563 508 OFFCURVE",
"435 508 CURVE SMOOTH",
"351 508 OFFCURVE",
"290 468 OFFCURVE",
"261 398 CURVE",
"261 690 LINE",
"50 659 LINE",
"50 0 LINE"
);
}
);
width = 687;
}
);
rightKerningGroup = h;
unicode = 0068;
},
{
color = 3;
glyphname = idotless;
layers = (
{
anchors = (
{
name = bottom;
position = "{183, 0}";
},
{
name = ogonek;
position = "{292, 0}";
},
{
name = top;
position = "{154, 501}";
}
);
background = {
anchors = (
{
name = bottom;
position = "{154, 0}";
},
{
name = ogonek;
position = "{292, 0}";
},
{
name = top;
position = "{154, 501}";
}
);
paths = (
{
closed = 1;
nodes = (
"357 27 LINE",
"317 4 OFFCURVE",
"274 -8 OFFCURVE",
"226 -8 CURVE SMOOTH",
"112 -8 OFFCURVE",
"48 71 OFFCURVE",
"48 193 CURVE SMOOTH",
"48 501 LINE",
"260 501 LINE",
"260 202 LINE SMOOTH",
"260 171 OFFCURVE",
"279 154 OFFCURVE",
"305 154 CURVE SMOOTH",
"318 154 OFFCURVE",
"332 158 OFFCURVE",
"346 166 CURVE"
);
}
);
};
hints = (
{
horizontal = 1;
place = "{-16, 162}";
},
{
horizontal = 1;
place = "{501, -20}";
target = down;
type = TopGhost;
}
);
layerId = UUID0;
paths = (
{
closed = 1;
nodes = (
"274 -8 OFFCURVE",
"327 4 OFFCURVE",
"357 27 CURVE",
"346 166 LINE",
"332 158 OFFCURVE",
"318 154 OFFCURVE",
"305 154 CURVE SMOOTH",
"279 154 OFFCURVE",
"260 171 OFFCURVE",
"260 202 CURVE SMOOTH",
"260 501 LINE",
"48 501 LINE",
"48 193 LINE SMOOTH",
"48 71 OFFCURVE",
"112 -8 OFFCURVE",
"226 -8 CURVE SMOOTH"
);
}
);
width = 365;
}
);
leftKerningGroup = m;
rightKerningGroup = i;
unicode = 0131;
},
{
glyphname = j;
layers = (
{
background = {
paths = (
{
closed = 1;
nodes = (
"30 -54 OFFCURVE",
"52 -26 OFFCURVE",
"52 29 CURVE SMOOTH",
"52 501 LINE",
"263 501 LINE",
"263 29 LINE SMOOTH",
"263 -123 OFFCURVE",
"179 -216 OFFCURVE",
"42 -216 CURVE SMOOTH",
"-20 -216 OFFCURVE",
"-77 -198 OFFCURVE",
"-129 -163 CURVE",
"-83 -39 LINE",
"-53 -49 OFFCURVE",
"-30 -54 OFFCURVE",
"-14 -54 CURVE SMOOTH"
);
},
{
closed = 1;
nodes = (
"42 725 OFFCURVE",
"97 768 OFFCURVE",
"154 768 CURVE SMOOTH",
"222 768 OFFCURVE",
"267 716 OFFCURVE",
"267 667 CURVE SMOOTH",
"267 607 OFFCURVE",
"214 565 OFFCURVE",
"154 565 CURVE SMOOTH",
"90 565 OFFCURVE",
"42 612 OFFCURVE",
"42 667 CURVE SMOOTH"
);
}
);
};
hints = (
{
horizontal = 1;
place = "{-216, 162}";
},
{
horizontal = 1;
place = "{565, 202}";
},
{
horizontal = 1;
place = "{501, -20}";
target = down;
type = TopGhost;
}
);
layerId = UUID0;
paths = (
{
closed = 1;
nodes = (
"179 -216 OFFCURVE",
"263 -123 OFFCURVE",
"263 29 CURVE SMOOTH",
"263 501 LINE",
"52 501 LINE",
"52 29 LINE SMOOTH",
"52 -26 OFFCURVE",
"30 -54 OFFCURVE",
"-14 -54 CURVE SMOOTH",
"-30 -54 OFFCURVE",
"-53 -49 OFFCURVE",
"-83 -39 CURVE",
"-129 -163 LINE",
"-77 -198 OFFCURVE",
"-20 -216 OFFCURVE",
"42 -216 CURVE SMOOTH"
);
},
{
closed = 1;
nodes = (
"214 565 OFFCURVE",
"267 607 OFFCURVE",
"267 667 CURVE SMOOTH",
"267 716 OFFCURVE",
"222 768 OFFCURVE",
"154 768 CURVE SMOOTH",
"97 768 OFFCURVE",
"42 725 OFFCURVE",
"42 667 CURVE SMOOTH",
"42 612 OFFCURVE",
"90 565 OFFCURVE",
"154 565 CURVE SMOOTH"
);
}
);
width = 315;
}
);
leftKerningGroup = j;
rightKerningGroup = j;
unicode = 006A;
},
{
color = 3;
glyphname = jdotless;
layers = (
{
anchors = (
{
name = bottom;
position = "{158, 0}";
},
{
name = top;
position = "{158, 501}";
}
);
background = {
anchors = (
{
name = bottom;
position = "{158, 0}";
},
{
name = top;
position = "{158, 501}";
}
);
paths = (
{
closed = 1;
nodes = (
"30 -54 OFFCURVE",
"52 -26 OFFCURVE",
"52 29 CURVE SMOOTH",
"52 501 LINE",
"263 501 LINE",
"263 29 LINE SMOOTH",
"263 -123 OFFCURVE",
"179 -216 OFFCURVE",
"42 -216 CURVE SMOOTH",
"-20 -216 OFFCURVE",
"-77 -198 OFFCURVE",
"-129 -163 CURVE",
"-83 -39 LINE",
"-53 -49 OFFCURVE",
"-30 -54 OFFCURVE",
"-14 -54 CURVE SMOOTH"
);
}
);
};
hints = (
{
horizontal = 1;
place = "{-216, 162}";
},
{
horizontal = 1;
place = "{501, -20}";
target = down;
type = TopGhost;
}
);
layerId = UUID0;
paths = (
{
closed = 1;
nodes = (
"179 -216 OFFCURVE",
"263 -123 OFFCURVE",
"263 29 CURVE SMOOTH",
"263 501 LINE",
"52 501 LINE",
"52 29 LINE SMOOTH",
"52 -26 OFFCURVE",
"30 -54 OFFCURVE",
"-14 -54 CURVE SMOOTH",
"-30 -54 OFFCURVE",
"-53 -49 OFFCURVE",
"-83 -39 CURVE",
"-129 -163 LINE",
"-77 -198 OFFCURVE",
"-20 -216 OFFCURVE",
"42 -216 CURVE SMOOTH"
);
}
);
width = 315;
}
);
leftKerningGroup = j;
rightKerningGroup = j;
unicode = 0237;
},
{
color = 3;
glyphname = k;
layers = (
{
anchors = (
{
name = bottom;
position = "{321, 0}";
},
{
name = top;
position = "{159, 688}";
}
);
background = {
anchors = (
{
name = bottom;
position = "{321, 0}";
},
{
name = top;
position = "{159, 688}";
}
);
paths = (
{
closed = 1;
nodes = (
"475 289 LINE",
"482 247 OFFCURVE",
"489 218 OFFCURVE",
"497 204 CURVE",
"512 170 OFFCURVE",
"538 153 OFFCURVE",
"576 153 CURVE SMOOTH",
"585 153 OFFCURVE",
"600 155 OFFCURVE",
"619 159 CURVE",
"599 -5 LINE",
"579 -7 OFFCURVE",
"560 -8 OFFCURVE",
"543 -8 CURVE SMOOTH",
"401 -8 OFFCURVE",
"359 49 OFFCURVE",
"323 185 CURVE",
"264 138 LINE",
"264 0 LINE",
"52 0 LINE",
"53 659 LINE",
"265 690 LINE",
"264 348 LINE",
"521 558 LINE",
"636 401 LINE"
);
}
);
};
hints = (
{
horizontal = 1;
place = "{-8, 161}";
},
{
horizontal = 1;
place = "{690, -20}";
target = down;
type = TopGhost;
},
{
horizontal = 1;
place = "{0, 21}";
target = up;
type = BottomGhost;
}
);
layerId = UUID0;
paths = (
{
closed = 1;
nodes = (
"560 -8 OFFCURVE",
"579 -7 OFFCURVE",
"599 -5 CURVE",
"619 159 LINE",
"602 155 OFFCURVE",
"586 153 OFFCURVE",
"576 153 CURVE SMOOTH",
"517 153 OFFCURVE",
"491 188 OFFCURVE",
"475 289 CURVE",
"636 401 LINE",
"521 558 LINE",
"264 348 LINE",
"265 690 LINE",
"53 659 LINE",
"52 0 LINE",
"264 0 LINE",
"264 138 LINE",
"323 185 LINE",
"362 36 OFFCURVE",
"412 -8 OFFCURVE",
"543 -8 CURVE SMOOTH"
);
}
);
width = 642;
}
);
rightKerningGroup = k;
unicode = 006B;
},
{
color = 3;
glyphname = l;
layers = (
{
anchors = (
{
name = bottom;
position = "{212, 0}";
},
{
name = center;
position = "{401, 391}";
},
{
name = top;
position = "{154, 688}";
},
{
name = topright;
position = "{319, 688}";
}
);
background = {
anchors = (
{
name = bottom;
position = "{212, 0}";
},
{
name = center;
position = "{401, 391}";
},
{
name = top;
position = "{154, 688}";
},
{
name = topright;
position = "{319, 688}";
}
);
paths = (
{
closed = 1;
nodes = (
"376 26 LINE",
"331 3 OFFCURVE",
"281 -8 OFFCURVE",
"226 -8 CURVE SMOOTH",
"112 -8 OFFCURVE",
"48 69 OFFCURVE",
"48 192 CURVE SMOOTH",
"48 659 LINE",
"259 690 LINE",
"259 207 LINE SMOOTH",
"259 171 OFFCURVE",
"284 154 OFFCURVE",
"323 154 CURVE SMOOTH",
"338 154 OFFCURVE",
"353 158 OFFCURVE",
"369 166 CURVE"
);
}
);
};
hints = (
{
horizontal = 1;
place = "{-8, 162}";
},
{
horizontal = 1;
place = "{690, -20}";
target = down;
type = TopGhost;
}
);
layerId = UUID0;
paths = (
{
closed = 1;
nodes = (
"281 -8 OFFCURVE",
"331 3 OFFCURVE",
"376 26 CURVE",
"369 166 LINE",
"353 158 OFFCURVE",
"338 154 OFFCURVE",
"320 154 CURVE SMOOTH",
"274 154 OFFCURVE",
"259 171 OFFCURVE",
"259 207 CURVE SMOOTH",
"259 690 LINE",
"48 659 LINE",
"48 192 LINE SMOOTH",
"48 69 OFFCURVE",
"112 -8 OFFCURVE",
"226 -8 CURVE SMOOTH"
);
}
);
width = 378;
}
);
rightKerningGroup = l;
unicode = 006C;
},
{
color = 3;
glyphname = m;
layers = (
{
anchors = (
{
name = bottom;
position = "{513, 0}";
},
{
name = top;
position = "{513, 501}";
}
);
background = {
anchors = (
{
name = bottom;
position = "{513, 0}";
},
{
name = top;
position = "{513, 501}";
}
);
paths = (
{
closed = 1;
nodes = (
"1733 466 OFFCURVE",
"1793 508 OFFCURVE",
"1889 508 CURVE SMOOTH",
"1998 508 OFFCURVE",
"2079 402 OFFCURVE",
"2079 250 CURVE SMOOTH",
"2079 0 LINE",
"1868 0 LINE",
"1868 250 LINE SMOOTH",
"1868 306 OFFCURVE",
"1842 348 OFFCURVE",
"1799 348 CURVE SMOOTH",
"1743 348 OFFCURVE",
"1719 291 OFFCURVE",
"1719 250 CURVE SMOOTH",
"1719 0 LINE",
"1510 0 LINE",
"1510 250 LINE SMOOTH",
"1510 305 OFFCURVE",
"1485 348 OFFCURVE",
"1440 348 CURVE SMOOTH",
"1392 348 OFFCURVE",
"1362 305 OFFCURVE",
"1361 254 CURVE",
"1361 0 LINE",
"1150 0 LINE",
"1150 494 LINE",
"1361 494 LINE",
"1361 392 LINE",
"1398 474 OFFCURVE",
"1455 508 OFFCURVE",
"1532 508 CURVE SMOOTH",
"1605 508 OFFCURVE",
"1673 472 OFFCURVE",
"1705 384 CURVE"
);
},
{
closed = 1;
nodes = (
"600 0 LINE",
"600 265 LINE",
"609 312 OFFCURVE",
"661 360 OFFCURVE",
"703 360 CURVE SMOOTH",
"746 360 OFFCURVE",
"769 329 OFFCURVE",
"769 271 CURVE SMOOTH",
"769 0 LINE",
"979 0 LINE",
"979 250 LINE SMOOTH",
"979 411 OFFCURVE",
"902 508 OFFCURVE",
"774 508 CURVE SMOOTH",
"690 508 OFFCURVE",
"628 468 OFFCURVE",
"590 392 CURVE",
"590 494 LINE",
"389 494 LINE",
"389 0 LINE"
);
}
);
};
hints = (
{
horizontal = 1;
place = "{348, 146}";
},
{
horizontal = 1;
place = "{348, 161}";
},
{
horizontal = 1;
place = "{0, 21}";
target = up;
type = BottomGhost;
}
);
layerId = UUID0;
paths = (
{
closed = 1;
nodes = (
"261 0 LINE",
"261 254 LINE SMOOTH",
"261 309 OFFCURVE",
"298 353 OFFCURVE",
"343 353 CURVE SMOOTH",
"385 353 OFFCURVE",
"410 319 OFFCURVE",
"410 250 CURVE SMOOTH",
"410 0 LINE",
"619 0 LINE",
"619 254 LINE SMOOTH",
"619 309 OFFCURVE",
"657 353 OFFCURVE",
"702 353 CURVE SMOOTH",
"743 353 OFFCURVE",
"768 319 OFFCURVE",
"768 250 CURVE SMOOTH",
"768 0 LINE",
"979 0 LINE",
"979 250 LINE SMOOTH",
"979 411 OFFCURVE",
"902 508 OFFCURVE",
"786 508 CURVE SMOOTH",
"698 508 OFFCURVE",
"640 467 OFFCURVE",
"600 399 CURVE",
"572 463 OFFCURVE",
"514 508 OFFCURVE",
"432 508 CURVE SMOOTH",
"351 508 OFFCURVE",
"296 470 OFFCURVE",
"251 392 CURVE",
"251 494 LINE",
"50 494 LINE",
"50 0 LINE"
);
}
);
width = 1026;
}
);
leftKerningGroup = m;
leftMetricsKey = n;
rightKerningGroup = h;
rightMetricsKey = n;
unicode = 006D;
},
{
color = 3;
glyphname = n;
layers = (
{
anchors = (
{
name = bottom;
position = "{344, 0}";
},
{
name = top;
position = "{344, 501}";
}
);
background = {
anchors = (
{
name = bottom;
position = "{344, 0}";
},
{
name = top;
position = "{344, 501}";
}
);
paths = (
{
closed = 1;
nodes = (
"50 494 LINE",
"251 494 LINE",
"251 392 LINE",
"290 470 OFFCURVE",
"352 508 OFFCURVE",
"435 508 CURVE SMOOTH",
"567 508 OFFCURVE",
"640 405 OFFCURVE",
"640 250 CURVE SMOOTH",
"640 0 LINE",
"430 0 LINE",
"430 271 LINE SMOOTH",
"430 323 OFFCURVE",
"411 360 OFFCURVE",
"364 360 CURVE SMOOTH",
"307 360 OFFCURVE",
"267 296 OFFCURVE",
"261 265 CURVE",
"261 0 LINE",
"50 0 LINE"
);
}
);
};
hints = (
{
horizontal = 1;
place = "{360, 133}";
},
{
horizontal = 1;
place = "{360, 148}";
},
{
horizontal = 1;
place = "{0, 21}";
target = up;
type = BottomGhost;
}
);
layerId = UUID0;
paths = (
{
closed = 1;
nodes = (
"261 0 LINE",
"261 234 LINE SMOOTH",
"261 312 OFFCURVE",
"313 360 OFFCURVE",
"360 360 CURVE SMOOTH",
"403 360 OFFCURVE",
"430 329 OFFCURVE",
"430 271 CURVE SMOOTH",
"430 0 LINE",
"640 0 LINE",
"640 250 LINE SMOOTH",
"640 411 OFFCURVE",
"563 508 OFFCURVE",
"435 508 CURVE SMOOTH",
"351 508 OFFCURVE",
"289 468 OFFCURVE",
"251 392 CURVE",
"251 494 LINE",
"50 494 LINE",
"50 0 LINE"
);
}
);
width = 687;
}
);
leftKerningGroup = m;
rightKerningGroup = h;
unicode = 006E;
},
{
color = 3;
glyphname = o;
layers = (
{
anchors = (
{
name = bottom;
position = "{314, 0}";
},
{
name = center;
position = "{314, 251}";
},
{
name = ogonek;
position = "{389, 0}";
},
{
name = top;
position = "{314, 501}";
},
{
name = topright;
position = "{607, 501}";
}
);
background = {
anchors = (
{
name = bottom;
position = "{314, 0}";
},
{
name = center;
position = "{314, 251}";
},
{
name = ogonek;
position = "{389, 0}";
},
{
name = top;
position = "{314, 501}";
},
{
name = topright;
position = "{607, 501}";
}
);
paths = (
{
closed = 1;
nodes = (
"221 178 OFFCURVE",
"268 142 OFFCURVE",
"315 142 CURVE SMOOTH",
"362 142 OFFCURVE",
"409 178 OFFCURVE",
"409 251 CURVE SMOOTH",
"409 324 OFFCURVE",
"362 360 OFFCURVE",
"315 360 CURVE SMOOTH",
"268 360 OFFCURVE",
"221 324 OFFCURVE",
"221 251 CURVE SMOOTH"
);
},
{
closed = 1;
nodes = (
"32 418 OFFCURVE",
"160 508 OFFCURVE",
"314 508 CURVE SMOOTH",
"484 508 OFFCURVE",
"602 402 OFFCURVE",
"602 251 CURVE SMOOTH",
"602 67 OFFCURVE",
"450 -8 OFFCURVE",
"313 -8 CURVE SMOOTH",
"142 -8 OFFCURVE",
"25 97 OFFCURVE",
"25 251 CURVE"
);
}
);
};
hints = (
{
horizontal = 1;
place = "{-8, 149}";
},
{
horizontal = 1;
place = "{360, 148}";
}
);
layerId = UUID0;
paths = (
{
closed = 1;
nodes = (
"484 -8 OFFCURVE",
"602 96 OFFCURVE",
"602 251 CURVE SMOOTH",
"602 404 OFFCURVE",
"486 508 OFFCURVE",
"314 508 CURVE SMOOTH",
"146 508 OFFCURVE",
"25 406 OFFCURVE",
"25 251 CURVE SMOOTH",
"25 98 OFFCURVE",
"142 -8 OFFCURVE",
"313 -8 CURVE SMOOTH"
);
},
{
closed = 1;
nodes = (
"260 142 OFFCURVE",
"221 187 OFFCURVE",
"221 251 CURVE SMOOTH",
"221 315 OFFCURVE",
"260 360 OFFCURVE",
"315 360 CURVE SMOOTH",
"370 360 OFFCURVE",
"409 315 OFFCURVE",
"409 251 CURVE SMOOTH",
"409 187 OFFCURVE",
"370 142 OFFCURVE",
"315 142 CURVE SMOOTH"
);
}
);
width = 627;
}
);
leftKerningGroup = c;
rightKerningGroup = o;
unicode = 006F;
},
{
color = 3;
glyphname = p;
layers = (
{
anchors = (
{
name = bottom;
position = "{348, 0}";
},
{
name = top;
position = "{348, 501}";
}
);
background = {
anchors = (
{
name = bottom;
position = "{348, 0}";
},
{
name = top;
position = "{348, 501}";
}
);
paths = (
{
closed = 1;
nodes = (
"1051 -8 OFFCURVE",
"996 21 OFFCURVE",
"961 93 CURVE",
"961 -130 LINE",
"750 -170 LINE",
"750 494 LINE",
"961 494 LINE",
"961 407 LINE",
"995 479 OFFCURVE",
"1050 508 OFFCURVE",
"1124 508 CURVE SMOOTH",
"1186 508 OFFCURVE",
"1242 492 OFFCURVE",
"1291 443 CURVE SMOOTH",
"1343 391 OFFCURVE",
"1369 328 OFFCURVE",
"1369 250 CURVE SMOOTH",
"1369 173 OFFCURVE",
"1343 109 OFFCURVE",
"1291 57 CURVE SMOOTH",
"1243 9 OFFCURVE",
"1187 -8 OFFCURVE",
"1125 -8 CURVE SMOOTH"
);
},
{
closed = 1;
nodes = (
"961 250 LINE SMOOTH",
"961 193 OFFCURVE",
"1007 150 OFFCURVE",
"1059 150 CURVE SMOOTH",
"1117 150 OFFCURVE",
"1160 197 OFFCURVE",
"1160 250 CURVE SMOOTH",
"1160 313 OFFCURVE",
"1108 350 OFFCURVE",
"1059 350 CURVE SMOOTH",
"997 350 OFFCURVE",
"965 296 OFFCURVE",
"961 254 CURVE"
);
},
{
closed = 1;
nodes = (
"554 -8 OFFCURVE",
"669 102 OFFCURVE",
"669 250 CURVE SMOOTH",
"669 398 OFFCURVE",
"560 508 OFFCURVE",
"424 508 CURVE SMOOTH",
"350 508 OFFCURVE",
"296 479 OFFCURVE",
"262 407 CURVE",
"262 690 LINE",
"50 659 LINE",
"50 0 LINE",
"262 0 LINE",
"262 93 LINE",
"294 26 OFFCURVE",
"349 -8 OFFCURVE",
"425 -8 CURVE SMOOTH"
);
},
{
closed = 1;
nodes = (
"308 150 OFFCURVE",
"262 193 OFFCURVE",
"262 250 CURVE SMOOTH",
"262 254 LINE SMOOTH",
"262 306 OFFCURVE",
"306 350 OFFCURVE",
"361 350 CURVE SMOOTH",
"414 350 OFFCURVE",
"460 307 OFFCURVE",
"460 250 CURVE SMOOTH",
"460 198 OFFCURVE",
"417 150 OFFCURVE",
"361 150 CURVE SMOOTH"
);
}
);
};
hints = (
{
horizontal = 1;
place = "{-8, 158}";
},
{
horizontal = 1;
place = "{350, 144}";
},
{
horizontal = 1;
place = "{350, 159}";
},
{
horizontal = 1;
place = "{-170, 21}";
target = up;
type = BottomGhost;
}
);
layerId = UUID0;
paths = (
{
closed = 1;
nodes = (
"261 -130 LINE",
"261 93 LINE",
"294 26 OFFCURVE",
"349 -8 OFFCURVE",
"425 -8 CURVE SMOOTH",
"554 -8 OFFCURVE",
"669 101 OFFCURVE",
"669 250 CURVE SMOOTH",
"669 398 OFFCURVE",
"560 508 OFFCURVE",
"424 508 CURVE SMOOTH",
"346 508 OFFCURVE",
"293 475 OFFCURVE",
"261 407 CURVE",
"261 494 LINE",
"50 494 LINE",
"50 -170 LINE"
);
},
{
closed = 1;
nodes = (
"308 150 OFFCURVE",
"262 193 OFFCURVE",
"262 250 CURVE SMOOTH",
"262 254 LINE SMOOTH",
"262 306 OFFCURVE",
"306 350 OFFCURVE",
"361 350 CURVE SMOOTH",
"414 350 OFFCURVE",
"460 307 OFFCURVE",
"460 250 CURVE SMOOTH",
"460 198 OFFCURVE",
"417 150 OFFCURVE",
"361 150 CURVE SMOOTH"
);
}
);
width = 695;
}
);
leftKerningGroup = m;
rightKerningGroup = b;
unicode = 0070;
},
{
glyphname = q;
layers = (
{
anchors = (
{
name = bottom;
position = "{348, 0}";
},
{
name = top;
position = "{348, 501}";
}
);
background = {
anchors = (
{
name = bottom;
position = "{348, 0}";
},
{
name = top;
position = "{348, 501}";
}
);
paths = (
{
closed = 1;
nodes = (
"345 508 OFFCURVE",
"400 479 OFFCURVE",
"435 407 CURVE",
"435 494 LINE",
"646 494 LINE",
"646 -130 LINE",
"435 -170 LINE",
"435 93 LINE",
"399 21 OFFCURVE",
"344 -8 OFFCURVE",
"270 -8 CURVE SMOOTH",
"121 -8 OFFCURVE",
"26 115 OFFCURVE",
"26 250 CURVE SMOOTH",
"26 398 OFFCURVE",
"137 508 OFFCURVE",
"271 508 CURVE SMOOTH"
);
},
{
closed = 1;
nodes = (
"435 254 LINE",
"433 307 OFFCURVE",
"386 350 OFFCURVE",
"336 350 CURVE SMOOTH",
"280 350 OFFCURVE",
"236 303 OFFCURVE",
"236 250 CURVE SMOOTH",
"236 193 OFFCURVE",
"284 150 OFFCURVE",
"336 150 CURVE SMOOTH",
"390 150 OFFCURVE",
"433 195 OFFCURVE",
"435 246 CURVE"
);
}
);
};
hints = (
{
horizontal = 1;
place = "{-8, 158}";
},
{
horizontal = 1;
place = "{350, 144}";
},
{
horizontal = 1;
place = "{350, 159}";
},
{
horizontal = 1;
place = "{-170, 21}";
target = up;
type = BottomGhost;
}
);
layerId = UUID0;
paths = (
{
closed = 1;
nodes = (
"646 -130 LINE",
"646 494 LINE",
"435 494 LINE",
"435 407 LINE",
"400 479 OFFCURVE",
"345 508 OFFCURVE",
"271 508 CURVE SMOOTH",
"137 508 OFFCURVE",
"26 398 OFFCURVE",
"26 250 CURVE SMOOTH",
"26 115 OFFCURVE",
"121 -8 OFFCURVE",
"270 -8 CURVE SMOOTH",
"344 -8 OFFCURVE",
"399 21 OFFCURVE",
"435 93 CURVE",
"435 -170 LINE"
);
},
{
closed = 1;
nodes = (
"284 150 OFFCURVE",
"236 193 OFFCURVE",
"236 250 CURVE SMOOTH",
"236 303 OFFCURVE",
"280 350 OFFCURVE",
"336 350 CURVE SMOOTH",
"386 350 OFFCURVE",
"433 307 OFFCURVE",
"435 254 CURVE",
"435 246 LINE",
"433 195 OFFCURVE",
"390 150 OFFCURVE",
"336 150 CURVE SMOOTH"
);
}
);
width = 696;
}
);
leftKerningGroup = a;
unicode = 0071;
},
{
glyphname = r;
layers = (
{
anchors = (
{
name = bottom;
position = "{156, 0}";
},
{
name = top;
position = "{233, 501}";
}
);
background = {
anchors = (
{
name = bottom;
position = "{156, 0}";
},
{
name = top;
position = "{233, 501}";
}
);
paths = (
{
closed = 1;
nodes = (
"50 494 LINE",
"261 494 LINE",
"261 392 LINE",
"292 472 OFFCURVE",
"347 508 OFFCURVE",
"416 508 CURVE",
"445 345 LINE",
"318 345 OFFCURVE",
"261 319 OFFCURVE",
"261 260 CURVE SMOOTH",
"261 0 LINE",
"50 0 LINE"
);
}
);
};
hints = (
{
horizontal = 1;
place = "{345, 164}";
},
{
horizontal = 1;
place = "{0, 21}";
target = up;
type = BottomGhost;
}
);
layerId = UUID0;
paths = (
{
closed = 1;
nodes = (
"261 0 LINE",
"261 260 LINE SMOOTH",
"261 319 OFFCURVE",
"318 345 OFFCURVE",
"445 345 CURVE",
"416 508 LINE",
"347 508 OFFCURVE",
"292 472 OFFCURVE",
"261 392 CURVE",
"261 494 LINE",
"50 494 LINE",
"50 0 LINE"
);
}
);
width = 446;
}
);
leftKerningGroup = m;
rightKerningGroup = r;
unicode = 0072;
},
{
color = 3;
glyphname = s;
layers = (
{
anchors = (
{
name = bottom;
position = "{231, 0}";
},
{
name = top;
position = "{231, 501}";
}
);
background = {
paths = (
{
closed = 1;
nodes = (
"358 -8 OFFCURVE",
"438 54 OFFCURVE",
"438 159 CURVE SMOOTH",
"438 266 OFFCURVE",
"359 312 OFFCURVE",
"257 327 CURVE",
"233 330 OFFCURVE",
"207 343 OFFCURVE",
"207 363 CURVE SMOOTH",
"207 377 OFFCURVE",
"227 384 OFFCURVE",
"267 384 CURVE SMOOTH",
"298 384 OFFCURVE",
"339 376 OFFCURVE",
"388 361 CURVE",
"409 480 LINE",
"360 504 OFFCURVE",
"304 508 OFFCURVE",
"241 508 CURVE SMOOTH",
"120 508 OFFCURVE",
"33 462 OFFCURVE",
"27 345 CURVE",
"27 241 OFFCURVE",
"81 199 OFFCURVE",
"183 180 CURVE",
"218 173 OFFCURVE",
"248 162 OFFCURVE",
"252 137 CURVE",
"252 121 OFFCURVE",
"235 113 OFFCURVE",
"202 113 CURVE SMOOTH",
"173 113 OFFCURVE",
"128 122 OFFCURVE",
"109 126 CURVE SMOOTH",
"99 128 OFFCURVE",
"83 133 OFFCURVE",
"62 139 CURVE",
"39 23 LINE",
"98 -2 OFFCURVE",
"167 -8 OFFCURVE",
"253 -8 CURVE SMOOTH"
);
}
);
};
hints = (
{
horizontal = 1;
place = "{-8, 121}";
},
{
horizontal = 1;
place = "{384, 125}";
}
);
layerId = UUID0;
paths = (
{
closed = 1;
nodes = (
"364 -8 OFFCURVE",
"438 59 OFFCURVE",
"438 162 CURVE SMOOTH",
"438 255 OFFCURVE",
"376 306 OFFCURVE",
"257 327 CURVE SMOOTH",
"228 332 OFFCURVE",
"207 341 OFFCURVE",
"207 358 CURVE SMOOTH",
"207 372 OFFCURVE",
"217 384 OFFCURVE",
"267 384 CURVE SMOOTH",
"296 384 OFFCURVE",
"347 376 OFFCURVE",
"388 361 CURVE",
"409 480 LINE",
"367 500 OFFCURVE",
"320 508 OFFCURVE",
"251 508 CURVE SMOOTH",
"117 508 OFFCURVE",
"32 451 OFFCURVE",
"27 345 CURVE",
"27 252 OFFCURVE",
"72 204 OFFCURVE",
"183 183 CURVE SMOOTH",
"238 173 OFFCURVE",
"252 162 OFFCURVE",
"252 144 CURVE SMOOTH",
"252 126 OFFCURVE",
"235 116 OFFCURVE",
"202 116 CURVE SMOOTH",
"159 116 OFFCURVE",
"109 125 OFFCURVE",
"62 142 CURVE",
"39 23 LINE",
"95 1 OFFCURVE",
"153 -8 OFFCURVE",
"223 -8 CURVE SMOOTH"
);
}
);
width = 462;
}
);
leftKerningGroup = s;
rightKerningGroup = s;
unicode = 0073;
},
{
color = 3;
glyphname = germandbls;
layers = (
{
background = {
paths = (
{
closed = 1;
nodes = (
"295 570 OFFCURVE",
"267 544 OFFCURVE",
"267 493 CURVE SMOOTH",
"267 0 LINE",
"52 -16 LINE",
"52 499 LINE SMOOTH",
"52 633 OFFCURVE",
"175 703 OFFCURVE",
"341 703 CURVE SMOOTH",
"475 703 OFFCURVE",
"593 641 OFFCURVE",
"593 534 CURVE SMOOTH",
"593 473 OFFCURVE",
"562 429 OFFCURVE",
"516 402 CURVE",
"611 371 OFFCURVE",
"688 291 OFFCURVE",
"688 195 CURVE SMOOTH",
"688 26 OFFCURVE",
"544 -45 OFFCURVE",
"391 -45 CURVE SMOOTH",
"377 -45 OFFCURVE",
"337 -44 OFFCURVE",
"324 -44 CURVE",
"324 117 LINE",
"341 116 OFFCURVE",
"357 115 OFFCURVE",
"373 115 CURVE SMOOTH",
"437 115 OFFCURVE",
"474 164 OFFCURVE",
"474 229 CURVE SMOOTH",
"474 284 OFFCURVE",
"430 331 OFFCURVE",
"344 351 CURVE",
"344 443 LINE",
"391 451 OFFCURVE",
"427 478 OFFCURVE",
"427 513 CURVE SMOOTH",
"427 552 OFFCURVE",
"386 570 OFFCURVE",
"349 570 CURVE SMOOTH"
);
}
);
};
hints = (
{
horizontal = 1;
place = "{-45, 160}";
},
{
horizontal = 1;
place = "{570, 133}";
}
);
layerId = UUID0;
paths = (
{
closed = 1;
nodes = (
"544 -45 OFFCURVE",
"688 26 OFFCURVE",
"688 195 CURVE SMOOTH",
"688 291 OFFCURVE",
"611 371 OFFCURVE",
"516 402 CURVE",
"562 429 OFFCURVE",
"593 473 OFFCURVE",
"593 534 CURVE SMOOTH",
"593 641 OFFCURVE",
"475 703 OFFCURVE",
"341 703 CURVE SMOOTH",
"175 703 OFFCURVE",
"52 633 OFFCURVE",
"52 499 CURVE SMOOTH",
"52 -16 LINE",
"267 0 LINE",
"267 493 LINE SMOOTH",
"267 544 OFFCURVE",
"295 570 OFFCURVE",
"349 570 CURVE SMOOTH",
"386 570 OFFCURVE",
"427 552 OFFCURVE",
"427 513 CURVE SMOOTH",
"427 478 OFFCURVE",
"391 451 OFFCURVE",
"344 443 CURVE",
"344 351 LINE",
"430 331 OFFCURVE",
"474 284 OFFCURVE",
"474 229 CURVE SMOOTH",
"474 164 OFFCURVE",
"437 115 OFFCURVE",
"373 115 CURVE SMOOTH",
"357 115 OFFCURVE",
"341 116 OFFCURVE",
"324 117 CURVE",
"324 -44 LINE",
"337 -44 OFFCURVE",
"377 -45 OFFCURVE",
"391 -45 CURVE SMOOTH"
);
}
);
width = 707;
}
);
leftKerningGroup = f;
unicode = 00DF;
},
{
color = 3;
glyphname = t;
layers = (
{
anchors = (
{
name = bottom;
position = "{246, 0}";
},
{
name = center;
position = "{218, 251}";
},
{
name = top;
position = "{195, 688}";
},
{
name = topright;
position = "{332, 828}";
}
);
background = {
anchors = (
{
name = bottom;
position = "{246, 0}";
},
{
name = center;
position = "{218, 251}";
},
{
name = top;
position = "{195, 688}";
},
{
name = topright;
position = "{435, 688}";
}
);
paths = (
{
closed = 1;
nodes = (
"410 26 LINE",
"364 3 OFFCURVE",
"314 -8 OFFCURVE",
"259 -8 CURVE SMOOTH",
"146 -8 OFFCURVE",
"82 69 OFFCURVE",
"82 192 CURVE",
"83 377 LINE",
"19 377 LINE",
"19 501 LINE",
"98 501 LINE",
"191 690 LINE",
"292 690 LINE",
"292 501 LINE",
"408 501 LINE",
"408 377 LINE",
"292 377 LINE",
"292 207 LINE SMOOTH",
"292 172 OFFCURVE",
"317 154 OFFCURVE",
"356 154 CURVE SMOOTH",
"371 154 OFFCURVE",
"387 158 OFFCURVE",
"402 166 CURVE"
);
}
);
};
hints = (
{
horizontal = 1;
place = "{-8, 162}";
},
{
horizontal = 1;
place = "{377, 124}";
},
{
horizontal = 1;
place = "{690, -20}";
target = down;
type = TopGhost;
}
);
layerId = UUID0;
paths = (
{
closed = 1;
nodes = (
"318 -8 OFFCURVE",
"377 6 OFFCURVE",
"410 26 CURVE",
"402 166 LINE",
"387 158 OFFCURVE",
"371 154 OFFCURVE",
"353 154 CURVE SMOOTH",
"315 154 OFFCURVE",
"292 173 OFFCURVE",
"292 207 CURVE SMOOTH",
"292 377 LINE",
"408 377 LINE",
"408 501 LINE",
"292 501 LINE",
"292 690 LINE",
"191 690 LINE",
"98 501 LINE",
"19 501 LINE",
"19 377 LINE",
"83 377 LINE",
"83 182 LINE SMOOTH",
"83 63 OFFCURVE",
"152 -8 OFFCURVE",
"269 -8 CURVE SMOOTH"
);
}
);
width = 435;
}
);
leftKerningGroup = t;
rightKerningGroup = t;
unicode = 0074;
},
{
color = 3;
glyphname = u;
layers = (
{
anchors = (
{
name = bottom;
position = "{314, 0}";
},
{
name = ogonek;
position = "{394, 0}";
},
{
name = top;
position = "{314, 501}";
},
{
name = topright;
position = "{608, 501}";
}
);
background = {
anchors = (
{
name = bottom;
position = "{314, 0}";
},
{
name = ogonek;
position = "{394, 0}";
},
{
name = top;
position = "{314, 501}";
},
{
name = topright;
position = "{608, 501}";
}
);
paths = (
{
closed = 1;
nodes = (
"252 208 LINE SMOOTH",
"252 173 OFFCURVE",
"282 148 OFFCURVE",
"317 148 CURVE SMOOTH",
"351 148 OFFCURVE",
"379 175 OFFCURVE",
"379 208 CURVE SMOOTH",
"379 501 LINE",
"581 501 LINE",
"581 215 LINE SMOOTH",
"581 77 OFFCURVE",
"468 -8 OFFCURVE",
"316 -8 CURVE SMOOTH",
"167 -8 OFFCURVE",
"46 74 OFFCURVE",
"46 215 CURVE SMOOTH",
"46 501 LINE",
"252 501 LINE"
);
}
);
};
hints = (
{
horizontal = 1;
place = "{-8, 156}";
},
{
horizontal = 1;
place = "{501, -20}";
target = down;
type = TopGhost;
}
);
layerId = UUID0;
paths = (
{
closed = 1;
nodes = (
"474 -8 OFFCURVE",
"581 82 OFFCURVE",
"581 215 CURVE SMOOTH",
"581 501 LINE",
"379 501 LINE",
"379 218 LINE SMOOTH",
"379 173 OFFCURVE",
"351 148 OFFCURVE",
"317 148 CURVE SMOOTH",
"281 148 OFFCURVE",
"252 172 OFFCURVE",
"252 218 CURVE SMOOTH",
"252 501 LINE",
"46 501 LINE",
"46 215 LINE SMOOTH",
"46 83 OFFCURVE",
"156 -8 OFFCURVE",
"316 -8 CURVE SMOOTH"
);
}
);
width = 628;
}
);
leftKerningGroup = u;
rightKerningGroup = u;
unicode = 0075;
},
{
color = 3;
glyphname = v;
layers = (
{
anchors = (
{
name = bottom;
position = "{288, 0}";
},
{
name = top;
position = "{288, 501}";
}
);
background = {
anchors = (
{
name = bottom;
position = "{288, 0}";
},
{
name = top;
position = "{288, 501}";
}
);
paths = (
{
closed = 1;
nodes = (
"1 501 LINE",
"233 501 LINE",
"313 193 LINE",
"325 262 LINE",
"385 501 LINE",
"568 501 LINE",
"409 0 LINE",
"166 0 LINE"
);
}
);
};
hints = (
{
horizontal = 1;
place = "{0, 21}";
target = up;
type = BottomGhost;
},
{
horizontal = 1;
place = "{501, -20}";
target = down;
type = TopGhost;
}
);
layerId = UUID0;
paths = (
{
closed = 1;
nodes = (
"409 0 LINE",
"568 501 LINE",
"385 501 LINE",
"310 201 LINE",
"233 501 LINE",
"1 501 LINE",
"166 0 LINE"
);
}
);
width = 570;
}
);
leftKerningGroup = v;
rightKerningGroup = v;
unicode = 0076;
},
{
color = 3;
glyphname = w;
layers = (
{
anchors = (
{
name = bottom;
position = "{417, 0}";
},
{
name = top;
position = "{417, 501}";
}
);
background = {
anchors = (
{
name = bottom;
position = "{417, 0}";
},
{
name = top;
position = "{417, 501}";
}
);
paths = (
{
closed = 1;
nodes = (
"20 501 LINE",
"224 501 LINE",
"281 176 LINE",
"296 241 OFFCURVE",
"309 305 OFFCURVE",
"329 399 CURVE SMOOTH",
"350 501 LINE",
"522 501 LINE",
"572 266 LINE",
"590 168 LINE",
"610 266 LINE",
"649 501 LINE",
"813 501 LINE",
"709 0 LINE",
"467 0 LINE",
"414 265 LINE",
"361 0 LINE",
"130 0 LINE"
);
}
);
};
hints = (
{
horizontal = 1;
place = "{0, 21}";
target = up;
type = BottomGhost;
},
{
horizontal = 1;
place = "{501, -20}";
target = down;
type = TopGhost;
}
);
layerId = UUID0;
paths = (
{
closed = 1;
nodes = (
"361 0 LINE",
"414 265 LINE",
"470 0 LINE",
"709 0 LINE",
"813 501 LINE",
"649 501 LINE",
"592 168 LINE",
"522 501 LINE",
"350 501 LINE",
"281 176 LINE",
"224 501 LINE",
"20 501 LINE",
"130 0 LINE"
);
}
);
width = 833;
}
);
leftKerningGroup = w;
rightKerningGroup = w;
unicode = 0077;
},
{
glyphname = x;
layers = (
{
anchors = (
{
name = bottom;
position = "{278, 0}";
},
{
name = top;
position = "{278, 501}";
}
);
background = {
anchors = (
{
name = bottom;
position = "{278, 0}";
},
{
name = top;
position = "{278, 501}";
}
);
paths = (
{
closed = 1;
nodes = (
"154 260 LINE",
"12 501 LINE",
"223 501 LINE",
"279 383 LINE",
"337 501 LINE",
"542 501 LINE",
"402 260 LINE",
"552 0 LINE",
"347 0 LINE",
"279 128 LINE",
"213 0 LINE",
"2 0 LINE"
);
}
);
};
hints = (
{
horizontal = 1;
place = "{0, 21}";
target = up;
type = BottomGhost;
},
{
horizontal = 1;
place = "{501, -20}";
target = down;
type = TopGhost;
}
);
layerId = UUID0;
paths = (
{
closed = 1;
nodes = (
"213 0 LINE",
"279 128 LINE",
"347 0 LINE",
"552 0 LINE",
"402 260 LINE",
"542 501 LINE",
"337 501 LINE",
"279 383 LINE",
"223 501 LINE",
"12 501 LINE",
"154 260 LINE",
"2 0 LINE"
);
}
);
width = 555;
}
);
unicode = 0078;
},
{
color = 3;
glyphname = y;
layers = (
{
anchors = (
{
name = bottom;
position = "{664, 0}";
},
{
name = top;
position = "{334, 501}";
}
);
background = {
anchors = (
{
name = bottom;
position = "{1464, 0}";
},
{
name = top;
position = "{1134, 501}";
}
);
paths = (
{
closed = 1;
nodes = (
"1185 28 OFFCURVE",
"1137 0 OFFCURVE",
"1071 0 CURVE SMOOTH",
"952 0 OFFCURVE",
"848 89 OFFCURVE",
"848 212 CURVE SMOOTH",
"848 501 LINE",
"1058 501 LINE",
"1058 222 LINE SMOOTH",
"1058 183 OFFCURVE",
"1093 150 OFFCURVE",
"1126 150 CURVE SMOOTH",
"1175 150 OFFCURVE",
"1206 188 OFFCURVE",
"1206 235 CURVE SMOOTH",
"1206 501 LINE",
"1417 501 LINE",
"1417 127 LINE SMOOTH",
"1417 -107 OFFCURVE",
"1318 -234 OFFCURVE",
"1137 -234 CURVE SMOOTH",
"1116 -234 OFFCURVE",
"1088 -231 OFFCURVE",
"1050 -225 CURVE",
"1071 -61 LINE",
"1089 -65 OFFCURVE",
"1105 -66 OFFCURVE",
"1121 -66 CURVE SMOOTH",
"1196 -66 OFFCURVE",
"1210 12 OFFCURVE",
"1216 83 CURVE"
);
},
{
closed = 1;
nodes = (
"406 501 LINE",
"406 267 LINE SMOOTH",
"406 189 OFFCURVE",
"354 141 OFFCURVE",
"307 141 CURVE SMOOTH",
"264 141 OFFCURVE",
"237 172 OFFCURVE",
"237 230 CURVE SMOOTH",
"237 501 LINE",
"27 501 LINE",
"27 251 LINE SMOOTH",
"27 90 OFFCURVE",
"104 -7 OFFCURVE",
"232 -7 CURVE SMOOTH",
"316 -7 OFFCURVE",
"378 33 OFFCURVE",
"416 109 CURVE",
"416 7 LINE",
"617 7 LINE",
"617 501 LINE"
);
}
);
};
hints = (
{
horizontal = 1;
place = "{-234, 168}";
},
{
horizontal = 1;
place = "{0, 150}";
},
{
horizontal = 1;
place = "{501, -20}";
target = down;
type = TopGhost;
}
);
layerId = UUID0;
paths = (
{
closed = 1;
nodes = (
"509 -229 OFFCURVE",
"617 -106 OFFCURVE",
"617 127 CURVE SMOOTH",
"617 501 LINE",
"406 501 LINE",
"406 246 LINE SMOOTH",
"406 182 OFFCURVE",
"373 141 OFFCURVE",
"329 141 CURVE SMOOTH",
"284 141 OFFCURVE",
"258 176 OFFCURVE",
"258 220 CURVE SMOOTH",
"258 501 LINE",
"48 501 LINE",
"48 251 LINE SMOOTH",
"48 90 OFFCURVE",
"125 -7 OFFCURVE",
"254 -7 CURVE SMOOTH",
"338 -7 OFFCURVE",
"389 32 OFFCURVE",
"421 93 CURVE",
"419 -48 OFFCURVE",
"369 -76 OFFCURVE",
"299 -76 CURVE SMOOTH",
"282 -76 OFFCURVE",
"253 -74 OFFCURVE",
"227 -70 CURVE",
"211 -218 LINE",
"247 -226 OFFCURVE",
"285 -229 OFFCURVE",
"316 -229 CURVE SMOOTH"
);
}
);
width = 668;
}
);
leftKerningGroup = y;
rightKerningGroup = y;
unicode = 0079;
},
{
color = 3;
glyphname = z;
layers = (
{
anchors = (
{
name = bottom;
position = "{245, 0}";
},
{
name = top;
position = "{246, 501}";
}
);
background = {
anchors = (
{
name = bottom;
position = "{245, 0}";
},
{
name = top;
position = "{246, 501}";
}
);
paths = (
{
closed = 1;
nodes = (
"31 107 LINE",
"207 373 LINE",
"38 373 LINE",
"38 501 LINE",
"454 501 LINE",
"454 393 LINE",
"298 128 LINE",
"458 128 LINE",
"458 0 LINE",
"31 0 LINE"
);
}
);
};
hints = (
{
horizontal = 1;
place = "{0, 128}";
},
{
horizontal = 1;
place = "{373, 128}";
}
);
layerId = UUID0;
paths = (
{
closed = 1;
nodes = (
"458 0 LINE",
"458 128 LINE",
"287 128 LINE",
"454 393 LINE",
"454 501 LINE",
"38 501 LINE",
"38 373 LINE",
"207 373 LINE",
"31 107 LINE",
"31 0 LINE"
);
}
);
width = 490;
}
);
leftKerningGroup = z;
rightKerningGroup = z;
unicode = 007A;
},
{
glyphname = Aacute;
layers = (
{
background = {
anchors = (
{
name = bottom;
position = "{352, 0}";
},
{
name = ogonek;
position = "{698, 0}";
},
{
name = top;
position = "{347, 688}";
}
);
paths = (
{
closed = 1;
nodes = (
"286 870 LINE",
"579 1075 LINE",
"680 896 LINE",
"347 763 LINE"
);
},
{
closed = 1;
nodes = (
"195 688 LINE",
"499 688 LINE",
"698 0 LINE",
"463 0 LINE",
"437 132 LINE",
"259 132 LINE",
"230 0 LINE",
"5 0 LINE"
);
},
{
closed = 1;
nodes = (
"413 255 LINE",
"348 556 LINE",
"280 255 LINE"
);
}
);
};
components = (
{
name = A;
},
{
name = acutecomb.case;
transform = "{1, 0, 0, 1, 47, 0}";
}
);
hints = (
{
horizontal = 1;
place = "{763, 21}";
target = up;
type = BottomGhost;
},
{
horizontal = 1;
place = "{1075, -20}";
target = down;
type = TopGhost;
},
{
horizontal = 1;
place = "{132, 123}";
},
{
horizontal = 1;
place = "{0, 21}";
target = up;
type = BottomGhost;
},
{
horizontal = 1;
place = "{688, -20}";
target = down;
type = TopGhost;
}
);
layerId = UUID0;
width = 699;
}
);
leftKerningGroup = A;
rightKerningGroup = A;
unicode = 00C1;
},
{
glyphname = Abreve;
layers = (
{
background = {
anchors = (
{
name = bottom;
position = "{352, 0}";
},
{
name = ogonek;
position = "{698, 0}";
},
{
name = top;
position = "{347, 688}";
}
);
paths = (
{
closed = 1;
nodes = (
"519 933 LINE",
"519 830 OFFCURVE",
"448 763 OFFCURVE",
"348 763 CURVE SMOOTH",
"246 763 OFFCURVE",
"176 833 OFFCURVE",
"176 933 CURVE",
"287 933 LINE",
"287 898 OFFCURVE",
"312 873 OFFCURVE",
"348 873 CURVE SMOOTH",
"384 873 OFFCURVE",
"406 896 OFFCURVE",
"406 933 CURVE"
);
},
{
closed = 1;
nodes = (
"195 688 LINE",
"499 688 LINE",
"698 0 LINE",
"463 0 LINE",
"437 132 LINE",
"259 132 LINE",
"230 0 LINE",
"5 0 LINE"
);
},
{
closed = 1;
nodes = (
"413 255 LINE",
"348 556 LINE",
"280 255 LINE"
);
}
);
};
components = (
{
name = A;
},
{
name = brevecomb.case;
transform = "{1, 0, 0, 1, 47, 0}";
}
);
hints = (
{
horizontal = 1;
place = "{763, 110}";
},
{
horizontal = 1;
place = "{763, 171}";
},
{
horizontal = 1;
place = "{132, 123}";
},
{
horizontal = 1;
place = "{0, 21}";
target = up;
type = BottomGhost;
},
{
horizontal = 1;
place = "{688, -20}";
target = down;
type = TopGhost;
}
);
layerId = UUID0;
width = 699;
}
);
leftKerningGroup = A;
rightKerningGroup = A;
unicode = 0102;
},
{
glyphname = Acircumflex;
layers = (
{
background = {
anchors = (
{
name = bottom;
position = "{352, 0}";
},
{
name = ogonek;
position = "{698, 0}";
},
{
name = top;
position = "{347, 688}";
}
);
paths = (
{
closed = 1;
nodes = (
"254 1011 LINE",
"439 1011 LINE",
"562 762 LINE",
"396 762 LINE",
"358 868 LINE",
"346 906 LINE",
"336 868 LINE",
"297 762 LINE",
"131 762 LINE"
);
},
{
closed = 1;
nodes = (
"195 688 LINE",
"499 688 LINE",
"698 0 LINE",
"463 0 LINE",
"437 132 LINE",
"259 132 LINE",
"230 0 LINE",
"5 0 LINE"
);
},
{
closed = 1;
nodes = (
"413 255 LINE",
"348 556 LINE",
"280 255 LINE"
);
}
);
};
components = (
{
name = A;
},
{
name = circumflexcomb.case;
transform = "{1, 0, 0, 1, 47, 0}";
}
);
hints = (
{
horizontal = 1;
place = "{762, 249}";
},
{
horizontal = 1;
place = "{132, 123}";
},
{
horizontal = 1;
place = "{0, 21}";
target = up;
type = BottomGhost;
},
{
horizontal = 1;
place = "{688, -20}";
target = down;
type = TopGhost;
}
);
layerId = UUID0;
width = 699;
}
);
leftKerningGroup = A;
rightKerningGroup = A;
unicode = 00C2;
},
{
glyphname = Adblgrave;
layers = (
{
background = {
anchors = (
{
name = bottom;
position = "{352, 0}";
},
{
name = ogonek;
position = "{698, 0}";
},
{
name = top;
position = "{347, 688}";
}
);
paths = (
{
closed = 1;
nodes = (
"313 1090 LINE",
"510 1147 LINE",
"580 797 LINE",
"461 763 LINE"
);
},
{
closed = 1;
nodes = (
"33 1058 LINE",
"216 1149 LINE",
"347 816 LINE",
"235 762 LINE"
);
},
{
closed = 1;
nodes = (
"195 688 LINE",
"499 688 LINE",
"698 0 LINE",
"463 0 LINE",
"437 132 LINE",
"259 132 LINE",
"230 0 LINE",
"5 0 LINE"
);
},
{
closed = 1;
nodes = (
"413 255 LINE",
"348 556 LINE",
"280 255 LINE"
);
}
);
};
components = (
{
name = A;
},
{
name = dblgravecomb.case;
transform = "{1, 0, 0, 1, 47, 0}";
}
);
hints = (
{
horizontal = 1;
place = "{762, 21}";
target = up;
type = BottomGhost;
},
{
horizontal = 1;
place = "{1149, -20}";
target = down;
type = TopGhost;
},
{
horizontal = 1;
place = "{132, 123}";
},
{
horizontal = 1;
place = "{0, 21}";
target = up;
type = BottomGhost;
},
{
horizontal = 1;
place = "{688, -20}";
target = down;
type = TopGhost;
}
);
layerId = UUID0;
width = 699;
}
);
leftKerningGroup = A;
rightKerningGroup = A;
unicode = 0200;
},
{
glyphname = Adieresis;
layers = (
{
background = {
anchors = (
{
name = bottom;
position = "{352, 0}";
},
{
name = ogonek;
position = "{698, 0}";
},
{
name = top;
position = "{347, 688}";
}
);
paths = (
{
closed = 1;
nodes = (
"386 922 OFFCURVE",
"442 964 OFFCURVE",
"499 964 CURVE SMOOTH",
"567 964 OFFCURVE",
"610 911 OFFCURVE",
"610 862 CURVE SMOOTH",
"610 804 OFFCURVE",
"557 762 OFFCURVE",
"499 762 CURVE SMOOTH",
"432 762 OFFCURVE",
"386 810 OFFCURVE",
"386 862 CURVE SMOOTH"
);
},
{
closed = 1;
nodes = (
"84 920 OFFCURVE",
"138 964 OFFCURVE",
"196 964 CURVE SMOOTH",
"258 964 OFFCURVE",
"309 916 OFFCURVE",
"309 862 CURVE SMOOTH",
"309 802 OFFCURVE",
"253 762 OFFCURVE",
"196 762 CURVE SMOOTH",
"134 762 OFFCURVE",
"84 806 OFFCURVE",
"84 862 CURVE SMOOTH"
);
},
{
closed = 1;
nodes = (
"195 688 LINE",
"499 688 LINE",
"698 0 LINE",
"463 0 LINE",
"437 132 LINE",
"259 132 LINE",
"230 0 LINE",
"5 0 LINE"
);
},
{
closed = 1;
nodes = (
"413 255 LINE",
"348 556 LINE",
"280 255 LINE"
);
}
);
};
components = (
{
name = A;
},
{
name = dieresiscomb.case;
transform = "{1, 0, 0, 1, 47, 0}";
}
);
hints = (
{
horizontal = 1;
place = "{762, 202}";
},
{
horizontal = 1;
place = "{132, 123}";
},
{
horizontal = 1;
place = "{0, 21}";
target = up;
type = BottomGhost;
},
{
horizontal = 1;
place = "{688, -20}";
target = down;
type = TopGhost;
}
);
layerId = UUID0;
width = 699;
}
);
leftKerningGroup = A;
rightKerningGroup = A;
unicode = 00C4;
},
{
glyphname = Agrave;
layers = (
{
background = {
anchors = (
{
name = bottom;
position = "{352, 0}";
},
{
name = ogonek;
position = "{698, 0}";
},
{
name = top;
position = "{347, 688}";
}
);
paths = (
{
closed = 1;
nodes = (
"116 1075 LINE",
"409 870 LINE",
"348 763 LINE",
"15 896 LINE"
);
},
{
closed = 1;
nodes = (
"195 688 LINE",
"499 688 LINE",
"698 0 LINE",
"463 0 LINE",
"437 132 LINE",
"259 132 LINE",
"230 0 LINE",
"5 0 LINE"
);
},
{
closed = 1;
nodes = (
"413 255 LINE",
"348 556 LINE",
"280 255 LINE"
);
}
);
};
components = (
{
name = A;
},
{
name = gravecomb.case;
transform = "{1, 0, 0, 1, 47, 0}";
}
);
hints = (
{
horizontal = 1;
place = "{763, 21}";
target = up;
type = BottomGhost;
},
{
horizontal = 1;
place = "{1075, -20}";
target = down;
type = TopGhost;
},
{
horizontal = 1;
place = "{132, 123}";
},
{
horizontal = 1;
place = "{0, 21}";
target = up;
type = BottomGhost;
},
{
horizontal = 1;
place = "{688, -20}";
target = down;
type = TopGhost;
}
);
layerId = UUID0;
width = 699;
}
);
leftKerningGroup = A;
rightKerningGroup = A;
unicode = 00C0;
},
{
glyphname = Ainvertedbreve;
layers = (
{
background = {
anchors = (
{
name = bottom;
position = "{352, 0}";
},
{
name = ogonek;
position = "{698, 0}";
},
{
name = top;
position = "{347, 688}";
}
);
paths = (
{
closed = 1;
nodes = (
"409 762 LINE",
"409 798 OFFCURVE",
"382 824 OFFCURVE",
"347 824 CURVE SMOOTH",
"312 824 OFFCURVE",
"286 798 OFFCURVE",
"286 762 CURVE",
"165 762 LINE",
"165 875 OFFCURVE",
"241 948 OFFCURVE",
"347 948 CURVE SMOOTH",
"456 948 OFFCURVE",
"529 871 OFFCURVE",
"529 762 CURVE"
);
},
{
closed = 1;
nodes = (
"195 688 LINE",
"499 688 LINE",
"698 0 LINE",
"463 0 LINE",
"437 132 LINE",
"259 132 LINE",
"230 0 LINE",
"5 0 LINE"
);
},
{
closed = 1;
nodes = (
"413 255 LINE",
"348 556 LINE",
"280 255 LINE"
);
}
);
};
components = (
{
name = A;
},
{
name = breveinvertedcomb.case;
transform = "{1, 0, 0, 1, 47, 0}";
}
);
hints = (
{
horizontal = 1;
place = "{762, 186}";
},
{
horizontal = 1;
place = "{824, 124}";
},
{
horizontal = 1;
place = "{132, 123}";
},
{
horizontal = 1;
place = "{0, 21}";
target = up;
type = BottomGhost;
},
{
horizontal = 1;
place = "{688, -20}";
target = down;
type = TopGhost;
}
);
layerId = UUID0;
width = 699;
}
);
leftKerningGroup = A;
rightKerningGroup = A;
unicode = 0202;
},
{
glyphname = Amacron;
layers = (
{
background = {
anchors = (
{
name = bottom;
position = "{352, 0}";
},
{
name = ogonek;
position = "{698, 0}";
},
{
name = top;
position = "{347, 688}";
}
);
paths = (
{
closed = 1;
nodes = (
"213 880 LINE",
"482 880 LINE",
"482 762 LINE",
"213 762 LINE"
);
},
{
closed = 1;
nodes = (
"195 688 LINE",
"499 688 LINE",
"698 0 LINE",
"463 0 LINE",
"437 132 LINE",
"259 132 LINE",
"230 0 LINE",
"5 0 LINE"
);
},
{
closed = 1;
nodes = (
"413 255 LINE",
"348 556 LINE",
"280 255 LINE"
);
}
);
};
components = (
{
name = A;
},
{
name = macroncomb.case;
transform = "{1, 0, 0, 1, 47, 0}";
}
);
hints = (
{
horizontal = 1;
place = "{762, 118}";
},
{
horizontal = 1;
place = "{132, 123}";
},
{
horizontal = 1;
place = "{0, 21}";
target = up;
type = BottomGhost;
},
{
horizontal = 1;
place = "{688, -20}";
target = down;
type = TopGhost;
}
);
layerId = UUID0;
width = 699;
}
);
leftKerningGroup = A;
rightKerningGroup = A;
unicode = 0100;
},
{
glyphname = Aogonek;
layers = (
{
background = {
anchors = (
{
name = bottom;
position = "{352, 0}";
},
{
name = ogonek;
position = "{698, 0}";
},
{
name = top;
position = "{347, 688}";
}
);
paths = (
{
closed = 1;
nodes = (
"500 -188 OFFCURVE",
"516 -186 OFFCURVE",
"538 -181 CURVE",
"539 -219 LINE",
"504 -233 OFFCURVE",
"472 -240 OFFCURVE",
"442 -240 CURVE SMOOTH",
"381 -240 OFFCURVE",
"333 -211 OFFCURVE",
"333 -154 CURVE SMOOTH",
"333 -108 OFFCURVE",
"378 -67 OFFCURVE",
"413 -37 CURVE SMOOTH",
"441 -14 LINE SMOOTH",
"454 -3 OFFCURVE",
"463 3 OFFCURVE",
"468 8 CURVE",
"522 8 LINE",
"501 -35 OFFCURVE",
"481 -72 OFFCURVE",
"460 -102 CURVE",
"450 -117 LINE SMOOTH",
"446 -122 OFFCURVE",
"441 -139 OFFCURVE",
"441 -152 CURVE SMOOTH",
"441 -176 OFFCURVE",
"458 -188 OFFCURVE",
"491 -188 CURVE SMOOTH"
);
},
{
closed = 1;
nodes = (
"195 688 LINE",
"499 688 LINE",
"698 0 LINE",
"463 0 LINE",
"437 132 LINE",
"259 132 LINE",
"230 0 LINE",
"5 0 LINE"
);
},
{
closed = 1;
nodes = (
"413 255 LINE",
"348 556 LINE",
"280 255 LINE"
);
}
);
};
components = (
{
name = A;
},
{
name = ogonekcomb;
transform = "{1, 0, 0, 1, 398, 0}";
}
);
hints = (
{
horizontal = 1;
place = "{-240, 52}";
},
{
horizontal = 1;
place = "{8, -20}";
target = down;
type = TopGhost;
},
{
horizontal = 1;
place = "{132, 123}";
},
{
horizontal = 1;
place = "{0, 21}";
target = up;
type = BottomGhost;
},
{
horizontal = 1;
place = "{688, -20}";
target = down;
type = TopGhost;
}
);
layerId = UUID0;
width = 699;
}
);
leftKerningGroup = A;
rightKerningGroup = A;
unicode = 0104;
},
{
color = 3;
glyphname = Aring;
layers = (
{
background = {
paths = (
{
closed = 1;
nodes = (
"195 688 LINE",
"499 688 LINE",
"698 0 LINE",
"463 0 LINE",
"437 132 LINE",
"259 132 LINE",
"230 0 LINE",
"5 0 LINE"
);
},
{
closed = 1;
nodes = (
"413 255 LINE",
"348 556 LINE",
"280 255 LINE"
);
},
{
closed = 1;
nodes = (
"311 834 OFFCURVE",
"287 808 OFFCURVE",
"287 771 CURVE SMOOTH",
"287 734 OFFCURVE",
"312 711 OFFCURVE",
"348 711 CURVE SMOOTH",
"385 711 OFFCURVE",
"406 734 OFFCURVE",
"406 771 CURVE SMOOTH",
"406 809 OFFCURVE",
"382 834 OFFCURVE",
"346 834 CURVE SMOOTH"
);
},
{
closed = 1;
nodes = (
"176 876 OFFCURVE",
"249 944 OFFCURVE",
"348 944 CURVE SMOOTH",
"456 944 OFFCURVE",
"519 867 OFFCURVE",
"519 771 CURVE SMOOTH",
"519 668 OFFCURVE",
"448 601 OFFCURVE",
"348 601 CURVE SMOOTH",
"246 601 OFFCURVE",
"176 671 OFFCURVE",
"176 771 CURVE SMOOTH"
);
}
);
};
hints = (
{
horizontal = 1;
place = "{717, 110}";
},
{
horizontal = 1;
place = "{950, 110}";
},
{
horizontal = 1;
place = "{132, 123}";
},
{
horizontal = 1;
place = "{0, 21}";
target = up;
type = BottomGhost;
},
{
horizontal = 1;
place = "{688, -20}";
target = down;
type = TopGhost;
},
{
horizontal = 1;
place = "{132, 123}";
},
{
horizontal = 1;
place = "{0, 21}";
target = up;
type = BottomGhost;
},
{
horizontal = 1;
place = "{688, -20}";
target = down;
type = TopGhost;
},
{
horizontal = 1;
place = "{345, 59}";
},
{
horizontal = 1;
place = "{578, 59}";
}
);
layerId = UUID0;
paths = (
{
closed = 1;
nodes = (
"230 0 LINE",
"259 132 LINE",
"437 132 LINE",
"463 0 LINE",
"698 0 LINE",
"499 687 LINE",
"512 710 OFFCURVE",
"520 739 OFFCURVE",
"520 771 CURVE SMOOTH",
"520 867 OFFCURVE",
"456 944 OFFCURVE",
"348 944 CURVE SMOOTH",
"249 944 OFFCURVE",
"175 876 OFFCURVE",
"175 771 CURVE SMOOTH",
"175 740 OFFCURVE",
"183 712 OFFCURVE",
"195 688 CURVE",
"5 0 LINE"
);
},
{
closed = 1;
nodes = (
"348 556 LINE",
"413 255 LINE",
"280 255 LINE"
);
},
{
closed = 1;
nodes = (
"312 706 OFFCURVE",
"287 732 OFFCURVE",
"287 771 CURVE SMOOTH",
"287 813 OFFCURVE",
"311 838 OFFCURVE",
"346 838 CURVE SMOOTH",
"382 838 OFFCURVE",
"406 813 OFFCURVE",
"406 771 CURVE SMOOTH",
"406 732 OFFCURVE",
"385 706 OFFCURVE",
"348 706 CURVE SMOOTH"
);
}
);
width = 699;
}
);
leftKerningGroup = A;
rightKerningGroup = A;
unicode = 00C5;
},
{
glyphname = Atilde;
layers = (
{
background = {
anchors = (
{
name = bottom;
position = "{352, 0}";
},
{
name = ogonek;
position = "{698, 0}";
},
{
name = top;
position = "{347, 688}";
}
);
paths = (
{
closed = 1;
nodes = (
"246 818 OFFCURVE",
"233 791 OFFCURVE",
"223 765 CURVE",
"105 813 LINE",
"145 924 OFFCURVE",
"209 987 OFFCURVE",
"277 987 CURVE SMOOTH",
"297 987 OFFCURVE",
"320 978 OFFCURVE",
"331 973 CURVE",
"354 959 LINE",
"356 958 OFFCURVE",
"359 956 OFFCURVE",
"364 953 CURVE",
"385 941 LINE",
"396 935 OFFCURVE",
"408 931 OFFCURVE",
"423 931 CURVE SMOOTH",
"446 931 OFFCURVE",
"462 947 OFFCURVE",
"472 976 CURVE",
"590 929 LINE",
"549 813 OFFCURVE",
"495 763 OFFCURVE",
"427 763 CURVE SMOOTH",
"351 763 OFFCURVE",
"325 818 OFFCURVE",
"276 818 CURVE SMOOTH"
);
},
{
closed = 1;
nodes = (
"195 688 LINE",
"499 688 LINE",
"698 0 LINE",
"463 0 LINE",
"437 132 LINE",
"259 132 LINE",
"230 0 LINE",
"5 0 LINE"
);
},
{
closed = 1;
nodes = (
"413 255 LINE",
"348 556 LINE",
"280 255 LINE"
);
}
);
};
components = (
{
name = A;
},
{
name = tildecomb.case;
transform = "{1, 0, 0, 1, 47, 0}";
}
);
hints = (
{
horizontal = 1;
place = "{763, 169}";
},
{
horizontal = 1;
place = "{818, 169}";
},
{
horizontal = 1;
place = "{132, 123}";
},
{
horizontal = 1;
place = "{0, 21}";
target = up;
type = BottomGhost;
},
{
horizontal = 1;
place = "{688, -20}";
target = down;
type = TopGhost;
}
);
layerId = UUID0;
width = 699;
}
);
leftKerningGroup = A;
rightKerningGroup = A;
unicode = 00C3;
},
{
glyphname = Cacute;
layers = (
{
background = {
anchors = (
{
name = bottom;
position = "{305, 0}";
},
{
name = top;
position = "{305, 688}";
}
);
paths = (
{
closed = 1;
nodes = (
"181 870 LINE",
"474 1075 LINE",
"575 896 LINE",
"242 763 LINE"
);
},
{
closed = 1;
nodes = (
"473 165 OFFCURVE",
"502 174 OFFCURVE",
"551 193 CURVE",
"579 35 LINE",
"521 1 OFFCURVE",
"458 -16 OFFCURVE",
"389 -16 CURVE SMOOTH",
"292 -16 OFFCURVE",
"209 17 OFFCURVE",
"141 82 CURVE SMOOTH",
"68 150 OFFCURVE",
"31 237 OFFCURVE",
"31 344 CURVE SMOOTH",
"31 553 OFFCURVE",
"183 703 OFFCURVE",
"383 703 CURVE SMOOTH",
"455 703 OFFCURVE",
"520 686 OFFCURVE",
"578 653 CURVE",
"551 498 LINE",
"503 516 OFFCURVE",
"460 525 OFFCURVE",
"421 525 CURVE SMOOTH",
"313 525 OFFCURVE",
"255 459 OFFCURVE",
"255 345 CURVE SMOOTH",
"255 232 OFFCURVE",
"318 165 OFFCURVE",
"427 165 CURVE SMOOTH"
);
}
);
};
components = (
{
name = C;
},
{
name = acutecomb.case;
transform = "{1, 0, 0, 1, 55, 0}";
}
);
hints = (
{
horizontal = 1;
place = "{763, 21}";
target = up;
type = BottomGhost;
},
{
horizontal = 1;
place = "{1075, -20}";
target = down;
type = TopGhost;
},
{
horizontal = 1;
place = "{-16, 181}";
},
{
horizontal = 1;
place = "{525, 178}";
}
);
layerId = UUID0;
width = 604;
}
);
leftKerningGroup = C;
rightKerningGroup = C;
unicode = 0106;
},
{
glyphname = Ccaron;
layers = (
{
background = {
anchors = (
{
name = bottom;
position = "{305, 0}";
},
{
name = top;
position = "{305, 688}";
}
);
paths = (
{
closed = 1;
nodes = (
"168 1011 LINE",
"334 1011 LINE",
"373 904 LINE",
"383 865 LINE",
"394 900 OFFCURVE",
"421 974 OFFCURVE",
"433 1011 CURVE",
"599 1011 LINE",
"476 762 LINE",
"291 762 LINE"
);
},
{
closed = 1;
nodes = (
"473 165 OFFCURVE",
"502 174 OFFCURVE",
"551 193 CURVE",
"579 35 LINE",
"521 1 OFFCURVE",
"458 -16 OFFCURVE",
"389 -16 CURVE SMOOTH",
"292 -16 OFFCURVE",
"209 17 OFFCURVE",
"141 82 CURVE SMOOTH",
"68 150 OFFCURVE",
"31 237 OFFCURVE",
"31 344 CURVE SMOOTH",
"31 553 OFFCURVE",
"183 703 OFFCURVE",
"383 703 CURVE SMOOTH",
"455 703 OFFCURVE",
"520 686 OFFCURVE",
"578 653 CURVE",
"551 498 LINE",
"503 516 OFFCURVE",
"460 525 OFFCURVE",
"421 525 CURVE SMOOTH",
"313 525 OFFCURVE",
"255 459 OFFCURVE",
"255 345 CURVE SMOOTH",
"255 232 OFFCURVE",
"318 165 OFFCURVE",
"427 165 CURVE SMOOTH"
);
}
);
};
components = (
{
name = C;
},
{
name = caroncomb.case;
transform = "{1, 0, 0, 1, 55, 0}";
}
);
hints = (
{
horizontal = 1;
place = "{762, 249}";
},
{
horizontal = 1;
place = "{-16, 181}";
},
{
horizontal = 1;
place = "{525, 178}";
}
);
layerId = UUID0;
width = 604;
}
);
leftKerningGroup = C;
rightKerningGroup = C;
unicode = 010C;
},
{
glyphname = Ccedilla;
layers = (
{
background = {
anchors = (
{
name = bottom;
position = "{305, 0}";
},
{
name = top;
position = "{305, 688}";
}
);
paths = (
{
closed = 1;
nodes = (
"392 -110 OFFCURVE",
"369 -95 OFFCURVE",
"334 -95 CURVE SMOOTH",
"332 -95 LINE",
"361 -7 LINE",
"417 -7 LINE",
"397 -64 LINE",
"462 -71 OFFCURVE",
"501 -97 OFFCURVE",
"501 -142 CURVE SMOOTH",
"501 -222 OFFCURVE",
"410 -255 OFFCURVE",
"356 -255 CURVE SMOOTH",
"328 -255 OFFCURVE",
"298 -248 OFFCURVE",
"269 -234 CURVE",
"282 -196 LINE",
"299 -201 OFFCURVE",
"314 -203 OFFCURVE",
"327 -203 CURVE SMOOTH",
"370 -203 OFFCURVE",
"392 -182 OFFCURVE",
"392 -141 CURVE SMOOTH"
);
},
{
closed = 1;
nodes = (
"473 165 OFFCURVE",
"502 174 OFFCURVE",
"551 193 CURVE",
"579 35 LINE",
"521 1 OFFCURVE",
"458 -16 OFFCURVE",
"389 -16 CURVE SMOOTH",
"292 -16 OFFCURVE",
"209 17 OFFCURVE",
"141 82 CURVE SMOOTH",
"68 150 OFFCURVE",
"31 237 OFFCURVE",
"31 344 CURVE SMOOTH",
"31 553 OFFCURVE",
"183 703 OFFCURVE",
"383 703 CURVE SMOOTH",
"455 703 OFFCURVE",
"520 686 OFFCURVE",
"578 653 CURVE",
"551 498 LINE",
"503 516 OFFCURVE",
"460 525 OFFCURVE",
"421 525 CURVE SMOOTH",
"313 525 OFFCURVE",
"255 459 OFFCURVE",
"255 345 CURVE SMOOTH",
"255 232 OFFCURVE",
"318 165 OFFCURVE",
"427 165 CURVE SMOOTH"
);
}
);
};
components = (
{
name = C;
},
{
name = cedillacomb;
transform = "{1, 0, 0, 1, 55, 0}";
}
);
hints = (
{
horizontal = 1;
place = "{-255, 52}";
},
{
horizontal = 1;
place = "{-7, -20}";
target = down;
type = TopGhost;
},
{
horizontal = 1;
place = "{-16, 181}";
},
{
horizontal = 1;
place = "{525, 178}";
}
);
layerId = UUID0;
width = 604;
}
);
leftKerningGroup = C;
rightKerningGroup = C;
unicode = 00C7;
},
{
glyphname = Ccircumflex;
layers = (
{
background = {
anchors = (
{
name = bottom;
position = "{305, 0}";
},
{
name = top;
position = "{305, 688}";
}
);
paths = (
{
closed = 1;
nodes = (
"291 1011 LINE",
"476 1011 LINE",
"599 762 LINE",
"433 762 LINE",
"395 868 LINE",
"383 906 LINE",
"373 868 LINE",
"334 762 LINE",
"168 762 LINE"
);
},
{
closed = 1;
nodes = (
"473 165 OFFCURVE",
"502 174 OFFCURVE",
"551 193 CURVE",
"579 35 LINE",
"521 1 OFFCURVE",
"458 -16 OFFCURVE",
"389 -16 CURVE SMOOTH",
"292 -16 OFFCURVE",
"209 17 OFFCURVE",
"141 82 CURVE SMOOTH",
"68 150 OFFCURVE",
"31 237 OFFCURVE",
"31 344 CURVE SMOOTH",
"31 553 OFFCURVE",
"183 703 OFFCURVE",
"383 703 CURVE SMOOTH",
"455 703 OFFCURVE",
"520 686 OFFCURVE",
"578 653 CURVE",
"551 498 LINE",
"503 516 OFFCURVE",
"460 525 OFFCURVE",
"421 525 CURVE SMOOTH",
"313 525 OFFCURVE",
"255 459 OFFCURVE",
"255 345 CURVE SMOOTH",
"255 232 OFFCURVE",
"318 165 OFFCURVE",
"427 165 CURVE SMOOTH"
);
}
);
};
components = (
{
name = C;
},
{
name = circumflexcomb.case;
transform = "{1, 0, 0, 1, 55, 0}";
}
);
hints = (
{
horizontal = 1;
place = "{762, 249}";
},
{
horizontal = 1;
place = "{-16, 181}";
},
{
horizontal = 1;
place = "{525, 178}";
}
);
layerId = UUID0;
width = 604;
}
);
leftKerningGroup = C;
rightKerningGroup = C;
unicode = 0108;
},
{
glyphname = Cdotaccent;
layers = (
{
background = {
anchors = (
{
name = bottom;
position = "{305, 0}";
},
{
name = top;
position = "{305, 688}";
}
);
paths = (
{
closed = 1;
nodes = (
"271 923 OFFCURVE",
"326 965 OFFCURVE",
"383 965 CURVE SMOOTH",
"444 965 OFFCURVE",
"496 918 OFFCURVE",
"496 864 CURVE SMOOTH",
"496 803 OFFCURVE",
"440 762 OFFCURVE",
"383 762 CURVE SMOOTH",
"321 762 OFFCURVE",
"271 807 OFFCURVE",
"271 864 CURVE SMOOTH"
);
},
{
closed = 1;
nodes = (
"473 165 OFFCURVE",
"502 174 OFFCURVE",
"551 193 CURVE",
"579 35 LINE",
"521 1 OFFCURVE",
"458 -16 OFFCURVE",
"389 -16 CURVE SMOOTH",
"292 -16 OFFCURVE",
"209 17 OFFCURVE",
"141 82 CURVE SMOOTH",
"68 150 OFFCURVE",
"31 237 OFFCURVE",
"31 344 CURVE SMOOTH",
"31 553 OFFCURVE",
"183 703 OFFCURVE",
"383 703 CURVE SMOOTH",
"455 703 OFFCURVE",
"520 686 OFFCURVE",
"578 653 CURVE",
"551 498 LINE",
"503 516 OFFCURVE",
"460 525 OFFCURVE",
"421 525 CURVE SMOOTH",
"313 525 OFFCURVE",
"255 459 OFFCURVE",
"255 345 CURVE SMOOTH",
"255 232 OFFCURVE",
"318 165 OFFCURVE",
"427 165 CURVE SMOOTH"
);
}
);
};
components = (
{
name = C;
},
{
name = dotaccentcomb.case;
transform = "{1, 0, 0, 1, 55, 0}";
}
);
hints = (
{
horizontal = 1;
place = "{762, 202}";
},
{
horizontal = 1;
place = "{-16, 181}";
},
{
horizontal = 1;
place = "{525, 178}";
}
);
layerId = UUID0;
width = 604;
}
);
leftKerningGroup = C;
rightKerningGroup = C;
unicode = 010A;
},
{
color = 3;
glyphname = Eth;
layers = (
{
background = {
paths = (
{
closed = 1;
nodes = (
"389 0 LINE SMOOTH",
"608 0 OFFCURVE",
"757 145 OFFCURVE",
"757 341 CURVE SMOOTH",
"757 532 OFFCURVE",
"607 672 OFFCURVE",
"389 672 CURVE SMOOTH",
"90 672 LINE",
"90 387 LINE",
"0 387 LINE",
"0 302 LINE",
"90 302 LINE",
"90 0 LINE"
);
},
{
closed = 1;
nodes = (
"311 302 LINE",
"390 302 LINE",
"390 387 LINE",
"311 387 LINE",
"311 492 LINE",
"389 492 LINE SMOOTH",
"471 492 OFFCURVE",
"533 431 OFFCURVE",
"533 343 CURVE SMOOTH",
"533 252 OFFCURVE",
"478 180 OFFCURVE",
"389 180 CURVE SMOOTH",
"311 180 LINE"
);
}
);
};
hints = (
{
horizontal = 1;
place = "{0, 180}";
},
{
horizontal = 1;
place = "{302, 85}";
},
{
horizontal = 1;
place = "{492, 180}";
}
);
layerId = UUID0;
paths = (
{
closed = 1;
nodes = (
"91 688 LINE",
"91 387 LINE",
"0 387 LINE",
"0 302 LINE",
"91 302 LINE",
"91 0 LINE",
"390 0 LINE SMOOTH",
"613 0 OFFCURVE",
"758 140 OFFCURVE",
"758 349 CURVE SMOOTH",
"758 546 OFFCURVE",
"612 688 OFFCURVE",
"390 688 CURVE SMOOTH"
);
},
{
closed = 1;
nodes = (
"311 180 LINE",
"311 302 LINE",
"390 302 LINE",
"390 387 LINE",
"311 387 LINE",
"311 508 LINE",
"379 508 LINE SMOOTH",
"485 508 OFFCURVE",
"533 443 OFFCURVE",
"533 351 CURVE SMOOTH",
"533 254 OFFCURVE",
"483 180 OFFCURVE",
"379 180 CURVE SMOOTH"
);
}
);
width = 790;
}
);
leftKerningGroup = B;
rightKerningGroup = D;
unicode = 00D0;
},
{
glyphname = Dcaron;
layers = (
{
background = {
anchors = (
{
name = bottom;
position = "{382, 0}";
},
{
name = center;
position = "{382, 344}";
},
{
name = top;
position = "{382, 688}";
}
);
paths = (
{
closed = 1;
nodes = (
"183 1011 LINE",
"349 1011 LINE",
"388 904 LINE",
"398 865 LINE",
"409 900 OFFCURVE",
"436 974 OFFCURVE",
"448 1011 CURVE",
"614 1011 LINE",
"491 762 LINE",
"306 762 LINE"
);
},
{
closed = 1;
nodes = (
"65 688 LINE",
"364 688 LINE SMOOTH",
"586 688 OFFCURVE",
"732 546 OFFCURVE",
"732 349 CURVE SMOOTH",
"732 140 OFFCURVE",
"587 0 OFFCURVE",
"364 0 CURVE SMOOTH",
"65 0 LINE"
);
},
{
closed = 1;
nodes = (
"364 180 LINE SMOOTH",
"464 180 OFFCURVE",
"508 275 OFFCURVE",
"508 351 CURVE SMOOTH",
"508 442 OFFCURVE",
"449 508 OFFCURVE",
"364 508 CURVE SMOOTH",
"286 508 LINE",
"286 180 LINE"
);
}
);
};
components = (
{
name = D;
},
{
name = caroncomb.case;
transform = "{1, 0, 0, 1, 82, 0}";
}
);
hints = (
{
horizontal = 1;
place = "{762, 249}";
},
{
horizontal = 1;
place = "{0, 180}";
},
{
horizontal = 1;
place = "{508, 180}";
}
);
layerId = UUID0;
width = 764;
}
);
leftKerningGroup = B;
rightKerningGroup = D;
unicode = 010E;
},
{
glyphname = Dcroat;
layers = (
{
background = {
paths = (
{
closed = 1;
nodes = (
"38 374 LINE",
"65 374 LINE",
"65 672 LINE",
"364 672 LINE SMOOTH",
"582 672 OFFCURVE",
"732 534 OFFCURVE",
"732 341 CURVE SMOOTH",
"732 248 OFFCURVE",
"702 169 OFFCURVE",
"640 105 CURVE SMOOTH",
"572 35 OFFCURVE",
"480 0 OFFCURVE",
"364 0 CURVE SMOOTH",
"65 0 LINE",
"65 289 LINE",
"38 289 LINE"
);
},
{
closed = 1;
nodes = (
"364 180 LINE SMOOTH",
"453 180 OFFCURVE",
"508 252 OFFCURVE",
"508 343 CURVE SMOOTH",
"508 430 OFFCURVE",
"446 492 OFFCURVE",
"364 492 CURVE SMOOTH",
"286 492 LINE",
"286 374 LINE",
"351 374 LINE",
"351 289 LINE",
"286 289 LINE",
"286 180 LINE"
);
}
);
};
components = (
{
name = Eth;
}
);
hints = (
{
horizontal = 1;
place = "{0, 180}";
},
{
horizontal = 1;
place = "{289, 85}";
},
{
horizontal = 1;
place = "{492, 180}";
}
);
layerId = UUID0;
width = 790;
}
);
leftKerningGroup = B;
rightKerningGroup = D;
unicode = 0110;
},
{
glyphname = Eacute;
layers = (
{
background = {
anchors = (
{
name = bottom;
position = "{307, 0}";
},
{
name = ogonek;
position = "{548, 0}";
},
{
name = top;
position = "{307, 688}";
},
{
name = topleft;
position = "{20, 688}";
}
);
paths = (
{
closed = 1;
nodes = (
"245 870 LINE",
"538 1075 LINE",
"639 896 LINE",
"306 763 LINE"
);
},
{
closed = 1;
nodes = (
"65 688 LINE",
"548 688 LINE",
"548 536 LINE",
"308 536 LINE",
"308 411 LINE",
"527 411 LINE",
"527 285 LINE",
"308 285 LINE",
"308 150 LINE",
"548 150 LINE",
"548 0 LINE",
"65 0 LINE"
);
}
);
};
components = (
{
name = E;
},
{
name = acutecomb.case;
transform = "{1, 0, 0, 1, 7, 0}";
}
);
hints = (
{
horizontal = 1;
place = "{763, 21}";
target = up;
type = BottomGhost;
},
{
horizontal = 1;
place = "{1075, -20}";
target = down;
type = TopGhost;
},
{
horizontal = 1;
place = "{0, 150}";
},
{
horizontal = 1;
place = "{285, 126}";
},
{
horizontal = 1;
place = "{536, 151}";
}
);
layerId = UUID0;
width = 595;
}
);
leftKerningGroup = B;
rightKerningGroup = E;
unicode = 00C9;
},
{
glyphname = Ebreve;
layers = (
{
background = {
anchors = (
{
name = bottom;
position = "{307, 0}";
},
{
name = ogonek;
position = "{548, 0}";
},
{
name = top;
position = "{307, 688}";
},
{
name = topleft;
position = "{20, 688}";
}
);
paths = (
{
closed = 1;
nodes = (
"478 933 LINE",
"478 830 OFFCURVE",
"407 763 OFFCURVE",
"307 763 CURVE SMOOTH",
"205 763 OFFCURVE",
"135 833 OFFCURVE",
"135 933 CURVE",
"246 933 LINE",
"246 898 OFFCURVE",
"271 873 OFFCURVE",
"307 873 CURVE SMOOTH",
"343 873 OFFCURVE",
"365 896 OFFCURVE",
"365 933 CURVE"
);
},
{
closed = 1;
nodes = (
"65 688 LINE",
"548 688 LINE",
"548 536 LINE",
"308 536 LINE",
"308 411 LINE",
"527 411 LINE",
"527 285 LINE",
"308 285 LINE",
"308 150 LINE",
"548 150 LINE",
"548 0 LINE",
"65 0 LINE"
);
}
);
};
components = (
{
name = E;
},
{
name = brevecomb.case;
transform = "{1, 0, 0, 1, 7, 0}";
}
);
hints = (
{
horizontal = 1;
place = "{763, 110}";
},
{
horizontal = 1;
place = "{763, 171}";
},
{
horizontal = 1;
place = "{0, 150}";
},
{
horizontal = 1;
place = "{285, 126}";
},
{
horizontal = 1;
place = "{536, 151}";
}
);
layerId = UUID0;
width = 595;
}
);
leftKerningGroup = B;
rightKerningGroup = E;
unicode = 0114;
},
{
glyphname = Ecaron;
layers = (
{
background = {
anchors = (
{
name = bottom;
position = "{307, 0}";
},
{
name = ogonek;
position = "{548, 0}";
},
{
name = top;
position = "{307, 688}";
},
{
name = topleft;
position = "{20, 688}";
}
);
paths = (
{
closed = 1;
nodes = (
"91 1011 LINE",
"257 1011 LINE",
"296 904 LINE",
"306 865 LINE",
"317 900 OFFCURVE",
"344 974 OFFCURVE",
"356 1011 CURVE",
"522 1011 LINE",
"399 762 LINE",
"214 762 LINE"
);
},
{
closed = 1;
nodes = (
"65 688 LINE",
"548 688 LINE",
"548 536 LINE",
"308 536 LINE",
"308 411 LINE",
"527 411 LINE",
"527 285 LINE",
"308 285 LINE",
"308 150 LINE",
"548 150 LINE",
"548 0 LINE",
"65 0 LINE"
);
}
);
};
components = (
{
name = E;
},
{
name = caroncomb.case;
transform = "{1, 0, 0, 1, 7, 0}";
}
);
hints = (
{
horizontal = 1;
place = "{762, 249}";
},
{
horizontal = 1;
place = "{0, 150}";
},
{
horizontal = 1;
place = "{285, 126}";
},
{
horizontal = 1;
place = "{536, 151}";
}
);
layerId = UUID0;
width = 595;
}
);
leftKerningGroup = B;
rightKerningGroup = E;
unicode = 011A;
},
{
glyphname = Ecircumflex;
layers = (
{
background = {
anchors = (
{
name = bottom;
position = "{307, 0}";
},
{
name = ogonek;
position = "{548, 0}";
},
{
name = top;
position = "{307, 688}";
},
{
name = topleft;
position = "{20, 688}";
}
);
paths = (
{
closed = 1;
nodes = (
"214 1011 LINE",
"399 1011 LINE",
"522 762 LINE",
"356 762 LINE",
"318 868 LINE",
"306 906 LINE",
"296 868 LINE",
"257 762 LINE",
"91 762 LINE"
);
},
{
closed = 1;
nodes = (
"65 688 LINE",
"548 688 LINE",
"548 536 LINE",
"308 536 LINE",
"308 411 LINE",
"527 411 LINE",
"527 285 LINE",
"308 285 LINE",
"308 150 LINE",
"548 150 LINE",
"548 0 LINE",
"65 0 LINE"
);
}
);
};
components = (
{
name = E;
},
{
name = circumflexcomb.case;
transform = "{1, 0, 0, 1, 7, 0}";
}
);
hints = (
{
horizontal = 1;
place = "{762, 249}";
},
{
horizontal = 1;
place = "{0, 150}";
},
{
horizontal = 1;
place = "{285, 126}";
},
{
horizontal = 1;
place = "{536, 151}";
}
);
layerId = UUID0;
width = 595;
}
);
leftKerningGroup = B;
rightKerningGroup = E;
unicode = 00CA;
},
{
glyphname = Edblgrave;
layers = (
{
background = {
anchors = (
{
name = bottom;
position = "{307, 0}";
},
{
name = ogonek;
position = "{548, 0}";
},
{
name = top;
position = "{307, 688}";
},
{
name = topleft;
position = "{20, 688}";
}
);
paths = (
{
closed = 1;
nodes = (
"272 1090 LINE",
"469 1147 LINE",
"539 797 LINE",
"420 763 LINE"
);
},
{
closed = 1;
nodes = (
"-8 1058 LINE",
"175 1149 LINE",
"306 816 LINE",
"194 762 LINE"
);
},
{
closed = 1;
nodes = (
"65 688 LINE",
"548 688 LINE",
"548 536 LINE",
"308 536 LINE",
"308 411 LINE",
"527 411 LINE",
"527 285 LINE",
"308 285 LINE",
"308 150 LINE",
"548 150 LINE",
"548 0 LINE",
"65 0 LINE"
);
}
);
};
components = (
{
name = E;
},
{
name = dblgravecomb.case;
transform = "{1, 0, 0, 1, 7, 0}";
}
);
hints = (
{
horizontal = 1;
place = "{762, 21}";
target = up;
type = BottomGhost;
},
{
horizontal = 1;
place = "{1149, -20}";
target = down;
type = TopGhost;
},
{
horizontal = 1;
place = "{0, 150}";
},
{
horizontal = 1;
place = "{285, 126}";
},
{
horizontal = 1;
place = "{536, 151}";
}
);
layerId = UUID0;
width = 595;
}
);
leftKerningGroup = B;
rightKerningGroup = E;
unicode = 0204;
},
{
glyphname = Edieresis;
layers = (
{
background = {
anchors = (
{
name = bottom;
position = "{307, 0}";
},
{
name = ogonek;
position = "{548, 0}";
},
{
name = top;
position = "{307, 688}";
},
{
name = topleft;
position = "{20, 688}";
}
);
paths = (
{
closed = 1;
nodes = (
"345 922 OFFCURVE",
"401 964 OFFCURVE",
"458 964 CURVE SMOOTH",
"526 964 OFFCURVE",
"569 911 OFFCURVE",
"569 862 CURVE SMOOTH",
"569 804 OFFCURVE",
"516 762 OFFCURVE",
"458 762 CURVE SMOOTH",
"391 762 OFFCURVE",
"345 810 OFFCURVE",
"345 862 CURVE SMOOTH"
);
},
{
closed = 1;
nodes = (
"43 920 OFFCURVE",
"97 964 OFFCURVE",
"155 964 CURVE SMOOTH",
"217 964 OFFCURVE",
"268 916 OFFCURVE",
"268 862 CURVE SMOOTH",
"268 802 OFFCURVE",
"212 762 OFFCURVE",
"155 762 CURVE SMOOTH",
"93 762 OFFCURVE",
"43 806 OFFCURVE",
"43 862 CURVE SMOOTH"
);
},
{
closed = 1;
nodes = (
"65 688 LINE",
"548 688 LINE",
"548 536 LINE",
"308 536 LINE",
"308 411 LINE",
"527 411 LINE",
"527 285 LINE",
"308 285 LINE",
"308 150 LINE",
"548 150 LINE",
"548 0 LINE",
"65 0 LINE"
);
}
);
};
components = (
{
name = E;
},
{
name = dieresiscomb.case;
transform = "{1, 0, 0, 1, 7, 0}";
}
);
hints = (
{
horizontal = 1;
place = "{762, 202}";
},
{
horizontal = 1;
place = "{0, 150}";
},
{
horizontal = 1;
place = "{285, 126}";
},
{
horizontal = 1;
place = "{536, 151}";
}
);
layerId = UUID0;
width = 595;
}
);
leftKerningGroup = B;
rightKerningGroup = E;
unicode = 00CB;
},
{
glyphname = Edotaccent;
layers = (
{
background = {
anchors = (
{
name = bottom;
position = "{307, 0}";
},
{
name = ogonek;
position = "{548, 0}";
},
{
name = top;
position = "{307, 688}";
},
{
name = topleft;
position = "{20, 688}";
}
);
paths = (
{
closed = 1;
nodes = (
"194 923 OFFCURVE",
"249 965 OFFCURVE",
"306 965 CURVE SMOOTH",
"367 965 OFFCURVE",
"419 918 OFFCURVE",
"419 864 CURVE SMOOTH",
"419 803 OFFCURVE",
"363 762 OFFCURVE",
"306 762 CURVE SMOOTH",
"244 762 OFFCURVE",
"194 807 OFFCURVE",
"194 864 CURVE SMOOTH"
);
},
{
closed = 1;
nodes = (
"65 688 LINE",
"548 688 LINE",
"548 536 LINE",
"308 536 LINE",
"308 411 LINE",
"527 411 LINE",
"527 285 LINE",
"308 285 LINE",
"308 150 LINE",
"548 150 LINE",
"548 0 LINE",
"65 0 LINE"
);
}
);
};
components = (
{
name = E;
},
{
name = dotaccentcomb.case;
transform = "{1, 0, 0, 1, 7, 0}";
}
);
hints = (
{
horizontal = 1;
place = "{762, 202}";
},
{
horizontal = 1;
place = "{0, 150}";
},
{
horizontal = 1;
place = "{285, 126}";
},
{
horizontal = 1;
place = "{536, 151}";
}
);
layerId = UUID0;
width = 595;
}
);
leftKerningGroup = B;
rightKerningGroup = E;
unicode = 0116;
},
{
glyphname = Egrave;
layers = (
{
background = {
anchors = (
{
name = bottom;
position = "{307, 0}";
},
{
name = ogonek;
position = "{548, 0}";
},
{
name = top;
position = "{307, 688}";
},
{
name = topleft;
position = "{20, 688}";
}
);
paths = (
{
closed = 1;
nodes = (
"75 1075 LINE",
"368 870 LINE",
"307 763 LINE",
"-26 896 LINE"
);
},
{
closed = 1;
nodes = (
"65 688 LINE",
"548 688 LINE",
"548 536 LINE",
"308 536 LINE",
"308 411 LINE",
"527 411 LINE",
"527 285 LINE",
"308 285 LINE",
"308 150 LINE",
"548 150 LINE",
"548 0 LINE",
"65 0 LINE"
);
}
);
};
components = (
{
name = E;
},
{
name = gravecomb.case;
transform = "{1, 0, 0, 1, 7, 0}";
}
);
hints = (
{
horizontal = 1;
place = "{763, 21}";
target = up;
type = BottomGhost;
},
{
horizontal = 1;
place = "{1075, -20}";
target = down;
type = TopGhost;
},
{
horizontal = 1;
place = "{0, 150}";
},
{
horizontal = 1;
place = "{285, 126}";
},
{
horizontal = 1;
place = "{536, 151}";
}
);
layerId = UUID0;
width = 595;
}
);
leftKerningGroup = B;
rightKerningGroup = E;
unicode = 00C8;
},
{
glyphname = Einvertedbreve;
layers = (
{
background = {
anchors = (
{
name = bottom;
position = "{307, 0}";
},
{
name = ogonek;
position = "{548, 0}";
},
{
name = top;
position = "{307, 688}";
},
{
name = topleft;
position = "{20, 688}";
}
);
paths = (
{
closed = 1;
nodes = (
"369 762 LINE",
"369 798 OFFCURVE",
"342 824 OFFCURVE",
"307 824 CURVE SMOOTH",
"272 824 OFFCURVE",
"246 798 OFFCURVE",
"246 762 CURVE",
"125 762 LINE",
"125 875 OFFCURVE",
"201 948 OFFCURVE",
"307 948 CURVE SMOOTH",
"416 948 OFFCURVE",
"489 871 OFFCURVE",
"489 762 CURVE"
);
},
{
closed = 1;
nodes = (
"65 688 LINE",
"548 688 LINE",
"548 536 LINE",
"308 536 LINE",
"308 411 LINE",
"527 411 LINE",
"527 285 LINE",
"308 285 LINE",
"308 150 LINE",
"548 150 LINE",
"548 0 LINE",
"65 0 LINE"
);
}
);
};
components = (
{
name = E;
},
{
name = breveinvertedcomb.case;
transform = "{1, 0, 0, 1, 7, 0}";
}
);
hints = (
{
horizontal = 1;
place = "{762, 186}";
},
{
horizontal = 1;
place = "{824, 124}";
},
{
horizontal = 1;
place = "{0, 150}";
},
{
horizontal = 1;
place = "{285, 126}";
},
{
horizontal = 1;
place = "{536, 151}";
}
);
layerId = UUID0;
width = 595;
}
);
leftKerningGroup = B;
rightKerningGroup = E;
unicode = 0206;
},
{
glyphname = Emacron;
layers = (
{
background = {
anchors = (
{
name = bottom;
position = "{307, 0}";
},
{
name = ogonek;
position = "{548, 0}";
},
{
name = top;
position = "{307, 688}";
},
{
name = topleft;
position = "{20, 688}";
}
);
paths = (
{
closed = 1;
nodes = (
"172 880 LINE",
"441 880 LINE",
"441 762 LINE",
"172 762 LINE"
);
},
{
closed = 1;
nodes = (
"65 688 LINE",
"548 688 LINE",
"548 536 LINE",
"308 536 LINE",
"308 411 LINE",
"527 411 LINE",
"527 285 LINE",
"308 285 LINE",
"308 150 LINE",
"548 150 LINE",
"548 0 LINE",
"65 0 LINE"
);
}
);
};
components = (
{
name = E;
},
{
name = macroncomb.case;
transform = "{1, 0, 0, 1, 7, 0}";
}
);
hints = (
{
horizontal = 1;
place = "{762, 118}";
},
{
horizontal = 1;
place = "{0, 150}";
},
{
horizontal = 1;
place = "{285, 126}";
},
{
horizontal = 1;
place = "{536, 151}";
}
);
layerId = UUID0;
width = 595;
}
);
leftKerningGroup = B;
rightKerningGroup = E;
unicode = 0112;
},
{
color = 3;
glyphname = Eogonek;
layers = (
{
background = {
anchors = (
{
name = bottom;
position = "{307, 0}";
},
{
name = ogonek;
position = "{548, 0}";
},
{
name = top;
position = "{307, 688}";
},
{
name = topleft;
position = "{20, 688}";
}
);
paths = (
{
closed = 1;
nodes = (
"339 -188 OFFCURVE",
"355 -186 OFFCURVE",
"377 -181 CURVE",
"378 -219 LINE",
"343 -233 OFFCURVE",
"311 -240 OFFCURVE",
"281 -240 CURVE SMOOTH",
"220 -240 OFFCURVE",
"172 -211 OFFCURVE",
"172 -154 CURVE SMOOTH",
"172 -108 OFFCURVE",
"217 -67 OFFCURVE",
"252 -37 CURVE SMOOTH",
"280 -14 LINE SMOOTH",
"293 -3 OFFCURVE",
"302 3 OFFCURVE",
"307 8 CURVE",
"361 8 LINE",
"340 -35 OFFCURVE",
"320 -72 OFFCURVE",
"299 -102 CURVE",
"289 -117 LINE SMOOTH",
"285 -122 OFFCURVE",
"280 -139 OFFCURVE",
"280 -152 CURVE SMOOTH",
"280 -176 OFFCURVE",
"297 -188 OFFCURVE",
"330 -188 CURVE SMOOTH"
);
},
{
closed = 1;
nodes = (
"65 688 LINE",
"548 688 LINE",
"548 536 LINE",
"308 536 LINE",
"308 411 LINE",
"527 411 LINE",
"527 285 LINE",
"308 285 LINE",
"308 150 LINE",
"548 150 LINE",
"548 0 LINE",
"65 0 LINE"
);
}
);
};
components = (
{
name = E;
},
{
name = ogonekcomb;
transform = "{1, 0, 0, 1, 248, 0}";
}
);
hints = (
{
horizontal = 1;
place = "{-240, 52}";
},
{
horizontal = 1;
place = "{8, -20}";
target = down;
type = TopGhost;
},
{
horizontal = 1;
place = "{0, 150}";
},
{
horizontal = 1;
place = "{285, 126}";
},
{
horizontal = 1;
place = "{536, 151}";
}
);
layerId = UUID0;
width = 595;
}
);
leftKerningGroup = B;
rightKerningGroup = E;
unicode = 0118;
},
{
glyphname = Gbreve;
layers = (
{
background = {
anchors = (
{
name = bottom;
position = "{330, 0}";
},
{
name = top;
position = "{330, 688}";
}
);
paths = (
{
closed = 1;
nodes = (
"546 933 LINE",
"546 830 OFFCURVE",
"475 763 OFFCURVE",
"375 763 CURVE SMOOTH",
"273 763 OFFCURVE",
"203 833 OFFCURVE",
"203 933 CURVE",
"314 933 LINE",
"314 898 OFFCURVE",
"339 873 OFFCURVE",
"375 873 CURVE SMOOTH",
"411 873 OFFCURVE",
"433 896 OFFCURVE",
"433 933 CURVE"
);
},
{
closed = 1;
nodes = (
"540 498 LINE",
"481 517 OFFCURVE",
"436 526 OFFCURVE",
"403 526 CURVE SMOOTH",
"305 526 OFFCURVE",
"252 439 OFFCURVE",
"252 347 CURVE SMOOTH",
"252 246 OFFCURVE",
"314 164 OFFCURVE",
"403 164 CURVE SMOOTH",
"415 164 OFFCURVE",
"428 165 OFFCURVE",
"443 167 CURVE",
"443 329 LINE",
"616 349 LINE",
"616 36 LINE",
"538 1 OFFCURVE",
"458 -16 OFFCURVE",
"375 -16 CURVE SMOOTH",
"280 -16 OFFCURVE",
"198 20 OFFCURVE",
"131 91 CURVE SMOOTH",
"63 162 OFFCURVE",
"30 249 OFFCURVE",
"30 350 CURVE SMOOTH",
"30 448 OFFCURVE",
"64 532 OFFCURVE",
"133 601 CURVE SMOOTH",
"201 669 OFFCURVE",
"281 703 OFFCURVE",
"375 703 CURVE SMOOTH",
"460 703 OFFCURVE",
"537 687 OFFCURVE",
"606 653 CURVE"
);
}
);
};
components = (
{
name = G;
},
{
name = brevecomb.case;
transform = "{1, 0, 0, 1, 55, 0}";
}
);
hints = (
{
horizontal = 1;
place = "{763, 110}";
},
{
horizontal = 1;
place = "{763, 171}";
},
{
horizontal = 1;
place = "{-16, 180}";
},
{
horizontal = 1;
place = "{526, 177}";
}
);
layerId = UUID0;
width = 659;
}
);
leftKerningGroup = C;
rightKerningGroup = G;
unicode = 011E;
},
{
glyphname = Gcircumflex;
layers = (
{
background = {
anchors = (
{
name = bottom;
position = "{330, 0}";
},
{
name = top;
position = "{330, 688}";
}
);
paths = (
{
closed = 1;
nodes = (
"282 1012 LINE",
"467 1012 LINE",
"590 763 LINE",
"424 763 LINE",
"386 869 LINE",
"374 907 LINE",
"364 869 LINE",
"325 763 LINE",
"159 763 LINE"
);
},
{
closed = 1;
nodes = (
"540 498 LINE",
"481 517 OFFCURVE",
"436 526 OFFCURVE",
"403 526 CURVE SMOOTH",
"305 526 OFFCURVE",
"252 439 OFFCURVE",
"252 347 CURVE SMOOTH",
"252 246 OFFCURVE",
"314 164 OFFCURVE",
"403 164 CURVE SMOOTH",
"415 164 OFFCURVE",
"428 165 OFFCURVE",
"443 167 CURVE",
"443 329 LINE",
"616 349 LINE",
"616 36 LINE",
"538 1 OFFCURVE",
"458 -16 OFFCURVE",
"375 -16 CURVE SMOOTH",
"280 -16 OFFCURVE",
"198 20 OFFCURVE",
"131 91 CURVE SMOOTH",
"63 162 OFFCURVE",
"30 249 OFFCURVE",
"30 350 CURVE SMOOTH",
"30 448 OFFCURVE",
"64 532 OFFCURVE",
"133 601 CURVE SMOOTH",
"201 669 OFFCURVE",
"281 703 OFFCURVE",
"375 703 CURVE SMOOTH",
"460 703 OFFCURVE",
"537 687 OFFCURVE",
"606 653 CURVE"
);
}
);
};
components = (
{
name = G;
},
{
name = circumflexcomb.case;
transform = "{1, 0, 0, 1, 55, 0}";
}
);
hints = (
{
horizontal = 1;
place = "{763, 249}";
},
{
horizontal = 1;
place = "{-16, 180}";
},
{
horizontal = 1;
place = "{526, 177}";
}
);
layerId = UUID0;
width = 659;
}
);
leftKerningGroup = C;
rightKerningGroup = G;
unicode = 011C;
},
{
glyphname = Gcommaaccent;
layers = (
{
background = {
anchors = (
{
name = bottom;
position = "{330, 0}";
},
{
name = top;
position = "{330, 688}";
}
);
paths = (
{
closed = 1;
nodes = (
"273 -313 LINE",
"362 -313 OFFCURVE",
"366 -314 OFFCURVE",
"366 -261 CURVE",
"273 -261 LINE",
"273 -74 LINE",
"478 -74 LINE",
"476 -176 LINE SMOOTH",
"472 -391 OFFCURVE",
"456 -430 OFFCURVE",
"273 -430 CURVE"
);
},
{
closed = 1;
nodes = (
"540 498 LINE",
"481 517 OFFCURVE",
"436 526 OFFCURVE",
"403 526 CURVE SMOOTH",
"305 526 OFFCURVE",
"252 439 OFFCURVE",
"252 347 CURVE SMOOTH",
"252 246 OFFCURVE",
"314 164 OFFCURVE",
"403 164 CURVE SMOOTH",
"415 164 OFFCURVE",
"428 165 OFFCURVE",
"443 167 CURVE",
"443 329 LINE",
"616 349 LINE",
"616 36 LINE",
"538 1 OFFCURVE",
"458 -16 OFFCURVE",
"375 -16 CURVE SMOOTH",
"280 -16 OFFCURVE",
"198 20 OFFCURVE",
"131 91 CURVE SMOOTH",
"63 162 OFFCURVE",
"30 249 OFFCURVE",
"30 350 CURVE SMOOTH",
"30 448 OFFCURVE",
"64 532 OFFCURVE",
"133 601 CURVE SMOOTH",
"201 669 OFFCURVE",
"281 703 OFFCURVE",
"375 703 CURVE SMOOTH",
"460 703 OFFCURVE",
"537 687 OFFCURVE",
"606 653 CURVE"
);
}
);
};
components = (
{
name = G;
},
{
name = commaaccentcomb;
transform = "{1, 0, 0, 1, 55, 0}";
}
);
hints = (
{
horizontal = 1;
place = "{-430, 117}";
},
{
horizontal = 1;
place = "{-261, 187}";
},
{
horizontal = 1;
place = "{-16, 180}";
},
{
horizontal = 1;
place = "{526, 177}";
}
);
layerId = UUID0;
width = 659;
}
);
leftKerningGroup = C;
rightKerningGroup = G;
unicode = 0122;
},
{
glyphname = Gdotaccent;
layers = (
{
background = {
anchors = (
{
name = bottom;
position = "{330, 0}";
},
{
name = top;
position = "{330, 688}";
}
);
paths = (
{
closed = 1;
nodes = (
"262 923 OFFCURVE",
"317 965 OFFCURVE",
"374 965 CURVE SMOOTH",
"435 965 OFFCURVE",
"487 918 OFFCURVE",
"487 864 CURVE SMOOTH",
"487 803 OFFCURVE",
"431 762 OFFCURVE",
"374 762 CURVE SMOOTH",
"312 762 OFFCURVE",
"262 807 OFFCURVE",
"262 864 CURVE SMOOTH"
);
},
{
closed = 1;
nodes = (
"540 498 LINE",
"481 517 OFFCURVE",
"436 526 OFFCURVE",
"403 526 CURVE SMOOTH",
"305 526 OFFCURVE",
"252 439 OFFCURVE",
"252 347 CURVE SMOOTH",
"252 246 OFFCURVE",
"314 164 OFFCURVE",
"403 164 CURVE SMOOTH",
"415 164 OFFCURVE",
"428 165 OFFCURVE",
"443 167 CURVE",
"443 329 LINE",
"616 349 LINE",
"616 36 LINE",
"538 1 OFFCURVE",
"458 -16 OFFCURVE",
"375 -16 CURVE SMOOTH",
"280 -16 OFFCURVE",
"198 20 OFFCURVE",
"131 91 CURVE SMOOTH",
"63 162 OFFCURVE",
"30 249 OFFCURVE",
"30 350 CURVE SMOOTH",
"30 448 OFFCURVE",
"64 532 OFFCURVE",
"133 601 CURVE SMOOTH",
"201 669 OFFCURVE",
"281 703 OFFCURVE",
"375 703 CURVE SMOOTH",
"460 703 OFFCURVE",
"537 687 OFFCURVE",
"606 653 CURVE"
);
}
);
};
components = (
{
name = G;
},
{
name = dotaccentcomb.case;
transform = "{1, 0, 0, 1, 55, 0}";
}
);
hints = (
{
horizontal = 1;
place = "{762, 202}";
},
{
horizontal = 1;
place = "{-16, 180}";
},
{
horizontal = 1;
place = "{526, 177}";
}
);
layerId = UUID0;
width = 659;
}
);
leftKerningGroup = C;
rightKerningGroup = G;
unicode = 0120;
},
{
glyphname = Hbar;
layers = (
{
background = {
paths = (
{
closed = 1;
nodes = (
"42 563 LINE",
"70 563 LINE",
"70 672 LINE",
"295 672 LINE",
"295 563 LINE",
"508 563 LINE",
"508 672 LINE",
"733 672 LINE",
"733 563 LINE",
"763 563 LINE",
"763 478 LINE",
"733 478 LINE",
"733 0 LINE",
"508 0 LINE",
"508 270 LINE",
"295 270 LINE",
"295 0 LINE",
"70 0 LINE",
"70 478 LINE",
"42 478 LINE"
);
},
{
closed = 1;
nodes = (
"508 414 LINE",
"508 478 LINE",
"295 478 LINE",
"295 414 LINE"
);
}
);
};
hints = (
{
horizontal = 1;
place = "{270, 145}";
},
{
horizontal = 1;
place = "{478, 85}";
},
{
horizontal = 1;
place = "{0, 21}";
target = up;
type = BottomGhost;
},
{
horizontal = 1;
place = "{672, -20}";
target = down;
type = TopGhost;
}
);
layerId = UUID0;
paths = (
{
closed = 1;
nodes = (
"295 0 LINE",
"295 270 LINE",
"508 270 LINE",
"508 0 LINE",
"733 0 LINE",
"733 478 LINE",
"763 478 LINE",
"763 563 LINE",
"733 563 LINE",
"733 672 LINE",
"508 672 LINE",
"508 563 LINE",
"295 563 LINE",
"295 672 LINE",
"70 672 LINE",
"70 563 LINE",
"42 563 LINE",
"42 478 LINE",
"70 478 LINE",
"70 0 LINE"
);
},
{
closed = 1;
nodes = (
"295 478 LINE",
"508 478 LINE",
"508 414 LINE",
"295 414 LINE"
);
}
);
width = 804;
}
);
leftKerningGroup = B;
rightKerningGroup = H;
unicode = 0126;
},
{
glyphname = Hcircumflex;
layers = (
{
background = {
anchors = (
{
name = bottom;
position = "{397, 0}";
},
{
name = center;
position = "{397, 344}";
},
{
name = top;
position = "{397, 688}";
},
{
name = topleft;
position = "{20, 688}";
}
);
paths = (
{
closed = 1;
nodes = (
"304 1011 LINE",
"489 1011 LINE",
"612 762 LINE",
"446 762 LINE",
"408 868 LINE",
"396 906 LINE",
"386 868 LINE",
"347 762 LINE",
"181 762 LINE"
);
},
{
closed = 1;
nodes = (
"65 688 LINE",
"290 688 LINE",
"290 414 LINE",
"503 414 LINE",
"503 688 LINE",
"729 688 LINE",
"729 0 LINE",
"503 0 LINE",
"503 270 LINE",
"290 270 LINE",
"290 0 LINE",
"65 0 LINE"
);
}
);
};
components = (
{
name = H;
},
{
name = circumflexcomb.case;
transform = "{1, 0, 0, 1, 97, 0}";
}
);
hints = (
{
horizontal = 1;
place = "{762, 249}";
},
{
horizontal = 1;
place = "{270, 145}";
},
{
horizontal = 1;
place = "{0, 21}";
target = up;
type = BottomGhost;
},
{
horizontal = 1;
place = "{688, -20}";
target = down;
type = TopGhost;
}
);
layerId = UUID0;
width = 794;
}
);
leftKerningGroup = B;
rightKerningGroup = H;
unicode = 0124;
},
{
color = 3;
glyphname = IJ;
layers = (
{
background = {
paths = (
{
closed = 1;
nodes = (
"209 189 LINE",
"268 170 OFFCURVE",
"313 161 OFFCURVE",
"346 161 CURVE SMOOTH",
"444 161 OFFCURVE",
"497 248 OFFCURVE",
"497 340 CURVE SMOOTH",
"497 441 OFFCURVE",
"435 523 OFFCURVE",
"346 523 CURVE SMOOTH",
"334 523 OFFCURVE",
"321 522 OFFCURVE",
"306 520 CURVE",
"306 358 LINE",
"133 338 LINE",
"133 651 LINE",
"211 686 OFFCURVE",
"291 703 OFFCURVE",
"374 703 CURVE SMOOTH",
"469 703 OFFCURVE",
"551 667 OFFCURVE",
"618 596 CURVE SMOOTH",
"686 524 OFFCURVE",
"719 438 OFFCURVE",
"719 337 CURVE SMOOTH",
"719 141 OFFCURVE",
"565 -16 OFFCURVE",
"374 -16 CURVE SMOOTH",
"289 -16 OFFCURVE",
"212 0 OFFCURVE",
"143 34 CURVE"
);
},
{
closed = 1;
nodes = (
"451 375 OFFCURVE",
"473 416 OFFCURVE",
"473 485 CURVE SMOOTH",
"473 688 LINE",
"699 688 LINE",
"699 485 LINE SMOOTH",
"699 317 OFFCURVE",
"560 204 OFFCURVE",
"379 204 CURVE SMOOTH",
"198 204 OFFCURVE",
"59 317 OFFCURVE",
"59 485 CURVE SMOOTH",
"59 688 LINE",
"285 688 LINE",
"285 485 LINE SMOOTH",
"285 416 OFFCURVE",
"319 375 OFFCURVE",
"385 375 CURVE SMOOTH"
);
}
);
};
hints = (
{
horizontal = 1;
place = "{0, 21}";
target = up;
type = BottomGhost;
},
{
horizontal = 1;
place = "{688, -20}";
target = down;
type = TopGhost;
},
{
horizontal = 1;
place = "{-45, 163}";
},
{
horizontal = 1;
place = "{688, -20}";
target = down;
type = TopGhost;
},
{
horizontal = 1;
place = "{0, 21}";
target = up;
type = BottomGhost;
},
{
horizontal = 1;
place = "{688, -20}";
target = down;
type = TopGhost;
},
{
horizontal = 1;
place = "{-45, 163}";
},
{
horizontal = 1;
place = "{688, -20}";
target = down;
type = TopGhost;
}
);
layerId = UUID0;
paths = (
{
closed = 1;
nodes = (
"585 -16 OFFCURVE",
"699 141 OFFCURVE",
"699 317 CURVE SMOOTH",
"699 688 LINE",
"494 688 LINE",
"487 320 LINE",
"487 175 OFFCURVE",
"441 151 OFFCURVE",
"326 151 CURVE SMOOTH",
"273 151 OFFCURVE",
"228 170 OFFCURVE",
"179 189 CURVE",
"133 34 LINE",
"190 1 OFFCURVE",
"266 -16 OFFCURVE",
"354 -16 CURVE SMOOTH"
);
},
{
closed = 1;
nodes = (
"454 224 OFFCURVE",
"509 308 OFFCURVE",
"509 485 CURVE SMOOTH",
"509 688 LINE",
"473 688 LINE",
"473 465 LINE",
"459 406 OFFCURVE",
"429 375 OFFCURVE",
"375 375 CURVE SMOOTH",
"321 375 OFFCURVE",
"285 414 OFFCURVE",
"285 485 CURVE SMOOTH",
"285 688 LINE",
"59 688 LINE",
"59 485 LINE SMOOTH",
"59 321 OFFCURVE",
"172 224 OFFCURVE",
"309 224 CURVE SMOOTH"
);
}
);
width = 758;
}
);
leftMetricsKey = U;
rightKerningGroup = J;
rightMetricsKey = U;
unicode = 0132;
},
{
glyphname = Iacute;
layers = (
{
background = {
anchors = (
{
name = bottom;
position = "{181, 0}";
},
{
name = ogonek;
position = "{296, 0}";
},
{
name = top;
position = "{181, 688}";
},
{
name = topleft;
position = "{20, 688}";
}
);
paths = (
{
closed = 1;
nodes = (
"119 870 LINE",
"412 1075 LINE",
"513 896 LINE",
"180 763 LINE"
);
},
{
closed = 1;
nodes = (
"65 688 LINE",
"296 688 LINE",
"296 0 LINE",
"65 0 LINE"
);
}
);
};
components = (
{
name = I;
},
{
name = acutecomb.case;
transform = "{1, 0, 0, 1, -119, 0}";
}
);
hints = (
{
horizontal = 1;
place = "{763, 21}";
target = up;
type = BottomGhost;
},
{
horizontal = 1;
place = "{1075, -20}";
target = down;
type = TopGhost;
},
{
horizontal = 1;
place = "{0, 21}";
target = up;
type = BottomGhost;
},
{
horizontal = 1;
place = "{688, -20}";
target = down;
type = TopGhost;
}
);
layerId = UUID0;
width = 361;
}
);
leftKerningGroup = B;
rightKerningGroup = H;
unicode = 00CD;
},
{
glyphname = Ibreve;
layers = (
{
background = {
anchors = (
{
name = bottom;
position = "{181, 0}";
},
{
name = ogonek;
position = "{296, 0}";
},
{
name = top;
position = "{181, 688}";
},
{
name = topleft;
position = "{20, 688}";
}
);
paths = (
{
closed = 1;
nodes = (
"353 933 LINE",
"353 830 OFFCURVE",
"282 763 OFFCURVE",
"182 763 CURVE SMOOTH",
"80 763 OFFCURVE",
"10 833 OFFCURVE",
"10 933 CURVE",
"121 933 LINE",
"121 898 OFFCURVE",
"146 873 OFFCURVE",
"182 873 CURVE SMOOTH",
"218 873 OFFCURVE",
"240 896 OFFCURVE",
"240 933 CURVE"
);
},
{
closed = 1;
nodes = (
"65 688 LINE",
"296 688 LINE",
"296 0 LINE",
"65 0 LINE"
);
}
);
};
components = (
{
name = I;
},
{
name = brevecomb.case;
transform = "{1, 0, 0, 1, -119, 0}";
}
);
hints = (
{
horizontal = 1;
place = "{763, 110}";
},
{
horizontal = 1;
place = "{763, 171}";
},
{
horizontal = 1;
place = "{0, 21}";
target = up;
type = BottomGhost;
},
{
horizontal = 1;
place = "{688, -20}";
target = down;
type = TopGhost;
}
);
layerId = UUID0;
width = 361;
}
);
leftKerningGroup = B;
rightKerningGroup = H;
unicode = 012C;
},
{
glyphname = Icircumflex;
layers = (
{
background = {
anchors = (
{
name = bottom;
position = "{181, 0}";
},
{
name = ogonek;
position = "{296, 0}";
},
{
name = top;
position = "{181, 688}";
},
{
name = topleft;
position = "{20, 688}";
}
);
paths = (
{
closed = 1;
nodes = (
"88 1011 LINE",
"273 1011 LINE",
"396 762 LINE",
"230 762 LINE",
"192 868 LINE",
"180 906 LINE",
"170 868 LINE",
"131 762 LINE",
"-35 762 LINE"
);
},
{
closed = 1;
nodes = (
"65 688 LINE",
"296 688 LINE",
"296 0 LINE",
"65 0 LINE"
);
}
);
};
components = (
{
name = I;
},
{
name = circumflexcomb.case;
transform = "{1, 0, 0, 1, -119, 0}";
}
);
hints = (
{
horizontal = 1;
place = "{762, 249}";
},
{
horizontal = 1;
place = "{0, 21}";
target = up;
type = BottomGhost;
},
{
horizontal = 1;
place = "{688, -20}";
target = down;
type = TopGhost;
}
);
layerId = UUID0;
width = 361;
}
);
leftKerningGroup = B;
rightKerningGroup = H;
unicode = 00CE;
},
{
glyphname = Idblgrave;
layers = (
{
background = {
anchors = (
{
name = bottom;
position = "{181, 0}";
},
{
name = ogonek;
position = "{296, 0}";
},
{
name = top;
position = "{181, 688}";
},
{
name = topleft;
position = "{20, 688}";
}
);
paths = (
{
closed = 1;
nodes = (
"146 1090 LINE",
"343 1147 LINE",
"413 797 LINE",
"294 763 LINE"
);
},
{
closed = 1;
nodes = (
"-134 1058 LINE",
"49 1149 LINE",
"180 816 LINE",
"68 762 LINE"
);
},
{
closed = 1;
nodes = (
"65 688 LINE",
"296 688 LINE",
"296 0 LINE",
"65 0 LINE"
);
}
);
};
components = (
{
name = I;
},
{
name = dblgravecomb.case;
transform = "{1, 0, 0, 1, -119, 0}";
}
);
hints = (
{
horizontal = 1;
place = "{762, 21}";
target = up;
type = BottomGhost;
},
{
horizontal = 1;
place = "{1149, -20}";
target = down;
type = TopGhost;
},
{
horizontal = 1;
place = "{0, 21}";
target = up;
type = BottomGhost;
},
{
horizontal = 1;
place = "{688, -20}";
target = down;
type = TopGhost;
}
);
layerId = UUID0;
width = 361;
}
);
leftKerningGroup = B;
rightKerningGroup = H;
unicode = 0208;
},
{
glyphname = Idieresis;
layers = (
{
background = {
anchors = (
{
name = bottom;
position = "{181, 0}";
},
{
name = ogonek;
position = "{296, 0}";
},
{
name = top;
position = "{181, 688}";
},
{
name = topleft;
position = "{20, 688}";
}
);
paths = (
{
closed = 1;
nodes = (
"220 922 OFFCURVE",
"276 964 OFFCURVE",
"333 964 CURVE SMOOTH",
"401 964 OFFCURVE",
"444 911 OFFCURVE",
"444 862 CURVE SMOOTH",
"444 804 OFFCURVE",
"391 762 OFFCURVE",
"333 762 CURVE SMOOTH",
"266 762 OFFCURVE",
"220 810 OFFCURVE",
"220 862 CURVE SMOOTH"
);
},
{
closed = 1;
nodes = (
"-82 920 OFFCURVE",
"-28 964 OFFCURVE",
"30 964 CURVE SMOOTH",
"92 964 OFFCURVE",
"143 916 OFFCURVE",
"143 862 CURVE SMOOTH",
"143 802 OFFCURVE",
"87 762 OFFCURVE",
"30 762 CURVE SMOOTH",
"-32 762 OFFCURVE",
"-82 806 OFFCURVE",
"-82 862 CURVE SMOOTH"
);
},
{
closed = 1;
nodes = (
"65 688 LINE",
"296 688 LINE",
"296 0 LINE",
"65 0 LINE"
);
}
);
};
components = (
{
name = I;
},
{
name = dieresiscomb.case;
transform = "{1, 0, 0, 1, -119, 0}";
}
);
hints = (
{
horizontal = 1;
place = "{762, 202}";
},
{
horizontal = 1;
place = "{0, 21}";
target = up;
type = BottomGhost;
},
{
horizontal = 1;
place = "{688, -20}";
target = down;
type = TopGhost;
}
);
layerId = UUID0;
width = 361;
}
);
leftKerningGroup = B;
rightKerningGroup = H;
unicode = 00CF;
},
{
glyphname = Idotaccent;
layers = (
{
background = {
anchors = (
{
name = bottom;
position = "{181, 0}";
},
{
name = ogonek;
position = "{296, 0}";
},
{
name = top;
position = "{181, 688}";
},
{
name = topleft;
position = "{20, 688}";
}
);
paths = (
{
closed = 1;
nodes = (
"68 923 OFFCURVE",
"123 965 OFFCURVE",
"180 965 CURVE SMOOTH",
"241 965 OFFCURVE",
"293 918 OFFCURVE",
"293 864 CURVE SMOOTH",
"293 803 OFFCURVE",
"237 762 OFFCURVE",
"180 762 CURVE SMOOTH",
"118 762 OFFCURVE",
"68 807 OFFCURVE",
"68 864 CURVE SMOOTH"
);
},
{
closed = 1;
nodes = (
"65 688 LINE",
"296 688 LINE",
"296 0 LINE",
"65 0 LINE"
);
}
);
};
components = (
{
name = I;
},
{
name = dotaccentcomb.case;
transform = "{1, 0, 0, 1, -119, 0}";
}
);
hints = (
{
horizontal = 1;
place = "{762, 202}";
},
{
horizontal = 1;
place = "{0, 21}";
target = up;
type = BottomGhost;
},
{
horizontal = 1;
place = "{688, -20}";
target = down;
type = TopGhost;
}
);
layerId = UUID0;
width = 361;
}
);
leftKerningGroup = B;
rightKerningGroup = H;
unicode = 0130;
},
{
glyphname = Igrave;
layers = (
{
background = {
anchors = (
{
name = bottom;
position = "{181, 0}";
},
{
name = ogonek;
position = "{296, 0}";
},
{
name = top;
position = "{181, 688}";
},
{
name = topleft;
position = "{20, 688}";
}
);
paths = (
{
closed = 1;
nodes = (
"-51 1075 LINE",
"242 870 LINE",
"181 763 LINE",
"-152 896 LINE"
);
},
{
closed = 1;
nodes = (
"65 688 LINE",
"296 688 LINE",
"296 0 LINE",
"65 0 LINE"
);
}
);
};
components = (
{
name = I;
},
{
name = gravecomb.case;
transform = "{1, 0, 0, 1, -119, 0}";
}
);
hints = (
{
horizontal = 1;
place = "{763, 21}";
target = up;
type = BottomGhost;
},
{
horizontal = 1;
place = "{1075, -20}";
target = down;
type = TopGhost;
},
{
horizontal = 1;
place = "{0, 21}";
target = up;
type = BottomGhost;
},
{
horizontal = 1;
place = "{688, -20}";
target = down;
type = TopGhost;
}
);
layerId = UUID0;
width = 361;
}
);
leftKerningGroup = B;
rightKerningGroup = H;
unicode = 00CC;
},
{
glyphname = Iinvertedbreve;
layers = (
{
background = {
anchors = (
{
name = bottom;
position = "{181, 0}";
},
{
name = ogonek;
position = "{296, 0}";
},
{
name = top;
position = "{181, 688}";
},
{
name = topleft;
position = "{20, 688}";
}
);
paths = (
{
closed = 1;
nodes = (
"243 762 LINE",
"243 798 OFFCURVE",
"216 824 OFFCURVE",
"181 824 CURVE SMOOTH",
"146 824 OFFCURVE",
"120 798 OFFCURVE",
"120 762 CURVE",
"-1 762 LINE",
"-1 875 OFFCURVE",
"75 948 OFFCURVE",
"181 948 CURVE SMOOTH",
"290 948 OFFCURVE",
"363 871 OFFCURVE",
"363 762 CURVE"
);
},
{
closed = 1;
nodes = (
"65 688 LINE",
"296 688 LINE",
"296 0 LINE",
"65 0 LINE"
);
}
);
};
components = (
{
name = I;
},
{
name = breveinvertedcomb.case;
transform = "{1, 0, 0, 1, -119, 0}";
}
);
hints = (
{
horizontal = 1;
place = "{762, 186}";
},
{
horizontal = 1;
place = "{824, 124}";
},
{
horizontal = 1;
place = "{0, 21}";
target = up;
type = BottomGhost;
},
{
horizontal = 1;
place = "{688, -20}";
target = down;
type = TopGhost;
}
);
layerId = UUID0;
width = 361;
}
);
leftKerningGroup = B;
rightKerningGroup = H;
unicode = 020A;
},
{
glyphname = Imacron;
layers = (
{
background = {
anchors = (
{
name = bottom;
position = "{181, 0}";
},
{
name = ogonek;
position = "{296, 0}";
},
{
name = top;
position = "{181, 688}";
},
{
name = topleft;
position = "{20, 688}";
}
);
paths = (
{
closed = 1;
nodes = (
"46 880 LINE",
"315 880 LINE",
"315 762 LINE",
"46 762 LINE"
);
},
{
closed = 1;
nodes = (
"65 688 LINE",
"296 688 LINE",
"296 0 LINE",
"65 0 LINE"
);
}
);
};
components = (
{
name = I;
},
{
name = macroncomb.case;
transform = "{1, 0, 0, 1, -119, 0}";
}
);
hints = (
{
horizontal = 1;
place = "{762, 118}";
},
{
horizontal = 1;
place = "{0, 21}";
target = up;
type = BottomGhost;
},
{
horizontal = 1;
place = "{688, -20}";
target = down;
type = TopGhost;
}
);
layerId = UUID0;
width = 361;
}
);
leftKerningGroup = B;
rightKerningGroup = H;
unicode = 012A;
},
{
color = 3;
glyphname = Iogonek;
layers = (
{
background = {
anchors = (
{
name = bottom;
position = "{181, 0}";
},
{
name = ogonek;
position = "{296, 0}";
},
{
name = top;
position = "{181, 688}";
},
{
name = topleft;
position = "{20, 688}";
}
);
paths = (
{
closed = 1;
nodes = (
"186 -188 OFFCURVE",
"202 -186 OFFCURVE",
"224 -181 CURVE",
"225 -219 LINE",
"190 -233 OFFCURVE",
"158 -240 OFFCURVE",
"128 -240 CURVE SMOOTH",
"67 -240 OFFCURVE",
"19 -211 OFFCURVE",
"19 -154 CURVE SMOOTH",
"19 -108 OFFCURVE",
"64 -67 OFFCURVE",
"99 -37 CURVE SMOOTH",
"127 -14 LINE SMOOTH",
"140 -3 OFFCURVE",
"149 3 OFFCURVE",
"154 8 CURVE",
"208 8 LINE",
"187 -35 OFFCURVE",
"167 -72 OFFCURVE",
"146 -102 CURVE",
"136 -117 LINE SMOOTH",
"132 -122 OFFCURVE",
"127 -139 OFFCURVE",
"127 -152 CURVE SMOOTH",
"127 -176 OFFCURVE",
"144 -188 OFFCURVE",
"177 -188 CURVE SMOOTH"
);
},
{
closed = 1;
nodes = (
"65 688 LINE",
"296 688 LINE",
"296 0 LINE",
"65 0 LINE"
);
}
);
};
components = (
{
name = I;
},
{
name = ogonekcomb;
transform = "{1, 0, 0, 1, -4, 0}";
}
);
hints = (
{
horizontal = 1;
place = "{-240, 52}";
},
{
horizontal = 1;
place = "{8, -20}";
target = down;
type = TopGhost;
},
{
horizontal = 1;
place = "{0, 21}";
target = up;
type = BottomGhost;
},
{
horizontal = 1;
place = "{688, -20}";
target = down;
type = TopGhost;
}
);
layerId = UUID0;
width = 361;
}
);
leftKerningGroup = B;
rightKerningGroup = H;
unicode = 012E;
},
{
glyphname = Itilde;
layers = (
{
background = {
anchors = (
{
name = bottom;
position = "{181, 0}";
},
{
name = ogonek;
position = "{296, 0}";
},
{
name = top;
position = "{181, 688}";
},
{
name = topleft;
position = "{20, 688}";
}
);
paths = (
{
closed = 1;
nodes = (
"80 818 OFFCURVE",
"67 791 OFFCURVE",
"57 765 CURVE",
"-61 813 LINE",
"-21 924 OFFCURVE",
"43 987 OFFCURVE",
"111 987 CURVE SMOOTH",
"131 987 OFFCURVE",
"154 978 OFFCURVE",
"165 973 CURVE",
"188 959 LINE",
"190 958 OFFCURVE",
"193 956 OFFCURVE",
"198 953 CURVE",
"219 941 LINE",
"230 935 OFFCURVE",
"242 931 OFFCURVE",
"257 931 CURVE SMOOTH",
"280 931 OFFCURVE",
"296 947 OFFCURVE",
"306 976 CURVE",
"424 929 LINE",
"383 813 OFFCURVE",
"329 763 OFFCURVE",
"261 763 CURVE SMOOTH",
"185 763 OFFCURVE",
"159 818 OFFCURVE",
"110 818 CURVE SMOOTH"
);
},
{
closed = 1;
nodes = (
"65 688 LINE",
"296 688 LINE",
"296 0 LINE",
"65 0 LINE"
);
}
);
};
components = (
{
name = I;
},
{
name = tildecomb.case;
transform = "{1, 0, 0, 1, -119, 0}";
}
);
hints = (
{
horizontal = 1;
place = "{763, 169}";
},
{
horizontal = 1;
place = "{818, 169}";
},
{
horizontal = 1;
place = "{0, 21}";
target = up;
type = BottomGhost;
},
{
horizontal = 1;
place = "{688, -20}";
target = down;
type = TopGhost;
}
);
layerId = UUID0;
width = 361;
}
);
leftKerningGroup = B;
rightKerningGroup = H;
unicode = 0128;
},
{
glyphname = Jcircumflex;
layers = (
{
background = {
anchors = (
{
name = bottom;
position = "{228, 0}";
},
{
name = top;
position = "{289, 688}";
}
);
paths = (
{
closed = 1;
nodes = (
"195 1011 LINE",
"380 1011 LINE",
"503 762 LINE",
"337 762 LINE",
"299 868 LINE",
"287 906 LINE",
"277 868 LINE",
"238 762 LINE",
"72 762 LINE"
);
},
{
closed = 1;
nodes = (
"159 118 OFFCURVE",
"181 146 OFFCURVE",
"181 201 CURVE SMOOTH",
"181 688 LINE",
"396 688 LINE",
"396 201 LINE SMOOTH",
"396 47 OFFCURVE",
"310 -45 OFFCURVE",
"171 -45 CURVE SMOOTH",
"109 -45 OFFCURVE",
"52 -27 OFFCURVE",
"-1 8 CURVE",
"46 132 LINE",
"72 123 OFFCURVE",
"95 118 OFFCURVE",
"114 118 CURVE SMOOTH"
);
}
);
};
components = (
{
name = J;
},
{
name = circumflexcomb.case;
transform = "{1, 0, 0, 1, -11, 0}";
}
);
hints = (
{
horizontal = 1;
place = "{762, 249}";
},
{
horizontal = 1;
place = "{-45, 163}";
},
{
horizontal = 1;
place = "{688, -20}";
target = down;
type = TopGhost;
}
);
layerId = UUID0;
width = 461;
}
);
leftKerningGroup = J;
rightKerningGroup = J;
unicode = 0134;
},
{
glyphname = Kcommaaccent;
layers = (
{
background = {
anchors = (
{
name = bottom;
position = "{384, 0}";
},
{
name = top;
position = "{384, 688}";
}
);
paths = (
{
closed = 1;
nodes = (
"308 -298 LINE",
"397 -298 OFFCURVE",
"401 -299 OFFCURVE",
"401 -246 CURVE",
"308 -246 LINE",
"308 -59 LINE",
"513 -59 LINE",
"511 -161 LINE SMOOTH",
"507 -376 OFFCURVE",
"491 -415 OFFCURVE",
"308 -415 CURVE"
);
},
{
closed = 1;
nodes = (
"65 688 LINE",
"297 688 LINE",
"297 407 LINE",
"369 407 LINE",
"502 688 LINE",
"733 688 LINE",
"733 643 LINE",
"575 347 LINE",
"756 45 LINE",
"756 0 LINE",
"513 0 LINE",
"365 273 LINE",
"297 273 LINE",
"297 0 LINE",
"65 0 LINE"
);
}
);
};
components = (
{
name = K;
},
{
name = commaaccentcomb;
transform = "{1, 0, 0, 1, 94, 0}";
}
);
hints = (
{
horizontal = 1;
place = "{-415, 117}";
},
{
horizontal = 1;
place = "{-246, 187}";
},
{
horizontal = 1;
place = "{273, 134}";
},
{
horizontal = 1;
place = "{0, 21}";
target = up;
type = BottomGhost;
},
{
horizontal = 1;
place = "{688, -20}";
target = down;
type = TopGhost;
}
);
layerId = UUID0;
width = 767;
}
);
leftKerningGroup = B;
rightKerningGroup = K;
unicode = 0136;
},
{
glyphname = Lacute;
layers = (
{
background = {
anchors = (
{
name = bottom;
position = "{293, 0}";
},
{
name = center;
position = "{401, 418}";
},
{
name = top;
position = "{173, 688}";
},
{
name = topright;
position = "{518, 688}";
}
);
paths = (
{
closed = 1;
nodes = (
"71 870 LINE",
"364 1075 LINE",
"465 896 LINE",
"132 763 LINE"
);
},
{
closed = 1;
nodes = (
"65 688 LINE",
"281 688 LINE",
"281 147 LINE",
"520 147 LINE",
"520 0 LINE",
"65 0 LINE"
);
}
);
};
components = (
{
name = L;
},
{
name = acutecomb.case;
transform = "{1, 0, 0, 1, -127, 0}";
}
);
hints = (
{
horizontal = 1;
place = "{763, 21}";
target = up;
type = BottomGhost;
},
{
horizontal = 1;
place = "{1075, -20}";
target = down;
type = TopGhost;
},
{
horizontal = 1;
place = "{0, 147}";
},
{
horizontal = 1;
place = "{688, -20}";
target = down;
type = TopGhost;
}
);
layerId = UUID0;
width = 538;
}
);
leftKerningGroup = B;
rightKerningGroup = L;
unicode = 0139;
},
{
color = 3;
glyphname = Lcaron;
layers = (
{
background = {
anchors = (
{
name = bottom;
position = "{293, 0}";
},
{
name = center;
position = "{401, 418}";
},
{
name = top;
position = "{173, 688}";
},
{
name = topright;
position = "{518, 688}";
}
);
paths = (
{
closed = 1;
nodes = (
"609 464 LINE",
"698 464 OFFCURVE",
"702 463 OFFCURVE",
"702 516 CURVE",
"609 516 LINE",
"609 703 LINE",
"814 703 LINE",
"812 601 LINE SMOOTH",
"808 386 OFFCURVE",
"792 347 OFFCURVE",
"609 347 CURVE"
);
},
{
closed = 1;
nodes = (
"65 688 LINE",
"281 688 LINE",
"281 147 LINE",
"520 147 LINE",
"520 0 LINE",
"65 0 LINE"
);
}
);
};
components = (
{
name = L;
},
{
name = caroncomb.alt;
transform = "{1, 0, 0, 1, 41, 0}";
}
);
hints = (
{
horizontal = 1;
place = "{347, 117}";
},
{
horizontal = 1;
place = "{516, 187}";
},
{
horizontal = 1;
place = "{0, 147}";
},
{
horizontal = 1;
place = "{688, -20}";
target = down;
type = TopGhost;
}
);
layerId = UUID0;
width = 538;
}
);
leftKerningGroup = B;
rightKerningGroup = L;
unicode = 013D;
},
{
glyphname = Lcommaaccent;
layers = (
{
background = {
anchors = (
{
name = bottom;
position = "{293, 0}";
},
{
name = center;
position = "{401, 418}";
},
{
name = top;
position = "{173, 688}";
},
{
name = topright;
position = "{518, 688}";
}
);
paths = (
{
closed = 1;
nodes = (
"190 -298 LINE",
"279 -298 OFFCURVE",
"283 -299 OFFCURVE",
"283 -246 CURVE",
"190 -246 LINE",
"190 -59 LINE",
"395 -59 LINE",
"393 -161 LINE SMOOTH",
"389 -376 OFFCURVE",
"373 -415 OFFCURVE",
"190 -415 CURVE"
);
},
{
closed = 1;
nodes = (
"65 688 LINE",
"281 688 LINE",
"281 147 LINE",
"520 147 LINE",
"520 0 LINE",
"65 0 LINE"
);
}
);
};
components = (
{
name = L;
},
{
name = commaaccentcomb;
transform = "{1, 0, 0, 1, -7, 0}";
}
);
hints = (
{
horizontal = 1;
place = "{-415, 117}";
},
{
horizontal = 1;
place = "{-246, 187}";
},
{
horizontal = 1;
place = "{0, 147}";
},
{
horizontal = 1;
place = "{688, -20}";
target = down;
type = TopGhost;
}
);
layerId = UUID0;
width = 538;
}
);
leftKerningGroup = B;
rightKerningGroup = L;
unicode = 013B;
},
{
color = 3;
glyphname = Ldot;
layers = (
{
background = {
anchors = (
{
name = bottom;
position = "{293, 0}";
},
{
name = center;
position = "{401, 418}";
},
{
name = top;
position = "{173, 688}";
},
{
name = topright;
position = "{518, 688}";
}
);
paths = (
{
closed = 1;
nodes = (
"294 409 OFFCURVE",
"348 453 OFFCURVE",
"406 453 CURVE SMOOTH",
"468 453 OFFCURVE",
"519 405 OFFCURVE",
"519 351 CURVE SMOOTH",
"519 291 OFFCURVE",
"463 251 OFFCURVE",
"406 251 CURVE SMOOTH",
"344 251 OFFCURVE",
"294 295 OFFCURVE",
"294 351 CURVE SMOOTH"
);
},
{
closed = 1;
nodes = (
"65 688 LINE",
"281 688 LINE",
"281 147 LINE",
"520 147 LINE",
"520 0 LINE",
"65 0 LINE"
);
}
);
};
components = (
{
name = L;
},
{
name = periodcentered.loclCAT;
transform = "{1, 0, 0, 1, 200, 0}";
}
);
hints = (
{
horizontal = 1;
place = "{251, 202}";
},
{
horizontal = 1;
place = "{0, 147}";
},
{
horizontal = 1;
place = "{688, -20}";
target = down;
type = TopGhost;
}
);
layerId = UUID0;
width = 538;
}
);
leftKerningGroup = B;
rightKerningGroup = L;
unicode = 013F;
},
{
color = 3;
glyphname = Lslash;
layers = (
{
background = {
paths = (
{
closed = 1;
nodes = (
"3 385 LINE",
"93 408 LINE",
"93 688 LINE",
"308 688 LINE",
"308 462 LINE",
"457 501 LINE",
"457 416 LINE",
"308 377 LINE",
"308 147 LINE",
"547 147 LINE",
"547 0 LINE",
"93 0 LINE",
"93 323 LINE",
"3 300 LINE"
);
}
);
};
hints = (
{
horizontal = 1;
place = "{0, 147}";
},
{
horizontal = 1;
place = "{688, -20}";
target = down;
type = TopGhost;
}
);
layerId = UUID0;
paths = (
{
closed = 1;
nodes = (
"547 0 LINE",
"547 152 LINE",
"308 152 LINE",
"308 377 LINE",
"457 416 LINE",
"457 501 LINE",
"308 462 LINE",
"308 688 LINE",
"93 688 LINE",
"93 408 LINE",
"3 385 LINE",
"3 300 LINE",
"93 323 LINE",
"93 0 LINE"
);
}
);
width = 564;
}
);
leftKerningGroup = B;
rightKerningGroup = L;
unicode = 0141;
},
{
glyphname = Nacute;
layers = (
{
background = {
anchors = (
{
name = bottom;
position = "{392, 0}";
},
{
name = top;
position = "{392, 688}";
}
);
paths = (
{
closed = 1;
nodes = (
"215 870 LINE",
"508 1075 LINE",
"609 896 LINE",
"276 763 LINE"
);
},
{
closed = 1;
nodes = (
"65 688 LINE",
"266 688 LINE",
"540 317 LINE",
"540 688 LINE",
"719 688 LINE",
"719 0 LINE",
"519 0 LINE",
"243 358 LINE",
"243 0 LINE",
"65 0 LINE"
);
}
);
};
components = (
{
name = N;
},
{
name = acutecomb.case;
transform = "{1, 0, 0, 1, 92, 0}";
}
);
hints = (
{
horizontal = 1;
place = "{763, 21}";
target = up;
type = BottomGhost;
},
{
horizontal = 1;
place = "{1075, -20}";
target = down;
type = TopGhost;
},
{
horizontal = 1;
place = "{0, 21}";
target = up;
type = BottomGhost;
},
{
horizontal = 1;
place = "{688, -20}";
target = down;
type = TopGhost;
}
);
layerId = UUID0;
width = 784;
}
);
leftKerningGroup = B;
rightKerningGroup = H;
unicode = 0143;
},
{
glyphname = Ncaron;
layers = (
{
background = {
anchors = (
{
name = bottom;
position = "{392, 0}";
},
{
name = top;
position = "{392, 688}";
}
);
paths = (
{
closed = 1;
nodes = (
"176 1011 LINE",
"342 1011 LINE",
"381 904 LINE",
"391 865 LINE",
"402 900 OFFCURVE",
"429 974 OFFCURVE",
"441 1011 CURVE",
"607 1011 LINE",
"484 762 LINE",
"299 762 LINE"
);
},
{
closed = 1;
nodes = (
"65 688 LINE",
"266 688 LINE",
"540 317 LINE",
"540 688 LINE",
"719 688 LINE",
"719 0 LINE",
"519 0 LINE",
"243 358 LINE",
"243 0 LINE",
"65 0 LINE"
);
}
);
};
components = (
{
name = N;
},
{
name = caroncomb.case;
transform = "{1, 0, 0, 1, 92, 0}";
}
);
hints = (
{
horizontal = 1;
place = "{762, 249}";
},
{
horizontal = 1;
place = "{0, 21}";
target = up;
type = BottomGhost;
},
{
horizontal = 1;
place = "{688, -20}";
target = down;
type = TopGhost;
}
);
layerId = UUID0;
width = 784;
}
);
leftKerningGroup = B;
rightKerningGroup = H;
unicode = 0147;
},
{
glyphname = Ncommaaccent;
layers = (
{
background = {
anchors = (
{
name = bottom;
position = "{392, 0}";
},
{
name = top;
position = "{392, 688}";
}
);
paths = (
{
closed = 1;
nodes = (
"290 -298 LINE",
"379 -298 OFFCURVE",
"383 -299 OFFCURVE",
"383 -246 CURVE",
"290 -246 LINE",
"290 -59 LINE",
"495 -59 LINE",
"493 -161 LINE SMOOTH",
"489 -376 OFFCURVE",
"473 -415 OFFCURVE",
"290 -415 CURVE"
);
},
{
closed = 1;
nodes = (
"65 688 LINE",
"266 688 LINE",
"540 317 LINE",
"540 688 LINE",
"719 688 LINE",
"719 0 LINE",
"519 0 LINE",
"243 358 LINE",
"243 0 LINE",
"65 0 LINE"
);
}
);
};
components = (
{
name = N;
},
{
name = commaaccentcomb;
transform = "{1, 0, 0, 1, 92, 0}";
}
);
hints = (
{
horizontal = 1;
place = "{-415, 117}";
},
{
horizontal = 1;
place = "{-246, 187}";
},
{
horizontal = 1;
place = "{0, 21}";
target = up;
type = BottomGhost;
},
{
horizontal = 1;
place = "{688, -20}";
target = down;
type = TopGhost;
}
);
layerId = UUID0;
width = 784;
}
);
leftKerningGroup = B;
rightKerningGroup = H;
unicode = 0145;
},
{
color = 3;
glyphname = Eng;
layers = (
{
background = {
paths = (
{
closed = 1;
nodes = (
"1206 -84 LINE",
"1237 -94 OFFCURVE",
"1260 -99 OFFCURVE",
"1276 -99 CURVE SMOOTH",
"1319 -99 OFFCURVE",
"1341 -71 OFFCURVE",
"1341 -16 CURVE",
"1043 358 LINE",
"1043 0 LINE",
"865 0 LINE",
"865 672 LINE",
"1066 672 LINE",
"1340 317 LINE",
"1340 672 LINE",
"1519 672 LINE",
"1519 -16 LINE SMOOTH",
"1519 -152 OFFCURVE",
"1449 -248 OFFCURVE",
"1331 -248 CURVE SMOOTH",
"1282 -248 OFFCURVE",
"1225 -235 OFFCURVE",
"1160 -208 CURVE"
);
},
{
closed = 1;
nodes = (
"243 0 LINE",
"243 358 LINE",
"557 -49 LINE",
"719 0 LINE",
"719 688 LINE",
"540 688 LINE",
"540 317 LINE",
"266 688 LINE",
"65 688 LINE",
"65 0 LINE"
);
},
{
closed = 1;
nodes = (
"648 -248 OFFCURVE",
"719 -155 OFFCURVE",
"719 -3 CURVE SMOOTH",
"719 169 LINE",
"540 169 LINE",
"540 -13 LINE SMOOTH",
"540 -68 OFFCURVE",
"522 -96 OFFCURVE",
"484 -96 CURVE SMOOTH",
"451 -96 OFFCURVE",
"431 -91 OFFCURVE",
"406 -81 CURVE",
"363 -207 LINE",
"411 -234 OFFCURVE",
"469 -248 OFFCURVE",
"532 -248 CURVE SMOOTH"
);
}
);
};
hints = (
{
horizontal = 1;
place = "{-248, 149}";
},
{
horizontal = 1;
place = "{672, -20}";
target = down;
type = TopGhost;
},
{
horizontal = 1;
place = "{0, 21}";
target = up;
type = BottomGhost;
}
);
layerId = UUID0;
paths = (
{
closed = 1;
nodes = (
"540 317 LINE",
"266 688 LINE",
"65 688 LINE",
"65 0 LINE",
"243 0 LINE",
"243 358 LINE",
"540 -26 LINE",
"537 -73 OFFCURVE",
"519 -96 OFFCURVE",
"484 -96 CURVE SMOOTH",
"451 -96 OFFCURVE",
"431 -91 OFFCURVE",
"406 -81 CURVE",
"363 -207 LINE",
"411 -234 OFFCURVE",
"469 -248 OFFCURVE",
"532 -248 CURVE SMOOTH",
"648 -248 OFFCURVE",
"719 -155 OFFCURVE",
"719 -3 CURVE SMOOTH",
"719 688 LINE",
"540 688 LINE"
);
}
);
width = 784;
}
);
leftKerningGroup = B;
rightKerningGroup = H;
unicode = 014A;
},
{
glyphname = Ntilde;
layers = (
{
background = {
anchors = (
{
name = bottom;
position = "{392, 0}";
},
{
name = top;
position = "{392, 688}";
}
);
paths = (
{
closed = 1;
nodes = (
"291 818 OFFCURVE",
"278 791 OFFCURVE",
"268 765 CURVE",
"150 813 LINE",
"190 924 OFFCURVE",
"254 987 OFFCURVE",
"322 987 CURVE SMOOTH",
"342 987 OFFCURVE",
"365 978 OFFCURVE",
"376 973 CURVE",
"399 959 LINE",
"401 958 OFFCURVE",
"404 956 OFFCURVE",
"409 953 CURVE",
"430 941 LINE",
"441 935 OFFCURVE",
"453 931 OFFCURVE",
"468 931 CURVE SMOOTH",
"491 931 OFFCURVE",
"507 947 OFFCURVE",
"517 976 CURVE",
"635 929 LINE",
"594 813 OFFCURVE",
"540 763 OFFCURVE",
"472 763 CURVE SMOOTH",
"396 763 OFFCURVE",
"370 818 OFFCURVE",
"321 818 CURVE SMOOTH"
);
},
{
closed = 1;
nodes = (
"65 688 LINE",
"266 688 LINE",
"540 317 LINE",
"540 688 LINE",
"719 688 LINE",
"719 0 LINE",
"519 0 LINE",
"243 358 LINE",
"243 0 LINE",
"65 0 LINE"
);
}
);
};
components = (
{
name = N;
},
{
name = tildecomb.case;
transform = "{1, 0, 0, 1, 92, 0}";
}
);
hints = (
{
horizontal = 1;
place = "{763, 169}";
},
{
horizontal = 1;
place = "{818, 169}";
},
{
horizontal = 1;
place = "{0, 21}";
target = up;
type = BottomGhost;
},
{
horizontal = 1;
place = "{688, -20}";
target = down;
type = TopGhost;
}
);
layerId = UUID0;
width = 784;
}
);
leftKerningGroup = B;
rightKerningGroup = H;
unicode = 00D1;
},
{
glyphname = Oacute;
layers = (
{
background = {
anchors = (
{
name = bottom;
position = "{399, 0}";
},
{
name = center;
position = "{399, 344}";
},
{
name = ogonek;
position = "{546, 10}";
},
{
name = top;
position = "{399, 688}";
},
{
name = topleft;
position = "{20, 688}";
},
{
name = topright;
position = "{778, 688}";
}
);
paths = (
{
closed = 1;
nodes = (
"338 870 LINE",
"631 1075 LINE",
"732 896 LINE",
"399 763 LINE"
);
},
{
closed = 1;
nodes = (
"31 442 OFFCURVE",
"63 526 OFFCURVE",
"126 594 CURVE SMOOTH",
"193 667 OFFCURVE",
"285 703 OFFCURVE",
"399 703 CURVE SMOOTH",
"624 703 OFFCURVE",
"767 550 OFFCURVE",
"767 343 CURVE SMOOTH",
"767 155 OFFCURVE",
"635 -16 OFFCURVE",
"399 -16 CURVE SMOOTH",
"158 -16 OFFCURVE",
"31 158 OFFCURVE",
"31 343 CURVE SMOOTH"
);
},
{
closed = 1;
nodes = (
"502 166 OFFCURVE",
"543 263 OFFCURVE",
"543 344 CURVE SMOOTH",
"543 449 OFFCURVE",
"484 527 OFFCURVE",
"398 527 CURVE SMOOTH",
"298 527 OFFCURVE",
"255 430 OFFCURVE",
"255 344 CURVE SMOOTH",
"255 243 OFFCURVE",
"311 166 OFFCURVE",
"399 166 CURVE SMOOTH"
);
}
);
};
components = (
{
name = O;
},
{
name = acutecomb.case;
transform = "{1, 0, 0, 1, 99, 0}";
}
);
hints = (
{
horizontal = 1;
place = "{763, 21}";
target = up;
type = BottomGhost;
},
{
horizontal = 1;
place = "{1075, -20}";
target = down;
type = TopGhost;
},
{
horizontal = 1;
place = "{-16, 182}";
},
{
horizontal = 1;
place = "{527, 175}";
}
);
layerId = UUID0;
width = 798;
}
);
leftKerningGroup = C;
rightKerningGroup = O;
unicode = 00D3;
},
{
glyphname = Obreve;
layers = (
{
background = {
anchors = (
{
name = bottom;
position = "{399, 0}";
},
{
name = center;
position = "{399, 344}";
},
{
name = ogonek;
position = "{546, 10}";
},
{
name = top;
position = "{399, 688}";
},
{
name = topleft;
position = "{20, 688}";
},
{
name = topright;
position = "{778, 688}";
}
);
paths = (
{
closed = 1;
nodes = (
"571 933 LINE",
"571 830 OFFCURVE",
"500 763 OFFCURVE",
"400 763 CURVE SMOOTH",
"298 763 OFFCURVE",
"228 833 OFFCURVE",
"228 933 CURVE",
"339 933 LINE",
"339 898 OFFCURVE",
"364 873 OFFCURVE",
"400 873 CURVE SMOOTH",
"436 873 OFFCURVE",
"458 896 OFFCURVE",
"458 933 CURVE"
);
},
{
closed = 1;
nodes = (
"31 442 OFFCURVE",
"63 526 OFFCURVE",
"126 594 CURVE SMOOTH",
"193 667 OFFCURVE",
"285 703 OFFCURVE",
"399 703 CURVE SMOOTH",
"624 703 OFFCURVE",
"767 550 OFFCURVE",
"767 343 CURVE SMOOTH",
"767 155 OFFCURVE",
"635 -16 OFFCURVE",
"399 -16 CURVE SMOOTH",
"158 -16 OFFCURVE",
"31 158 OFFCURVE",
"31 343 CURVE SMOOTH"
);
},
{
closed = 1;
nodes = (
"502 166 OFFCURVE",
"543 263 OFFCURVE",
"543 344 CURVE SMOOTH",
"543 449 OFFCURVE",
"484 527 OFFCURVE",
"398 527 CURVE SMOOTH",
"298 527 OFFCURVE",
"255 430 OFFCURVE",
"255 344 CURVE SMOOTH",
"255 243 OFFCURVE",
"311 166 OFFCURVE",
"399 166 CURVE SMOOTH"
);
}
);
};
components = (
{
name = O;
},
{
name = brevecomb.case;
transform = "{1, 0, 0, 1, 99, 0}";
}
);
hints = (
{
horizontal = 1;
place = "{763, 110}";
},
{
horizontal = 1;
place = "{763, 171}";
},
{
horizontal = 1;
place = "{-16, 182}";
},
{
horizontal = 1;
place = "{527, 175}";
}
);
layerId = UUID0;
width = 798;
}
);
leftKerningGroup = C;
rightKerningGroup = O;
unicode = 014E;
},
{
glyphname = Ocircumflex;
layers = (
{
background = {
anchors = (
{
name = bottom;
position = "{399, 0}";
},
{
name = center;
position = "{399, 344}";
},
{
name = ogonek;
position = "{546, 10}";
},
{
name = top;
position = "{399, 688}";
},
{
name = topleft;
position = "{20, 688}";
},
{
name = topright;
position = "{778, 688}";
}
);
paths = (
{
closed = 1;
nodes = (
"307 1011 LINE",
"492 1011 LINE",
"615 762 LINE",
"449 762 LINE",
"411 868 LINE",
"399 906 LINE",
"389 868 LINE",
"350 762 LINE",
"184 762 LINE"
);
},
{
closed = 1;
nodes = (
"31 442 OFFCURVE",
"63 526 OFFCURVE",
"126 594 CURVE SMOOTH",
"193 667 OFFCURVE",
"285 703 OFFCURVE",
"399 703 CURVE SMOOTH",
"624 703 OFFCURVE",
"767 550 OFFCURVE",
"767 343 CURVE SMOOTH",
"767 155 OFFCURVE",
"635 -16 OFFCURVE",
"399 -16 CURVE SMOOTH",
"158 -16 OFFCURVE",
"31 158 OFFCURVE",
"31 343 CURVE SMOOTH"
);
},
{
closed = 1;
nodes = (
"502 166 OFFCURVE",
"543 263 OFFCURVE",
"543 344 CURVE SMOOTH",
"543 449 OFFCURVE",
"484 527 OFFCURVE",
"398 527 CURVE SMOOTH",
"298 527 OFFCURVE",
"255 430 OFFCURVE",
"255 344 CURVE SMOOTH",
"255 243 OFFCURVE",
"311 166 OFFCURVE",
"399 166 CURVE SMOOTH"
);
}
);
};
components = (
{
name = O;
},
{
name = circumflexcomb.case;
transform = "{1, 0, 0, 1, 99, 0}";
}
);
hints = (
{
horizontal = 1;
place = "{762, 249}";
},
{
horizontal = 1;
place = "{-16, 182}";
},
{
horizontal = 1;
place = "{527, 175}";
}
);
layerId = UUID0;
width = 798;
}
);
leftKerningGroup = C;
rightKerningGroup = O;
unicode = 00D4;
},
{
glyphname = Odblgrave;
layers = (
{
background = {
anchors = (
{
name = bottom;
position = "{399, 0}";
},
{
name = center;
position = "{399, 344}";
},
{
name = ogonek;
position = "{546, 10}";
},
{
name = top;
position = "{399, 688}";
},
{
name = topleft;
position = "{20, 688}";
},
{
name = topright;
position = "{778, 688}";
}
);
paths = (
{
closed = 1;
nodes = (
"364 1090 LINE",
"561 1147 LINE",
"631 797 LINE",
"512 763 LINE"
);
},
{
closed = 1;
nodes = (
"84 1058 LINE",
"267 1149 LINE",
"398 816 LINE",
"286 762 LINE"
);
},
{
closed = 1;
nodes = (
"31 442 OFFCURVE",
"63 526 OFFCURVE",
"126 594 CURVE SMOOTH",
"193 667 OFFCURVE",
"285 703 OFFCURVE",
"399 703 CURVE SMOOTH",
"624 703 OFFCURVE",
"767 550 OFFCURVE",
"767 343 CURVE SMOOTH",
"767 155 OFFCURVE",
"635 -16 OFFCURVE",
"399 -16 CURVE SMOOTH",
"158 -16 OFFCURVE",
"31 158 OFFCURVE",
"31 343 CURVE SMOOTH"
);
},
{
closed = 1;
nodes = (
"502 166 OFFCURVE",
"543 263 OFFCURVE",
"543 344 CURVE SMOOTH",
"543 449 OFFCURVE",
"484 527 OFFCURVE",
"398 527 CURVE SMOOTH",
"298 527 OFFCURVE",
"255 430 OFFCURVE",
"255 344 CURVE SMOOTH",
"255 243 OFFCURVE",
"311 166 OFFCURVE",
"399 166 CURVE SMOOTH"
);
}
);
};
components = (
{
name = O;
},
{
name = dblgravecomb.case;
transform = "{1, 0, 0, 1, 99, 0}";
}
);
hints = (
{
horizontal = 1;
place = "{762, 21}";
target = up;
type = BottomGhost;
},
{
horizontal = 1;
place = "{1149, -20}";
target = down;
type = TopGhost;
},
{
horizontal = 1;
place = "{-16, 182}";
},
{
horizontal = 1;
place = "{527, 175}";
}
);
layerId = UUID0;
width = 798;
}
);
leftKerningGroup = C;
rightKerningGroup = O;
unicode = 020C;
},
{
glyphname = Odieresis;
layers = (
{
background = {
anchors = (
{
name = bottom;
position = "{399, 0}";
},
{
name = center;
position = "{399, 344}";
},
{
name = ogonek;
position = "{546, 10}";
},
{
name = top;
position = "{399, 688}";
},
{
name = topleft;
position = "{20, 688}";
},
{
name = topright;
position = "{778, 688}";
}
);
paths = (
{
closed = 1;
nodes = (
"438 922 OFFCURVE",
"494 964 OFFCURVE",
"551 964 CURVE SMOOTH",
"619 964 OFFCURVE",
"662 911 OFFCURVE",
"662 862 CURVE SMOOTH",
"662 804 OFFCURVE",
"609 762 OFFCURVE",
"551 762 CURVE SMOOTH",
"484 762 OFFCURVE",
"438 810 OFFCURVE",
"438 862 CURVE SMOOTH"
);
},
{
closed = 1;
nodes = (
"136 920 OFFCURVE",
"190 964 OFFCURVE",
"248 964 CURVE SMOOTH",
"310 964 OFFCURVE",
"361 916 OFFCURVE",
"361 862 CURVE SMOOTH",
"361 802 OFFCURVE",
"305 762 OFFCURVE",
"248 762 CURVE SMOOTH",
"186 762 OFFCURVE",
"136 806 OFFCURVE",
"136 862 CURVE SMOOTH"
);
},
{
closed = 1;
nodes = (
"31 442 OFFCURVE",
"63 526 OFFCURVE",
"126 594 CURVE SMOOTH",
"193 667 OFFCURVE",
"285 703 OFFCURVE",
"399 703 CURVE SMOOTH",
"624 703 OFFCURVE",
"767 550 OFFCURVE",
"767 343 CURVE SMOOTH",
"767 155 OFFCURVE",
"635 -16 OFFCURVE",
"399 -16 CURVE SMOOTH",
"158 -16 OFFCURVE",
"31 158 OFFCURVE",
"31 343 CURVE SMOOTH"
);
},
{
closed = 1;
nodes = (
"502 166 OFFCURVE",
"543 263 OFFCURVE",
"543 344 CURVE SMOOTH",
"543 449 OFFCURVE",
"484 527 OFFCURVE",
"398 527 CURVE SMOOTH",
"298 527 OFFCURVE",
"255 430 OFFCURVE",
"255 344 CURVE SMOOTH",
"255 243 OFFCURVE",
"311 166 OFFCURVE",
"399 166 CURVE SMOOTH"
);
}
);
};
components = (
{
name = O;
},
{
name = dieresiscomb.case;
transform = "{1, 0, 0, 1, 99, 0}";
}
);
hints = (
{
horizontal = 1;
place = "{762, 202}";
},
{
horizontal = 1;
place = "{-16, 182}";
},
{
horizontal = 1;
place = "{527, 175}";
}
);
layerId = UUID0;
width = 798;
}
);
leftKerningGroup = C;
rightKerningGroup = O;
unicode = 00D6;
},
{
glyphname = Ograve;
layers = (
{
background = {
anchors = (
{
name = bottom;
position = "{399, 0}";
},
{
name = center;
position = "{399, 344}";
},
{
name = ogonek;
position = "{546, 10}";
},
{
name = top;
position = "{399, 688}";
},
{
name = topleft;
position = "{20, 688}";
},
{
name = topright;
position = "{778, 688}";
}
);
paths = (
{
closed = 1;
nodes = (
"168 1075 LINE",
"461 870 LINE",
"400 763 LINE",
"67 896 LINE"
);
},
{
closed = 1;
nodes = (
"31 442 OFFCURVE",
"63 526 OFFCURVE",
"126 594 CURVE SMOOTH",
"193 667 OFFCURVE",
"285 703 OFFCURVE",
"399 703 CURVE SMOOTH",
"624 703 OFFCURVE",
"767 550 OFFCURVE",
"767 343 CURVE SMOOTH",
"767 155 OFFCURVE",
"635 -16 OFFCURVE",
"399 -16 CURVE SMOOTH",
"158 -16 OFFCURVE",
"31 158 OFFCURVE",
"31 343 CURVE SMOOTH"
);
},
{
closed = 1;
nodes = (
"502 166 OFFCURVE",
"543 263 OFFCURVE",
"543 344 CURVE SMOOTH",
"543 449 OFFCURVE",
"484 527 OFFCURVE",
"398 527 CURVE SMOOTH",
"298 527 OFFCURVE",
"255 430 OFFCURVE",
"255 344 CURVE SMOOTH",
"255 243 OFFCURVE",
"311 166 OFFCURVE",
"399 166 CURVE SMOOTH"
);
}
);
};
components = (
{
name = O;
},
{
name = gravecomb.case;
transform = "{1, 0, 0, 1, 99, 0}";
}
);
hints = (
{
horizontal = 1;
place = "{763, 21}";
target = up;
type = BottomGhost;
},
{
horizontal = 1;
place = "{1075, -20}";
target = down;
type = TopGhost;
},
{
horizontal = 1;
place = "{-16, 182}";
},
{
horizontal = 1;
place = "{527, 175}";
}
);
layerId = UUID0;
width = 798;
}
);
leftKerningGroup = C;
rightKerningGroup = O;
unicode = 00D2;
},
{
color = 3;
glyphname = Ohorn;
layers = (
{
anchors = (
{
name = bottom;
position = "{399, 0}";
},
{
name = top;
position = "{398, 688}";
}
);
background = {
paths = (
{
closed = 1;
nodes = (
"617 -16 OFFCURVE",
"767 134 OFFCURVE",
"767 343 CURVE SMOOTH",
"767 557 OFFCURVE",
"617 703 OFFCURVE",
"399 703 CURVE SMOOTH",
"181 703 OFFCURVE",
"31 555 OFFCURVE",
"31 343 CURVE SMOOTH",
"31 133 OFFCURVE",
"181 -16 OFFCURVE",
"399 -16 CURVE SMOOTH"
);
},
{
closed = 1;
nodes = (
"314 166 OFFCURVE",
"255 237 OFFCURVE",
"255 344 CURVE SMOOTH",
"255 451 OFFCURVE",
"314 527 OFFCURVE",
"398 527 CURVE SMOOTH",
"483 527 OFFCURVE",
"543 451 OFFCURVE",
"543 344 CURVE SMOOTH",
"543 237 OFFCURVE",
"483 166 OFFCURVE",
"399 166 CURVE SMOOTH"
);
}
);
};
hints = (
{
horizontal = 1;
place = "{-16, 182}";
},
{
horizontal = 1;
place = "{527, 175}";
}
);
layerId = UUID0;
paths = (
{
closed = 1;
nodes = (
"617 -16 OFFCURVE",
"767 134 OFFCURVE",
"767 343 CURVE SMOOTH",
"767 443 OFFCURVE",
"734 530 OFFCURVE",
"669 599 CURVE",
"753 610 OFFCURVE",
"787 660 OFFCURVE",
"787 792 CURVE",
"670 792 LINE",
"670 703 OFFCURVE",
"651 689 OFFCURVE",
"586 689 CURVE SMOOTH",
"521 689 OFFCURVE",
"476 703 OFFCURVE",
"399 703 CURVE SMOOTH",
"181 703 OFFCURVE",
"31 555 OFFCURVE",
"31 343 CURVE SMOOTH",
"31 133 OFFCURVE",
"181 -16 OFFCURVE",
"399 -16 CURVE SMOOTH"
);
},
{
closed = 1;
nodes = (
"314 166 OFFCURVE",
"255 237 OFFCURVE",
"255 344 CURVE SMOOTH",
"255 451 OFFCURVE",
"314 527 OFFCURVE",
"398 527 CURVE SMOOTH",
"483 527 OFFCURVE",
"543 451 OFFCURVE",
"543 344 CURVE SMOOTH",
"543 237 OFFCURVE",
"483 166 OFFCURVE",
"399 166 CURVE SMOOTH"
);
}
);
width = 798;
}
);
leftKerningGroup = C;
leftMetricsKey = O;
widthMetricsKey = O;
rightKerningGroup = O;
unicode = 01A0;
},
{
glyphname = Ohungarumlaut;
layers = (
{
background = {
anchors = (
{
name = bottom;
position = "{399, 0}";
},
{
name = center;
position = "{399, 344}";
},
{
name = ogonek;
position = "{546, 10}";
},
{
name = top;
position = "{399, 688}";
},
{
name = topleft;
position = "{20, 688}";
},
{
name = topright;
position = "{778, 688}";
}
);
paths = (
{
closed = 1;
nodes = (
"238 1147 LINE",
"433 1090 LINE",
"287 763 LINE",
"168 797 LINE"
);
},
{
closed = 1;
nodes = (
"532 1149 LINE",
"715 1058 LINE",
"511 762 LINE",
"401 816 LINE"
);
},
{
closed = 1;
nodes = (
"31 442 OFFCURVE",
"63 526 OFFCURVE",
"126 594 CURVE SMOOTH",
"193 667 OFFCURVE",
"285 703 OFFCURVE",
"399 703 CURVE SMOOTH",
"624 703 OFFCURVE",
"767 550 OFFCURVE",
"767 343 CURVE SMOOTH",
"767 155 OFFCURVE",
"635 -16 OFFCURVE",
"399 -16 CURVE SMOOTH",
"158 -16 OFFCURVE",
"31 158 OFFCURVE",
"31 343 CURVE SMOOTH"
);
},
{
closed = 1;
nodes = (
"502 166 OFFCURVE",
"543 263 OFFCURVE",
"543 344 CURVE SMOOTH",
"543 449 OFFCURVE",
"484 527 OFFCURVE",
"398 527 CURVE SMOOTH",
"298 527 OFFCURVE",
"255 430 OFFCURVE",
"255 344 CURVE SMOOTH",
"255 243 OFFCURVE",
"311 166 OFFCURVE",
"399 166 CURVE SMOOTH"
);
}
);
};
components = (
{
name = O;
},
{
name = hungarumlautcomb.case;
transform = "{1, 0, 0, 1, 99, 0}";
}
);
hints = (
{
horizontal = 1;
place = "{762, 21}";
target = up;
type = BottomGhost;
},
{
horizontal = 1;
place = "{1149, -20}";
target = down;
type = TopGhost;
},
{
horizontal = 1;
place = "{-16, 182}";
},
{
horizontal = 1;
place = "{527, 175}";
}
);
layerId = UUID0;
width = 798;
}
);
leftKerningGroup = C;
rightKerningGroup = O;
unicode = 0150;
},
{
glyphname = Oinvertedbreve;
layers = (
{
background = {
anchors = (
{
name = bottom;
position = "{399, 0}";
},
{
name = center;
position = "{399, 344}";
},
{
name = ogonek;
position = "{546, 10}";
},
{
name = top;
position = "{399, 688}";
},
{
name = topleft;
position = "{20, 688}";
},
{
name = topright;
position = "{778, 688}";
}
);
paths = (
{
closed = 1;
nodes = (
"461 762 LINE",
"461 798 OFFCURVE",
"434 824 OFFCURVE",
"399 824 CURVE SMOOTH",
"364 824 OFFCURVE",
"338 798 OFFCURVE",
"338 762 CURVE",
"217 762 LINE",
"217 875 OFFCURVE",
"293 948 OFFCURVE",
"399 948 CURVE SMOOTH",
"508 948 OFFCURVE",
"581 871 OFFCURVE",
"581 762 CURVE"
);
},
{
closed = 1;
nodes = (
"31 442 OFFCURVE",
"63 526 OFFCURVE",
"126 594 CURVE SMOOTH",
"193 667 OFFCURVE",
"285 703 OFFCURVE",
"399 703 CURVE SMOOTH",
"624 703 OFFCURVE",
"767 550 OFFCURVE",
"767 343 CURVE SMOOTH",
"767 155 OFFCURVE",
"635 -16 OFFCURVE",
"399 -16 CURVE SMOOTH",
"158 -16 OFFCURVE",
"31 158 OFFCURVE",
"31 343 CURVE SMOOTH"
);
},
{
closed = 1;
nodes = (
"502 166 OFFCURVE",
"543 263 OFFCURVE",
"543 344 CURVE SMOOTH",
"543 449 OFFCURVE",
"484 527 OFFCURVE",
"398 527 CURVE SMOOTH",
"298 527 OFFCURVE",
"255 430 OFFCURVE",
"255 344 CURVE SMOOTH",
"255 243 OFFCURVE",
"311 166 OFFCURVE",
"399 166 CURVE SMOOTH"
);
}
);
};
components = (
{
name = O;
},
{
name = breveinvertedcomb.case;
transform = "{1, 0, 0, 1, 99, 0}";
}
);
hints = (
{
horizontal = 1;
place = "{762, 186}";
},
{
horizontal = 1;
place = "{824, 124}";
},
{
horizontal = 1;
place = "{-16, 182}";
},
{
horizontal = 1;
place = "{527, 175}";
}
);
layerId = UUID0;
width = 798;
}
);
leftKerningGroup = C;
rightKerningGroup = O;
unicode = 020E;
},
{
glyphname = Omacron;
layers = (
{
background = {
anchors = (
{
name = bottom;
position = "{399, 0}";
},
{
name = center;
position = "{399, 344}";
},
{
name = ogonek;
position = "{546, 10}";
},
{
name = top;
position = "{399, 688}";
},
{
name = topleft;
position = "{20, 688}";
},
{
name = topright;
position = "{778, 688}";
}
);
paths = (
{
closed = 1;
nodes = (
"265 880 LINE",
"534 880 LINE",
"534 762 LINE",
"265 762 LINE"
);
},
{
closed = 1;
nodes = (
"31 442 OFFCURVE",
"63 526 OFFCURVE",
"126 594 CURVE SMOOTH",
"193 667 OFFCURVE",
"285 703 OFFCURVE",
"399 703 CURVE SMOOTH",
"624 703 OFFCURVE",
"767 550 OFFCURVE",
"767 343 CURVE SMOOTH",
"767 155 OFFCURVE",
"635 -16 OFFCURVE",
"399 -16 CURVE SMOOTH",
"158 -16 OFFCURVE",
"31 158 OFFCURVE",
"31 343 CURVE SMOOTH"
);
},
{
closed = 1;
nodes = (
"502 166 OFFCURVE",
"543 263 OFFCURVE",
"543 344 CURVE SMOOTH",
"543 449 OFFCURVE",
"484 527 OFFCURVE",
"398 527 CURVE SMOOTH",
"298 527 OFFCURVE",
"255 430 OFFCURVE",
"255 344 CURVE SMOOTH",
"255 243 OFFCURVE",
"311 166 OFFCURVE",
"399 166 CURVE SMOOTH"
);
}
);
};
components = (
{
name = O;
},
{
name = macroncomb.case;
transform = "{1, 0, 0, 1, 99, 0}";
}
);
hints = (
{
horizontal = 1;
place = "{762, 118}";
},
{
horizontal = 1;
place = "{-16, 182}";
},
{
horizontal = 1;
place = "{527, 175}";
}
);
layerId = UUID0;
width = 798;
}
);
leftKerningGroup = C;
rightKerningGroup = O;
unicode = 014C;
},
{
color = 3;
glyphname = Oogonek;
layers = (
{
anchors = (
{
name = top;
position = "{399, 688}";
}
);
background = {
paths = (
{
closed = 1;
nodes = (
"617 -16 OFFCURVE",
"767 134 OFFCURVE",
"767 343 CURVE SMOOTH",
"767 557 OFFCURVE",
"617 703 OFFCURVE",
"399 703 CURVE SMOOTH",
"181 703 OFFCURVE",
"31 555 OFFCURVE",
"31 343 CURVE SMOOTH",
"31 133 OFFCURVE",
"181 -16 OFFCURVE",
"399 -16 CURVE SMOOTH"
);
},
{
closed = 1;
nodes = (
"314 166 OFFCURVE",
"255 237 OFFCURVE",
"255 344 CURVE SMOOTH",
"255 451 OFFCURVE",
"314 527 OFFCURVE",
"398 527 CURVE SMOOTH",
"483 527 OFFCURVE",
"543 451 OFFCURVE",
"543 344 CURVE SMOOTH",
"543 237 OFFCURVE",
"483 166 OFFCURVE",
"399 166 CURVE SMOOTH"
);
},
{
closed = 1;
nodes = (
"479 -238 OFFCURVE",
"512 -233 OFFCURVE",
"543 -220 CURVE",
"542 -162 LINE",
"524 -168 OFFCURVE",
"507 -171 OFFCURVE",
"495 -171 CURVE SMOOTH",
"463 -171 OFFCURVE",
"447 -157 OFFCURVE",
"447 -130 CURVE SMOOTH",
"447 -91 OFFCURVE",
"478 -46 OFFCURVE",
"546 10 CURVE",
"478 20 LINE",
"375 -27 OFFCURVE",
"319 -87 OFFCURVE",
"319 -148 CURVE SMOOTH",
"319 -202 OFFCURVE",
"364 -238 OFFCURVE",
"450 -238 CURVE SMOOTH"
);
}
);
};
hints = (
{
horizontal = 1;
place = "{-16, 182}";
},
{
horizontal = 1;
place = "{527, 175}";
},
{
horizontal = 1;
place = "{-238, 52}";
},
{
horizontal = 1;
place = "{10, -20}";
target = down;
type = TopGhost;
}
);
layerId = UUID0;
paths = (
{
closed = 1;
nodes = (
"705 99 OFFCURVE",
"767 209 OFFCURVE",
"767 343 CURVE SMOOTH",
"767 557 OFFCURVE",
"617 703 OFFCURVE",
"399 703 CURVE SMOOTH",
"181 703 OFFCURVE",
"31 555 OFFCURVE",
"31 343 CURVE SMOOTH",
"31 133 OFFCURVE",
"181 -16 OFFCURVE",
"399 -16 CURVE SMOOTH",
"420 -16 LINE",
"347 -56 OFFCURVE",
"319 -102 OFFCURVE",
"319 -148 CURVE SMOOTH",
"319 -202 OFFCURVE",
"364 -238 OFFCURVE",
"450 -238 CURVE SMOOTH",
"479 -238 OFFCURVE",
"512 -233 OFFCURVE",
"543 -220 CURVE",
"542 -162 LINE",
"524 -168 OFFCURVE",
"507 -171 OFFCURVE",
"495 -171 CURVE SMOOTH",
"463 -171 OFFCURVE",
"447 -157 OFFCURVE",
"447 -130 CURVE SMOOTH",
"447 -91 OFFCURVE",
"472 -41 OFFCURVE",
"604 38 CURVE SMOOTH"
);
},
{
closed = 1;
nodes = (
"255 451 OFFCURVE",
"314 527 OFFCURVE",
"398 527 CURVE SMOOTH",
"483 527 OFFCURVE",
"543 451 OFFCURVE",
"543 344 CURVE SMOOTH",
"543 237 OFFCURVE",
"483 166 OFFCURVE",
"399 166 CURVE SMOOTH",
"314 166 OFFCURVE",
"255 237 OFFCURVE",
"255 344 CURVE SMOOTH"
);
}
);
width = 798;
}
);
leftKerningGroup = C;
rightKerningGroup = O;
unicode = 01EA;
},
{
color = 3;
glyphname = Oslash;
layers = (
{
anchors = (
{
name = bottom;
position = "{400, 0}";
},
{
name = top;
position = "{400, 688}";
}
);
background = {
paths = (
{
closed = 1;
nodes = (
"307 -166 LINE",
"346 -13 LINE",
"363 -15 OFFCURVE",
"381 -16 OFFCURVE",
"400 -16 CURVE SMOOTH",
"636 -16 OFFCURVE",
"767 154 OFFCURVE",
"767 343 CURVE SMOOTH",
"767 513 OFFCURVE",
"670 639 OFFCURVE",
"525 685 CURVE",
"560 819 LINE",
"492 819 LINE",
"461 699 LINE",
"441 701 OFFCURVE",
"421 703 OFFCURVE",
"400 703 CURVE SMOOTH",
"285 703 OFFCURVE",
"194 667 OFFCURVE",
"126 594 CURVE SMOOTH",
"63 526 OFFCURVE",
"32 442 OFFCURVE",
"32 343 CURVE SMOOTH",
"32 172 OFFCURVE",
"132 43 OFFCURVE",
"283 0 CURVE",
"240 -166 LINE"
);
},
{
closed = 1;
nodes = (
"283 214 OFFCURVE",
"255 271 OFFCURVE",
"255 344 CURVE SMOOTH",
"255 439 OFFCURVE",
"304 526 OFFCURVE",
"400 527 CURVE",
"410 526 OFFCURVE",
"416 525 OFFCURVE",
"417 525 CURVE",
"330 185 LINE"
);
},
{
closed = 1;
nodes = (
"478 500 LINE",
"519 469 OFFCURVE",
"543 415 OFFCURVE",
"543 344 CURVE SMOOTH",
"543 262 OFFCURVE",
"502 166 OFFCURVE",
"400 166 CURVE SMOOTH",
"392 166 LINE"
);
}
);
};
hints = (
{
horizontal = 1;
place = "{-16, 182}";
},
{
horizontal = 1;
place = "{527, 175}";
},
{
horizontal = 1;
place = "{-166, 21}";
target = up;
type = BottomGhost;
},
{
horizontal = 1;
place = "{819, -20}";
target = down;
type = TopGhost;
}
);
layerId = UUID0;
paths = (
{
closed = 1;
nodes = (
"307 -126 LINE",
"577 813 LINE",
"492 813 LINE",
"222 -126 LINE"
);
},
{
closed = 1;
nodes = (
"617 -16 OFFCURVE",
"767 134 OFFCURVE",
"767 343 CURVE SMOOTH",
"767 557 OFFCURVE",
"617 703 OFFCURVE",
"399 703 CURVE SMOOTH",
"181 703 OFFCURVE",
"31 555 OFFCURVE",
"31 343 CURVE SMOOTH",
"31 133 OFFCURVE",
"181 -16 OFFCURVE",
"399 -16 CURVE SMOOTH"
);
},
{
closed = 1;
nodes = (
"314 166 OFFCURVE",
"255 237 OFFCURVE",
"255 344 CURVE SMOOTH",
"255 451 OFFCURVE",
"314 527 OFFCURVE",
"398 527 CURVE SMOOTH",
"483 527 OFFCURVE",
"543 451 OFFCURVE",
"543 344 CURVE SMOOTH",
"543 237 OFFCURVE",
"483 166 OFFCURVE",
"399 166 CURVE SMOOTH"
);
}
);
width = 799;
}
);
leftKerningGroup = C;
rightKerningGroup = O;
unicode = 00D8;
},
{
glyphname = Otilde;
layers = (
{
background = {
anchors = (
{
name = bottom;
position = "{399, 0}";
},
{
name = center;
position = "{399, 344}";
},
{
name = ogonek;
position = "{546, 10}";
},
{
name = top;
position = "{399, 688}";
},
{
name = topleft;
position = "{20, 688}";
},
{
name = topright;
position = "{778, 688}";
}
);
paths = (
{
closed = 1;
nodes = (
"298 818 OFFCURVE",
"285 791 OFFCURVE",
"275 765 CURVE",
"157 813 LINE",
"197 924 OFFCURVE",
"261 987 OFFCURVE",
"329 987 CURVE SMOOTH",
"349 987 OFFCURVE",
"372 978 OFFCURVE",
"383 973 CURVE",
"406 959 LINE",
"408 958 OFFCURVE",
"411 956 OFFCURVE",
"416 953 CURVE",
"437 941 LINE",
"448 935 OFFCURVE",
"460 931 OFFCURVE",
"475 931 CURVE SMOOTH",
"498 931 OFFCURVE",
"514 947 OFFCURVE",
"524 976 CURVE",
"642 929 LINE",
"601 813 OFFCURVE",
"547 763 OFFCURVE",
"479 763 CURVE SMOOTH",
"403 763 OFFCURVE",
"377 818 OFFCURVE",
"328 818 CURVE SMOOTH"
);
},
{
closed = 1;
nodes = (
"31 442 OFFCURVE",
"63 526 OFFCURVE",
"126 594 CURVE SMOOTH",
"193 667 OFFCURVE",
"285 703 OFFCURVE",
"399 703 CURVE SMOOTH",
"624 703 OFFCURVE",
"767 550 OFFCURVE",
"767 343 CURVE SMOOTH",
"767 155 OFFCURVE",
"635 -16 OFFCURVE",
"399 -16 CURVE SMOOTH",
"158 -16 OFFCURVE",
"31 158 OFFCURVE",
"31 343 CURVE SMOOTH"
);
},
{
closed = 1;
nodes = (
"502 166 OFFCURVE",
"543 263 OFFCURVE",
"543 344 CURVE SMOOTH",
"543 449 OFFCURVE",
"484 527 OFFCURVE",
"398 527 CURVE SMOOTH",
"298 527 OFFCURVE",
"255 430 OFFCURVE",
"255 344 CURVE SMOOTH",
"255 243 OFFCURVE",
"311 166 OFFCURVE",
"399 166 CURVE SMOOTH"
);
}
);
};
components = (
{
name = O;
},
{
name = tildecomb.case;
transform = "{1, 0, 0, 1, 99, 0}";
}
);
hints = (
{
horizontal = 1;
place = "{763, 169}";
},
{
horizontal = 1;
place = "{818, 169}";
},
{
horizontal = 1;
place = "{-16, 182}";
},
{
horizontal = 1;
place = "{527, 175}";
}
);
layerId = UUID0;
width = 798;
}
);
leftKerningGroup = C;
rightKerningGroup = O;
unicode = 00D5;
},
{
color = 3;
glyphname = OE;
layers = (
{
anchors = (
{
name = bottom;
position = "{512, 0}";
},
{
name = top;
position = "{512, 688}";
}
);
background = {
anchors = (
{
name = bottom;
position = "{512, 0}";
},
{
name = top;
position = "{512, 688}";
}
);
paths = (
{
closed = 1;
nodes = (
"389 -16 OFFCURVE",
"451 2 OFFCURVE",
"495 33 CURVE",
"495 0 LINE",
"976 0 LINE",
"976 150 LINE",
"736 150 LINE",
"736 285 LINE",
"955 285 LINE",
"955 411 LINE",
"736 411 LINE",
"736 536 LINE",
"976 536 LINE",
"976 688 LINE",
"498 688 LINE",
"498 655 LINE",
"456 687 OFFCURVE",
"406 703 OFFCURVE",
"348 703 CURVE SMOOTH",
"181 703 OFFCURVE",
"31 532 OFFCURVE",
"31 342 CURVE SMOOTH",
"31 137 OFFCURVE",
"163 -16 OFFCURVE",
"340 -16 CURVE SMOOTH"
);
},
{
closed = 1;
nodes = (
"303 165 OFFCURVE",
"255 232 OFFCURVE",
"255 344 CURVE SMOOTH",
"255 451 OFFCURVE",
"311 526 OFFCURVE",
"389 526 CURVE SMOOTH",
"423 526 OFFCURVE",
"456 518 OFFCURVE",
"495 500 CURVE",
"495 191 LINE",
"456 172 OFFCURVE",
"423 165 OFFCURVE",
"385 165 CURVE SMOOTH"
);
}
);
};
hints = (
{
horizontal = 1;
place = "{-16, 181}";
},
{
horizontal = 1;
place = "{0, 150}";
},
{
horizontal = 1;
place = "{285, 126}";
},
{
horizontal = 1;
place = "{513, 159}";
},
{
horizontal = 1;
place = "{513, 178}";
}
);
layerId = UUID0;
paths = (
{
closed = 1;
nodes = (
"389 -16 OFFCURVE",
"451 2 OFFCURVE",
"495 33 CURVE",
"495 0 LINE",
"976 0 LINE",
"976 150 LINE",
"736 150 LINE",
"736 285 LINE",
"955 285 LINE",
"955 411 LINE",
"736 411 LINE",
"736 536 LINE",
"976 536 LINE",
"976 688 LINE",
"498 688 LINE",
"498 655 LINE",
"456 687 OFFCURVE",
"406 703 OFFCURVE",
"348 703 CURVE SMOOTH",
"162 703 OFFCURVE",
"31 547 OFFCURVE",
"31 342 CURVE SMOOTH",
"31 137 OFFCURVE",
"162 -16 OFFCURVE",
"340 -16 CURVE SMOOTH"
);
},
{
closed = 1;
nodes = (
"307 165 OFFCURVE",
"255 232 OFFCURVE",
"255 344 CURVE SMOOTH",
"255 456 OFFCURVE",
"307 526 OFFCURVE",
"387 526 CURVE SMOOTH",
"423 526 OFFCURVE",
"456 518 OFFCURVE",
"495 500 CURVE",
"495 191 LINE",
"456 172 OFFCURVE",
"423 165 OFFCURVE",
"387 165 CURVE SMOOTH"
);
}
);
width = 1023;
}
);
leftKerningGroup = C;
rightKerningGroup = E;
unicode = 0152;
},
{
glyphname = Thorn;
layers = (
{
background = {
paths = (
{
closed = 1;
nodes = (
"65 688 LINE",
"280 688 LINE",
"280 618 LINE",
"313 618 LINE SMOOTH",
"519 618 OFFCURVE",
"636 535 OFFCURVE",
"636 391 CURVE SMOOTH",
"636 252 OFFCURVE",
"500 166 OFFCURVE",
"322 166 CURVE SMOOTH",
"280 166 LINE",
"280 0 LINE",
"65 0 LINE"
);
},
{
closed = 1;
nodes = (
"391 305 OFFCURVE",
"435 333 OFFCURVE",
"435 391 CURVE SMOOTH",
"435 444 OFFCURVE",
"385 475 OFFCURVE",
"323 475 CURVE SMOOTH",
"280 475 LINE",
"280 307 LINE",
"291 305 OFFCURVE",
"304 305 OFFCURVE",
"323 305 CURVE SMOOTH"
);
}
);
};
hints = (
{
horizontal = 1;
place = "{166, 139}";
},
{
horizontal = 1;
place = "{475, 144}";
},
{
horizontal = 1;
place = "{0, 21}";
target = up;
type = BottomGhost;
},
{
horizontal = 1;
place = "{688, -20}";
target = down;
type = TopGhost;
}
);
layerId = UUID0;
paths = (
{
closed = 1;
nodes = (
"280 0 LINE",
"280 166 LINE",
"322 166 LINE SMOOTH",
"500 166 OFFCURVE",
"636 252 OFFCURVE",
"636 391 CURVE SMOOTH",
"636 535 OFFCURVE",
"519 618 OFFCURVE",
"313 618 CURVE SMOOTH",
"280 618 LINE",
"280 688 LINE",
"65 688 LINE",
"65 0 LINE"
);
},
{
closed = 1;
nodes = (
"304 305 OFFCURVE",
"291 305 OFFCURVE",
"280 307 CURVE",
"280 475 LINE",
"323 475 LINE SMOOTH",
"385 475 OFFCURVE",
"435 444 OFFCURVE",
"435 391 CURVE SMOOTH",
"435 333 OFFCURVE",
"391 305 OFFCURVE",
"323 305 CURVE SMOOTH"
);
}
);
width = 651;
}
);
leftKerningGroup = B;
unicode = 00DE;
},
{
glyphname = Racute;
layers = (
{
background = {
anchors = (
{
name = bottom;
position = "{349, 0}";
},
{
name = top;
position = "{349, 688}";
}
);
paths = (
{
closed = 1;
nodes = (
"157 870 LINE",
"450 1075 LINE",
"551 896 LINE",
"218 763 LINE"
);
},
{
closed = 1;
nodes = (
"678 2 LINE",
"636 -10 OFFCURVE",
"605 -16 OFFCURVE",
"586 -16 CURVE SMOOTH",
"465 -16 OFFCURVE",
"389 40 OFFCURVE",
"358 149 CURVE",
"331 261 LINE",
"284 261 LINE",
"284 0 LINE",
"65 0 LINE",
"65 688 LINE",
"371 688 LINE SMOOTH",
"530 688 OFFCURVE",
"657 615 OFFCURVE",
"657 485 CURVE SMOOTH",
"657 390 OFFCURVE",
"608 334 OFFCURVE",
"524 298 CURVE",
"529 274 LINE SMOOTH",
"531 263 OFFCURVE",
"533 255 OFFCURVE",
"534 250 CURVE SMOOTH",
"540 229 LINE",
"555 180 OFFCURVE",
"577 161 OFFCURVE",
"644 161 CURVE SMOOTH",
"649 161 OFFCURVE",
"660 163 OFFCURVE",
"678 165 CURVE"
);
},
{
closed = 1;
nodes = (
"457 527 OFFCURVE",
"411 539 OFFCURVE",
"353 539 CURVE SMOOTH",
"284 539 LINE",
"284 401 LINE",
"322 401 LINE",
"354 403 LINE",
"405 407 OFFCURVE",
"457 419 OFFCURVE",
"457 476 CURVE SMOOTH"
);
}
);
};
components = (
{
name = R;
},
{
name = acutecomb.case;
transform = "{1, 0, 0, 1, 49, 0}";
}
);
hints = (
{
horizontal = 1;
place = "{763, 21}";
target = up;
type = BottomGhost;
},
{
horizontal = 1;
place = "{1075, -20}";
target = down;
type = TopGhost;
},
{
horizontal = 1;
place = "{-16, 177}";
},
{
horizontal = 1;
place = "{539, 148}";
},
{
horizontal = 1;
place = "{0, 21}";
target = up;
type = BottomGhost;
}
);
layerId = UUID0;
width = 698;
}
);
leftKerningGroup = B;
rightKerningGroup = R;
unicode = 0154;
},
{
glyphname = Rcaron;
layers = (
{
background = {
anchors = (
{
name = bottom;
position = "{349, 0}";
},
{
name = top;
position = "{349, 688}";
}
);
paths = (
{
closed = 1;
nodes = (
"3 1011 LINE",
"169 1011 LINE",
"208 904 LINE",
"218 865 LINE",
"229 900 OFFCURVE",
"256 974 OFFCURVE",
"268 1011 CURVE",
"434 1011 LINE",
"311 762 LINE",
"126 762 LINE"
);
},
{
closed = 1;
nodes = (
"678 2 LINE",
"636 -10 OFFCURVE",
"605 -16 OFFCURVE",
"586 -16 CURVE SMOOTH",
"465 -16 OFFCURVE",
"389 40 OFFCURVE",
"358 149 CURVE",
"331 261 LINE",
"284 261 LINE",
"284 0 LINE",
"65 0 LINE",
"65 688 LINE",
"371 688 LINE SMOOTH",
"530 688 OFFCURVE",
"657 615 OFFCURVE",
"657 485 CURVE SMOOTH",
"657 390 OFFCURVE",
"608 334 OFFCURVE",
"524 298 CURVE",
"529 274 LINE SMOOTH",
"531 263 OFFCURVE",
"533 255 OFFCURVE",
"534 250 CURVE SMOOTH",
"540 229 LINE",
"555 180 OFFCURVE",
"577 161 OFFCURVE",
"644 161 CURVE SMOOTH",
"649 161 OFFCURVE",
"660 163 OFFCURVE",
"678 165 CURVE"
);
},
{
closed = 1;
nodes = (
"457 527 OFFCURVE",
"411 539 OFFCURVE",
"353 539 CURVE SMOOTH",
"284 539 LINE",
"284 401 LINE",
"322 401 LINE",
"354 403 LINE",
"405 407 OFFCURVE",
"457 419 OFFCURVE",
"457 476 CURVE SMOOTH"
);
}
);
};
components = (
{
name = R;
},
{
name = caroncomb.case;
transform = "{1, 0, 0, 1, 49, 0}";
}
);
hints = (
{
horizontal = 1;
place = "{762, 249}";
},
{
horizontal = 1;
place = "{-16, 177}";
},
{
horizontal = 1;
place = "{539, 148}";
},
{
horizontal = 1;
place = "{0, 21}";
target = up;
type = BottomGhost;
}
);
layerId = UUID0;
width = 698;
}
);
leftKerningGroup = B;
rightKerningGroup = R;
unicode = 0158;
},
{
glyphname = Rcommaaccent;
layers = (
{
background = {
anchors = (
{
name = bottom;
position = "{349, 0}";
},
{
name = top;
position = "{349, 688}";
}
);
paths = (
{
closed = 1;
nodes = (
"261 -313 LINE",
"350 -313 OFFCURVE",
"354 -314 OFFCURVE",
"354 -261 CURVE",
"261 -261 LINE",
"261 -74 LINE",
"466 -74 LINE",
"464 -176 LINE SMOOTH",
"460 -391 OFFCURVE",
"444 -430 OFFCURVE",
"261 -430 CURVE"
);
},
{
closed = 1;
nodes = (
"678 2 LINE",
"636 -10 OFFCURVE",
"605 -16 OFFCURVE",
"586 -16 CURVE SMOOTH",
"465 -16 OFFCURVE",
"389 40 OFFCURVE",
"358 149 CURVE",
"331 261 LINE",
"284 261 LINE",
"284 0 LINE",
"65 0 LINE",
"65 688 LINE",
"371 688 LINE SMOOTH",
"530 688 OFFCURVE",
"657 615 OFFCURVE",
"657 485 CURVE SMOOTH",
"657 390 OFFCURVE",
"608 334 OFFCURVE",
"524 298 CURVE",
"529 274 LINE SMOOTH",
"531 263 OFFCURVE",
"533 255 OFFCURVE",
"534 250 CURVE SMOOTH",
"540 229 LINE",
"555 180 OFFCURVE",
"577 161 OFFCURVE",
"644 161 CURVE SMOOTH",
"649 161 OFFCURVE",
"660 163 OFFCURVE",
"678 165 CURVE"
);
},
{
closed = 1;
nodes = (
"457 527 OFFCURVE",
"411 539 OFFCURVE",
"353 539 CURVE SMOOTH",
"284 539 LINE",
"284 401 LINE",
"322 401 LINE",
"354 403 LINE",
"405 407 OFFCURVE",
"457 419 OFFCURVE",
"457 476 CURVE SMOOTH"
);
}
);
};
components = (
{
name = R;
},
{
name = commaaccentcomb;
transform = "{1, 0, 0, 1, 49, 0}";
}
);
hints = (
{
horizontal = 1;
place = "{-430, 117}";
},
{
horizontal = 1;
place = "{-261, 187}";
},
{
horizontal = 1;
place = "{-16, 177}";
},
{
horizontal = 1;
place = "{539, 148}";
},
{
horizontal = 1;
place = "{0, 21}";
target = up;
type = BottomGhost;
}
);
layerId = UUID0;
width = 698;
}
);
leftKerningGroup = B;
rightKerningGroup = R;
unicode = 0156;
},
{
glyphname = Rdblgrave;
layers = (
{
background = {
anchors = (
{
name = bottom;
position = "{349, 0}";
},
{
name = top;
position = "{349, 688}";
}
);
paths = (
{
closed = 1;
nodes = (
"184 1090 LINE",
"381 1147 LINE",
"451 797 LINE",
"332 763 LINE"
);
},
{
closed = 1;
nodes = (
"-96 1058 LINE",
"87 1149 LINE",
"218 816 LINE",
"106 762 LINE"
);
},
{
closed = 1;
nodes = (
"678 2 LINE",
"636 -10 OFFCURVE",
"605 -16 OFFCURVE",
"586 -16 CURVE SMOOTH",
"465 -16 OFFCURVE",
"389 40 OFFCURVE",
"358 149 CURVE",
"331 261 LINE",
"284 261 LINE",
"284 0 LINE",
"65 0 LINE",
"65 688 LINE",
"371 688 LINE SMOOTH",
"530 688 OFFCURVE",
"657 615 OFFCURVE",
"657 485 CURVE SMOOTH",
"657 390 OFFCURVE",
"608 334 OFFCURVE",
"524 298 CURVE",
"529 274 LINE SMOOTH",
"531 263 OFFCURVE",
"533 255 OFFCURVE",
"534 250 CURVE SMOOTH",
"540 229 LINE",
"555 180 OFFCURVE",
"577 161 OFFCURVE",
"644 161 CURVE SMOOTH",
"649 161 OFFCURVE",
"660 163 OFFCURVE",
"678 165 CURVE"
);
},
{
closed = 1;
nodes = (
"457 527 OFFCURVE",
"411 539 OFFCURVE",
"353 539 CURVE SMOOTH",
"284 539 LINE",
"284 401 LINE",
"322 401 LINE",
"354 403 LINE",
"405 407 OFFCURVE",
"457 419 OFFCURVE",
"457 476 CURVE SMOOTH"
);
}
);
};
components = (
{
name = R;
},
{
name = dblgravecomb.case;
transform = "{1, 0, 0, 1, 49, 0}";
}
);
hints = (
{
horizontal = 1;
place = "{762, 21}";
target = up;
type = BottomGhost;
},
{
horizontal = 1;
place = "{1149, -20}";
target = down;
type = TopGhost;
},
{
horizontal = 1;
place = "{-16, 177}";
},
{
horizontal = 1;
place = "{539, 148}";
},
{
horizontal = 1;
place = "{0, 21}";
target = up;
type = BottomGhost;
}
);
layerId = UUID0;
width = 698;
}
);
leftKerningGroup = B;
rightKerningGroup = R;
unicode = 0210;
},
{
glyphname = Rinvertedbreve;
layers = (
{
background = {
anchors = (
{
name = bottom;
position = "{349, 0}";
},
{
name = top;
position = "{349, 688}";
}
);
paths = (
{
closed = 1;
nodes = (
"280 762 LINE",
"280 798 OFFCURVE",
"253 824 OFFCURVE",
"218 824 CURVE SMOOTH",
"183 824 OFFCURVE",
"157 798 OFFCURVE",
"157 762 CURVE",
"36 762 LINE",
"36 875 OFFCURVE",
"112 948 OFFCURVE",
"218 948 CURVE SMOOTH",
"327 948 OFFCURVE",
"400 871 OFFCURVE",
"400 762 CURVE"
);
},
{
closed = 1;
nodes = (
"678 2 LINE",
"636 -10 OFFCURVE",
"605 -16 OFFCURVE",
"586 -16 CURVE SMOOTH",
"465 -16 OFFCURVE",
"389 40 OFFCURVE",
"358 149 CURVE",
"331 261 LINE",
"284 261 LINE",
"284 0 LINE",
"65 0 LINE",
"65 688 LINE",
"371 688 LINE SMOOTH",
"530 688 OFFCURVE",
"657 615 OFFCURVE",
"657 485 CURVE SMOOTH",
"657 390 OFFCURVE",
"608 334 OFFCURVE",
"524 298 CURVE",
"529 274 LINE SMOOTH",
"531 263 OFFCURVE",
"533 255 OFFCURVE",
"534 250 CURVE SMOOTH",
"540 229 LINE",
"555 180 OFFCURVE",
"577 161 OFFCURVE",
"644 161 CURVE SMOOTH",
"649 161 OFFCURVE",
"660 163 OFFCURVE",
"678 165 CURVE"
);
},
{
closed = 1;
nodes = (
"457 527 OFFCURVE",
"411 539 OFFCURVE",
"353 539 CURVE SMOOTH",
"284 539 LINE",
"284 401 LINE",
"322 401 LINE",
"354 403 LINE",
"405 407 OFFCURVE",
"457 419 OFFCURVE",
"457 476 CURVE SMOOTH"
);
}
);
};
components = (
{
name = R;
},
{
name = breveinvertedcomb.case;
transform = "{1, 0, 0, 1, 49, 0}";
}
);
hints = (
{
horizontal = 1;
place = "{762, 186}";
},
{
horizontal = 1;
place = "{824, 124}";
},
{
horizontal = 1;
place = "{-16, 177}";
},
{
horizontal = 1;
place = "{539, 148}";
},
{
horizontal = 1;
place = "{0, 21}";
target = up;
type = BottomGhost;
}
);
layerId = UUID0;
width = 698;
}
);
leftKerningGroup = B;
rightKerningGroup = R;
unicode = 0212;
},
{
glyphname = Sacute;
layers = (
{
background = {
anchors = (
{
name = bottom;
position = "{296, 0}";
},
{
name = top;
position = "{296, 688}";
}
);
paths = (
{
closed = 1;
nodes = (
"141 870 LINE",
"434 1075 LINE",
"535 896 LINE",
"202 763 LINE"
);
},
{
closed = 1;
nodes = (
"563 61 OFFCURVE",
"460 -16 OFFCURVE",
"288 -16 CURVE SMOOTH",
"193 -16 OFFCURVE",
"109 1 OFFCURVE",
"37 36 CURVE",
"57 85 OFFCURVE",
"73 131 OFFCURVE",
"84 172 CURVE SMOOTH",
"86 179 OFFCURVE",
"88 185 OFFCURVE",
"90 189 CURVE",
"163 171 LINE",
"198 164 OFFCURVE",
"247 152 OFFCURVE",
"274 152 CURVE SMOOTH",
"319 152 OFFCURVE",
"359 157 OFFCURVE",
"359 194 CURVE SMOOTH",
"359 240 OFFCURVE",
"263 254 OFFCURVE",
"196 277 CURVE",
"104 306 OFFCURVE",
"34 376 OFFCURVE",
"34 480 CURVE SMOOTH",
"34 629 OFFCURVE",
"124 703 OFFCURVE",
"302 703 CURVE SMOOTH",
"386 703 OFFCURVE",
"465 686 OFFCURVE",
"538 650 CURVE",
"484 501 LINE",
"358 533 OFFCURVE",
"348 536 OFFCURVE",
"318 536 CURVE SMOOTH",
"302 536 LINE SMOOTH",
"294 536 OFFCURVE",
"290 537 OFFCURVE",
"286 537 CURVE SMOOTH",
"256 537 OFFCURVE",
"240 530 OFFCURVE",
"240 503 CURVE SMOOTH",
"240 482 OFFCURVE",
"258 467 OFFCURVE",
"294 456 CURVE",
"470 415 OFFCURVE",
"563 336 OFFCURVE",
"563 225 CURVE SMOOTH"
);
}
);
};
components = (
{
name = S;
},
{
name = acutecomb.case;
transform = "{1, 0, 0, 1, -4, 0}";
}
);
hints = (
{
horizontal = 1;
place = "{763, 21}";
target = up;
type = BottomGhost;
},
{
horizontal = 1;
place = "{1075, -20}";
target = down;
type = TopGhost;
},
{
horizontal = 1;
place = "{-16, 168}";
},
{
horizontal = 1;
place = "{537, 167}";
}
);
layerId = UUID0;
width = 592;
}
);
leftKerningGroup = S;
rightKerningGroup = S;
unicode = 015A;
},
{
glyphname = Scaron;
layers = (
{
background = {
anchors = (
{
name = bottom;
position = "{296, 0}";
},
{
name = top;
position = "{296, 688}";
}
);
paths = (
{
closed = 1;
nodes = (
"86 1012 LINE",
"252 1012 LINE",
"291 905 LINE",
"301 866 LINE",
"312 901 OFFCURVE",
"339 975 OFFCURVE",
"351 1012 CURVE",
"517 1012 LINE",
"394 763 LINE",
"209 763 LINE"
);
},
{
closed = 1;
nodes = (
"563 61 OFFCURVE",
"460 -16 OFFCURVE",
"288 -16 CURVE SMOOTH",
"193 -16 OFFCURVE",
"109 1 OFFCURVE",
"37 36 CURVE",
"57 85 OFFCURVE",
"73 131 OFFCURVE",
"84 172 CURVE SMOOTH",
"86 179 OFFCURVE",
"88 185 OFFCURVE",
"90 189 CURVE",
"163 171 LINE",
"198 164 OFFCURVE",
"247 152 OFFCURVE",
"274 152 CURVE SMOOTH",
"319 152 OFFCURVE",
"359 157 OFFCURVE",
"359 194 CURVE SMOOTH",
"359 240 OFFCURVE",
"263 254 OFFCURVE",
"196 277 CURVE",
"104 306 OFFCURVE",
"34 376 OFFCURVE",
"34 480 CURVE SMOOTH",
"34 629 OFFCURVE",
"124 703 OFFCURVE",
"302 703 CURVE SMOOTH",
"386 703 OFFCURVE",
"465 686 OFFCURVE",
"538 650 CURVE",
"484 501 LINE",
"358 533 OFFCURVE",
"348 536 OFFCURVE",
"318 536 CURVE SMOOTH",
"302 536 LINE SMOOTH",
"294 536 OFFCURVE",
"290 537 OFFCURVE",
"286 537 CURVE SMOOTH",
"256 537 OFFCURVE",
"240 530 OFFCURVE",
"240 503 CURVE SMOOTH",
"240 482 OFFCURVE",
"258 467 OFFCURVE",
"294 456 CURVE",
"470 415 OFFCURVE",
"563 336 OFFCURVE",
"563 225 CURVE SMOOTH"
);
}
);
};
components = (
{
name = S;
},
{
name = caroncomb.case;
transform = "{1, 0, 0, 1, -4, 0}";
}
);
hints = (
{
horizontal = 1;
place = "{763, 249}";
},
{
horizontal = 1;
place = "{-16, 168}";
},
{
horizontal = 1;
place = "{537, 167}";
}
);
layerId = UUID0;
width = 592;
}
);
leftKerningGroup = S;
rightKerningGroup = S;
unicode = 0160;
},
